<?xml version="1.0" encoding="UTF-8" standalone="no"?>
<!-- Created with Inkscape (http://www.inkscape.org/) -->

<svg
   width="105.83334mm"
   height="105.83334mm"
   viewBox="0 0 105.83334 105.83334"
   version="1.1"
   id="svg1"
   inkscape:version="1.4 (86a8ad7, 2024-10-11)"
   sodipodi:docname="bambu.svg"
   xml:space="preserve"
   xmlns:inkscape="http://www.inkscape.org/namespaces/inkscape"
   xmlns:sodipodi="http://sodipodi.sourceforge.net/DTD/sodipodi-0.dtd"
   xmlns="http://www.w3.org/2000/svg"
   xmlns:svg="http://www.w3.org/2000/svg"><sodipodi:namedview
     id="namedview1"
     pagecolor="#ffffff"
     bordercolor="#000000"
     borderopacity="0.25"
     inkscape:showpageshadow="2"
     inkscape:pageopacity="0.0"
     inkscape:pagecheckerboard="0"
     inkscape:deskcolor="#d1d1d1"
     inkscape:document-units="mm"
     inkscape:zoom="0.68862935"
     inkscape:cx="262.11488"
     inkscape:cy="269.37568"
     inkscape:window-width="1920"
     inkscape:window-height="991"
     inkscape:window-x="-9"
     inkscape:window-y="-9"
     inkscape:window-maximized="1"
     inkscape:current-layer="layer1" /><defs
     id="defs1" /><g
     inkscape:label="Layer 1"
     inkscape:groupmode="layer"
     id="layer1"
     transform="translate(-35.556974,-77.224923)"><g
       id="g33"
       transform="translate(-33.811121,3.0737387)"><path
         style="fill:#fcfcfc"
         d="M 69.368095,127.06786 V 74.151184 h 52.916675 52.91667 v 52.916676 52.91667 H 122.28477 69.368095 Z"
         id="path34" /><path
         style="fill:#2f3131"
         d="m 94.090732,163.50202 c -0.07238,-0.1886 -0.0984,-5.38878 -0.05784,-11.55593 l 0.07375,-11.21302 1.190626,-0.47602 c 0.879792,-0.35175 22.263182,-8.78353 24.540102,-9.67652 0.26246,-0.10293 0.33073,3.31692 0.33073,16.56735 v 16.69706 h -12.97289 c -10.380206,0 -12.999183,-0.0685 -13.104475,-0.34292 z m 30.310698,-22.67197 v -23.01489 l 1.38907,0.55647 c 0.76398,0.30606 5.8539,2.3126 11.31094,4.45898 5.45703,2.14639 10.63625,4.19353 11.50937,4.5492 l 1.5875,0.64667 0.068,17.90923 0.068,17.90923 h -12.96643 -12.96644 z m -30.424157,-27.35886 -0.0084,-22.915838 h 13.099607 13.09962 l -0.002,17.793228 -0.002,17.79323 -4.16476,1.64097 c -2.29062,0.90253 -7.97476,3.1468 -12.63142,4.98728 -4.656666,1.84047 -8.672477,3.40721 -8.924023,3.48164 -0.430897,0.1275 -0.457843,-1.19048 -0.46576,-22.78051 z m 55.427287,9.88116 c -0.44915,-0.2038 -7.11384,-2.83642 -21.89427,-8.64846 l -3.10886,-1.22248 V 102.01838 90.555352 h 12.96459 12.96458 v 16.536458 c 0,9.09506 -0.0893,16.5284 -0.19843,16.51856 -0.10914,-0.01 -0.43657,-0.12596 -0.72761,-0.25802 z"
         id="path33" /></g></g></svg>
