<svg xmlns="http://www.w3.org/2000/svg" width="2500" height="2500" viewBox="0 0 16 16" fill="none"><path d="M2 5a2 2 0 0 1 2-2h11v11.667c0 .736-.597 1.333-1.333 1.333h-9A2.667 2.667 0 0 1 2 13.333z" fill="url(#a)"/><path d="M2 5a2 2 0 0 1 2-2h11v11.667c0 .736-.597 1.333-1.333 1.333h-9A2.667 2.667 0 0 1 2 13.333z" fill="url(#b)" fill-opacity=".7"/><path d="M2 7.5a2 2 0 0 1 2-2h6.5-1.17A1.33 1.33 0 0 0 8 6.831v2.336c0 .736-.597 1.333-1.333 1.333h-2A2.667 2.667 0 0 0 2 13.167v.083z" fill="url(#c)"/><path d="M2 7.5a2 2 0 0 1 2-2h6.5-1.17A1.33 1.33 0 0 0 8 6.831v2.336c0 .736-.597 1.333-1.333 1.333h-2A2.667 2.667 0 0 0 2 13.167v.083z" fill="url(#d)" fill-opacity=".3"/><path d="M2 2.667A2.667 2.667 0 0 1 4.667 0H10v5.5H4.5A2.5 2.5 0 0 0 2 8z" fill="url(#e)"/><path d="M2 2.667A2.667 2.667 0 0 1 4.667 0H10v5.5H4.5A2.5 2.5 0 0 0 2 8z" fill="url(#f)"/><path d="M2 2.667A2.667 2.667 0 0 1 4.667 0H10v5.5H4.5A2.5 2.5 0 0 0 2 8z" fill="url(#g)"/><path d="M15 1.333C15 .597 14.403 0 13.667 0H9.333C8.597 0 8 .597 8 1.333v2.834C8 4.903 8.597 5.5 9.333 5.5h4.334C14.403 5.5 15 4.903 15 4.167z" fill="url(#h)"/><path d="M7 5H2a2 2 0 0 0-2 2v5a2 2 0 0 0 2 2h5a2 2 0 0 0 2-2V7a2 2 0 0 0-2-2" fill="url(#i)"/><path d="M7 5H2a2 2 0 0 0-2 2v5a2 2 0 0 0 2 2h5a2 2 0 0 0 2-2V7a2 2 0 0 0-2-2" fill="url(#j)" fill-opacity=".3"/><path d="M6.804 12h-1.35l-.85-1.593-.07-.133-.044-.118h-.014q-.032.082-.06.135l-.066.13L3.47 12H2.196l1.529-2.503L2.301 7h1.333l.754 1.423a5 5 0 0 1 .147.303h.014l.077-.16.083-.157L5.492 7h1.27L5.317 9.458z" fill="white"/><defs><radialGradient id="a" cx="0" cy="0" r="1" gradientTransform="matrix(-12.2778 -13.3611 10.3453 -9.50255 15 17.0833)" gradientUnits="userSpaceOnUse"><stop offset=".065" stop-color="#379539"/><stop offset=".422" stop-color="#297C2D"/><stop offset=".703" stop-color="#15561C"/></radialGradient><radialGradient id="b" cx="0" cy="0" r="1" gradientTransform="matrix(-5.19097 -5.19097 4.01934 -4.01769 5.97222 7.69444)" gradientUnits="userSpaceOnUse"><stop stop-color="#073B10"/><stop offset=".992" stop-color="#084A13" stop-opacity="0"/></radialGradient><linearGradient id="c" x1="2" y1="9.375" x2="8.509" y2="9.375" gradientUnits="userSpaceOnUse"><stop stop-color="#52D17C"/><stop offset=".329" stop-color="#4AA647"/></linearGradient><linearGradient id="d" x1="8.375" y1="5.5" x2="8.375" y2="10.883" gradientUnits="userSpaceOnUse"><stop stop-color="#29852F"/><stop offset=".5" stop-color="#4AA647" stop-opacity="0"/></linearGradient><linearGradient id="e" x1="2.295" y1="6.484" x2="9.686" y2=".073" gradientUnits="userSpaceOnUse"><stop stop-color="#66D052"/><stop offset="1" stop-color="#85E972"/></linearGradient><radialGradient id="f" cx="0" cy="0" r="1" gradientUnits="userSpaceOnUse" gradientTransform="translate(9.712 3.40594) rotate(-180) scale(4.00837 8.48622)"><stop offset=".292" stop-color="#4EB43B"/><stop offset="1" stop-color="#72CC61" stop-opacity="0"/></radialGradient><linearGradient id="g" x1="5.607" y1="3.73" x2="2" y2="3.73" gradientUnits="userSpaceOnUse"><stop offset=".184" stop-color="#C0E075" stop-opacity="0"/><stop offset="1" stop-color="#D1EB95"/></linearGradient><radialGradient id="h" cx="0" cy="0" r="1" gradientTransform="matrix(-6.76438 -6.26972 5.54775 -7.64467 14.7644 6.26972)" gradientUnits="userSpaceOnUse"><stop offset=".44" stop-color="#79E96D"/><stop offset="1" stop-color="#D0EB76"/></radialGradient><radialGradient id="i" cx="0" cy="0" r="1" gradientUnits="userSpaceOnUse" gradientTransform="translate(0 5) rotate(45) scale(12.7279 36.2329)"><stop stop-color="#20A85E"/><stop offset=".944" stop-color="#09442A"/></radialGradient><radialGradient id="j" cx="0" cy="0" r="1" gradientUnits="userSpaceOnUse" gradientTransform="translate(4.5 10.4) rotate(90) scale(6.3 7.25625)"><stop offset=".58" stop-color="#33A662" stop-opacity="0"/><stop offset=".974" stop-color="#98F0B0"/></radialGradient></defs></svg>