<?xml version="1.0" encoding="UTF-8" standalone="no"?>
<!-- Created with Inkscape (http://www.inkscape.org/) -->

<svg
   width="161.57956mm"
   height="111.91763mm"
   viewBox="0 0 161.57956 111.91763"
   version="1.1"
   id="svg1"
   xml:space="preserve"
   inkscape:version="1.4 (86a8ad7, 2024-10-11)"
   sodipodi:docname="machineCNC.svg"
   xmlns:inkscape="http://www.inkscape.org/namespaces/inkscape"
   xmlns:sodipodi="http://sodipodi.sourceforge.net/DTD/sodipodi-0.dtd"
   xmlns="http://www.w3.org/2000/svg"
   xmlns:svg="http://www.w3.org/2000/svg"><sodipodi:namedview
     id="namedview1"
     pagecolor="#ffffff"
     bordercolor="#000000"
     borderopacity="0.25"
     inkscape:showpageshadow="2"
     inkscape:pageopacity="0.0"
     inkscape:pagecheckerboard="0"
     inkscape:deskcolor="#d1d1d1"
     inkscape:document-units="mm"
     inkscape:zoom="0.68862935"
     inkscape:cx="291.15808"
     inkscape:cy="217.09792"
     inkscape:window-width="1920"
     inkscape:window-height="991"
     inkscape:window-x="-9"
     inkscape:window-y="-9"
     inkscape:window-maximized="1"
     inkscape:current-layer="layer1" /><defs
     id="defs1" /><g
     inkscape:label="Layer 1"
     inkscape:groupmode="layer"
     id="layer1"
     transform="translate(-27.996384,-90.870401)"><path
       style="fill:#000000;stroke-width:0.725882"
       d="m 87.211782,202.61949 c -0.69229,-0.29 -1.50972,-1.11824 -1.97748,-2.00364 -1.36505,-2.58381 0.5881,-6.16067 3.56729,-6.5329 2.44307,-0.30524 4.17076,0.54161 7.00767,3.4349 2.24281,2.28739 3.58832,3.20271 5.736118,3.90217 0.88668,0.28876 1.58129,0.61486 1.54356,0.72468 -0.0406,0.1181 -0.72807,0.19523 -1.68303,0.18882 -1.40027,-0.009 -1.804968,-0.0957 -3.050698,-0.65038 -1.64638,-0.73309 -2.37329,-1.2612 -4.52041,-3.28413 -0.84666,-0.79769 -1.93266,-1.64072 -2.41333,-1.87341 -1.52744,-0.73943 -3.10711,-0.48068 -4.00067,0.6553 -0.48415,0.61549 -0.55323,2.26799 -0.12064,2.88561 0.72415,1.03385 2.31439,0.97116 2.52856,-0.0997 0.11505,-0.57525 0.59391,-0.7914 1.75332,-0.7914 0.45836,0 0.47639,0.0419 0.38122,0.8862 -0.10674,0.94702 -0.52138,1.63846 -1.35641,2.2619 -0.59909,0.44729 -2.61442,0.62297 -3.39507,0.29597 z m 20.861728,-0.86174 c -0.72643,-0.14433 -1.35393,-0.29558 -1.39446,-0.33611 -0.0405,-0.0405 0.0491,-0.42185 0.19931,-0.84739 l 0.27298,-0.77372 -2.67164,-0.43585 -2.67164,-0.43584 v -0.65616 c 0,-0.86441 0.35526,-3.24315 0.61093,-4.09072 0.11152,-0.36971 0.45068,-1.24586 0.75368,-1.94699 l 0.5509,-1.2748 -0.65209,-1.41399 c -0.90518,-1.96279 -1.10996,-3.17223 -1.24345,-7.34364 l -0.11599,-3.62497 -1.52742,-0.56132 c -1.927618,-0.7084 -3.265078,-1.70748 -3.868128,-2.88949 l -0.46217,-0.90589 v -7.11247 c 0,-3.91185 0.0648,-7.10879 0.14404,-7.10431 0.0792,0.004 0.74902,0.21581 1.48844,0.46961 l 1.34439,0.46145 0.0505,6.73141 0.0505,6.7314 0.71776,0.47278 c 1.174498,0.77364 2.147718,1.12454 2.265748,0.81695 0.0544,-0.14173 0.074,-3.29828 0.0437,-7.01455 -0.0303,-3.71627 -0.0304,-6.75681 -5e-5,-6.75675 0.0303,6e-5 1.19708,0.3842 2.59276,0.85364 3.483,1.17152 4.68059,1.45115 6.215,1.45115 1.9374,0 3.38711,-0.51184 7.55789,-2.6684 2.0598,-1.06504 3.85313,-1.97796 3.98516,-2.0287 0.18954,-0.0728 0.24008,1.48782 0.24008,7.41394 v 7.50618 l -0.48923,0.89026 c -0.58589,1.06613 -1.73629,1.89114 -3.73601,2.67923 l -1.44043,0.56767 -0.12059,2.6628 c -0.12925,2.854 -0.55527,5.36037 -1.14495,6.73604 -0.36068,0.84145 -0.36048,0.86417 0.0155,1.75062 0.63623,1.49982 0.9733,3.44977 1.09293,6.32255 l 0.11392,2.73565 -2.24708,1.05584 c -1.97941,0.93007 -5.0733,2.24355 -5.16647,2.19336 -0.0184,-0.01 -0.62785,-0.13614 -1.35429,-0.28047 z m 3.20808,-2.80567 c 0.94719,-0.54404 1.10282,-0.72555 1.44181,-1.6817 0.48933,-1.38018 1.31078,-4.3224 1.46548,-5.24905 0.14872,-0.89076 -0.10869,-0.93292 -0.51347,-0.0841 -0.16684,0.34986 -0.85704,1.495 -1.53378,2.54474 -1.12696,1.74812 -2.84337,4.87717 -2.84337,5.18352 0,0.23161 0.90438,-0.0937 1.98333,-0.71343 z m -2.56658,-2.89756 c 0.53869,-0.97709 1.36512,-2.38151 1.83652,-3.12092 1.64447,-2.57943 2.58975,-4.46552 3.2811,-6.54663 0.65302,-1.96576 0.69783,-2.25691 0.72171,-4.68867 0.0216,-2.20363 -0.0178,-2.5869 -0.26261,-2.55373 -2.91591,0.39506 -7.86044,0.39422 -10.06703,-10e-4 -0.12799,-0.0229 -0.22983,0.46133 -0.26477,1.25906 l -0.0568,1.29638 h 1.62672 1.62672 l -0.93133,1.77653 c -0.88334,1.68498 -1.34261,3.06237 -1.63299,4.89743 -0.0711,0.44893 -0.0568,0.81439 0.0318,0.81214 0.17477,-0.004 1.68776,-2.1655 3.26636,-4.66546 1.50193,-2.37854 1.6341,-2.5178 2.24418,-2.36468 0.75916,0.19054 0.99585,0.8448 0.62591,1.73018 -0.29322,0.70178 -1.54149,2.64557 -3.28285,5.112 -1.32058,1.87044 -2.30157,3.75803 -2.84467,5.47361 -0.82653,2.61091 -0.82667,2.55504 0.007,2.70278 0.72144,0.12792 2.9953,0.60251 3.0612,0.63892 0.0192,0.0106 0.47565,-0.78015 1.01433,-1.75723 z m -35.332521,5.06336 c -0.703681,-0.22761 -1.684196,-0.75711 -1.825561,-0.98585 -0.131067,-0.21206 0.859661,-1.91597 1.11437,-1.91654 0.0835,-1.9e-4 0.387977,0.17425 0.676615,0.38766 0.827228,0.61159 2.283897,0.70024 3.399245,0.20687 1.158295,-0.51237 1.455474,-0.30708 0.887004,0.61273 -0.827458,1.33886 -2.854521,2.14704 -4.251673,1.69513 z m 4.274744,-5.00991 c -0.898138,-0.52487 -1.386177,-1.08421 -2.070879,-2.37344 -0.135897,-0.25588 -0.448027,-0.36549 -1.148238,-0.40321 -1.145122,-0.0617 -1.981463,-0.45868 -2.656605,-1.26104 -0.501795,-0.59635 -0.891482,-1.66311 -0.89344,-2.44577 -0.0021,-0.8548 0.626475,-2.00727 1.400825,-2.5682 1.248624,-0.9045 2.24957,-0.68596 2.244797,0.4901 -0.0019,0.45678 -0.149885,0.68133 -0.672198,1.01967 -0.91838,0.59491 -0.989664,1.56569 -0.169101,2.30291 0.830533,0.74617 1.322948,0.58227 1.875282,-0.62418 0.265977,-0.58098 0.578147,-1.05631 0.693713,-1.05631 0.115565,0 0.55671,0.3241 0.980322,0.72021 l 0.770204,0.72021 -0.307975,0.86425 c -0.399299,1.12053 -0.243789,1.89375 0.531212,2.64128 1.21465,1.17159 2.05132,1.25996 3.73827,0.39486 0.65753,-0.3372 1.25076,-0.55784 1.31828,-0.49032 0.22956,0.22955 -0.6858,1.43401 -1.50532,1.98076 -0.61836,0.41254 -1.09598,0.56078 -1.96876,0.611 -1.00556,0.0579 -1.28074,-0.009 -2.160389,-0.52278 z m 20.414669,0.33065 c -0.0413,-0.13204 -0.13142,-0.58577 -0.20033,-1.00829 -0.27662,-1.69597 -1.3396,-2.82734 -3.57521,-3.80524 -1.29826,-0.56787 -1.707,-1.09555 -1.707,-2.20372 0,-0.7626 0.0921,-0.92173 1.07525,-1.85894 0.85455,-0.81457 1.04898,-1.1077 0.94727,-1.42815 -0.16793,-0.52911 -0.74698,-0.82515 -1.32849,-0.6792 -0.70816,0.17774 -1.2702,-0.21283 -1.2702,-0.88269 0,-1.70819 2.73099,-1.81197 4.1238,-0.15671 1.03432,1.22922 0.87207,2.92873 -0.39576,4.1454 -0.46596,0.44716 -0.84719,0.88915 -0.84719,0.98221 0,0.0931 0.37135,0.31102 0.82523,0.48435 1.03683,0.39597 2.28143,1.68169 2.72005,2.80992 0.35099,0.90282 0.43387,2.19933 0.20672,3.23355 -0.13504,0.61483 -0.43652,0.80781 -0.57414,0.36751 z m -6.55696,-3.72465 c -1.65797,-1.1315 -2.14654,-1.24306 -5.61182,-1.28134 -3.20223,-0.0353 -3.21751,-0.0376 -4.45732,-0.65402 -2.30283,-1.14492 -3.00184,-3.26796 -1.74536,-5.30099 0.4753,-0.76904 1.24868,-1.14291 2.36424,-1.14291 0.90176,0 1.30598,0.38215 1.30598,1.23467 0,0.61176 -0.49544,0.96571 -1.12231,0.80177 -0.57793,-0.15113 -0.99145,0.25571 -0.9842,0.96831 0.0135,1.32877 1.04697,1.85625 4.0261,2.0549 2.83959,0.18935 4.45109,0.68486 5.64492,1.73571 0.83178,0.73216 1.59817,1.82754 1.41017,2.01554 -0.0441,0.0441 -0.41783,-0.15009 -0.8304,-0.43164 z m -4.06854,-5.72778 c -0.7758,-0.6528 -1.38695,-1.94975 -1.38695,-2.94331 0,-0.44598 0.30208,-1.60551 0.68358,-2.6239 1.06376,-2.83967 1.09651,-3.61176 0.19448,-4.58507 -0.57699,-0.62257 -1.79147,-0.71749 -2.266,-0.17709 -0.5591,0.6367 -0.5754,1.12005 -0.0585,1.73437 0.5885,0.69938 0.60649,0.99289 0.0946,1.54239 -0.52902,0.56784 -1.06607,0.52866 -1.72022,-0.12549 -1.47955,-1.47955 -0.95422,-4.23305 0.99996,-5.24128 1.77908,-0.9179 3.99033,-0.28202 5.04799,1.45164 0.5173,0.84791 0.57674,1.10699 0.57282,2.49673 -0.004,1.49073 -0.0432,1.62556 -1.0083,3.48962 -1.1398,2.20141 -1.2583,3.0513 -0.60425,4.33335 0.51585,1.01115 0.25216,1.32231 -0.54917,0.64804 z m -17.856604,-2.77418 c -0.69358,-1.11574 -1.754725,-1.74549 -2.941206,-1.74549 -0.728903,0 -0.787869,-0.0367 -0.692961,-0.43212 0.05705,-0.23767 0.162468,-0.75622 0.234251,-1.15234 0.144479,-0.79726 0.20224,-0.81517 1.637137,-0.50744 1.21032,0.25957 2.389053,1.2489 2.689126,2.25704 0.247353,0.83102 0.169201,2.36941 -0.125278,2.46605 -0.114427,0.0375 -0.474908,-0.36102 -0.801069,-0.8857 z m 6.578751,-1.34026 c -1.120426,-0.5171 -1.66007,-1.19168 -1.775982,-2.22006 -0.123434,-1.0951 0.320378,-2.33205 1.107194,-3.08587 0.780641,-0.74789 0.732679,-0.98241 -0.183058,-0.89508 -1.415981,0.13503 -2.783226,-0.56353 -3.391641,-1.73288 -0.346934,-0.6668 -0.34716,-2.47759 -4.14e-4,-3.30747 0.458686,-1.09779 1.586523,-2.17192 2.729582,-2.59959 1.291246,-0.48312 1.654155,-0.49036 2.060721,-0.0411 0.677409,0.74852 0.218947,1.54724 -1.069981,1.86409 -0.628474,0.15449 -1.817637,1.41795 -1.993295,2.11783 -0.08821,0.35145 -0.01077,0.65486 0.258605,1.01313 0.416566,0.55406 0.556057,0.56921 2.930466,0.31837 1.114144,-0.1177 1.294826,-0.0878 1.680496,0.27815 0.28821,0.27347 0.43212,0.63458 0.43212,1.08428 0,0.66788 -0.45713,1.80741 -0.72514,1.80762 -0.0765,6e-5 -0.562429,0.41058 -1.079818,0.91226 -1.757269,1.70395 -1.787126,2.74394 -0.11031,3.8425 0.525244,0.34412 0.95499,0.71143 0.95499,0.81624 0,0.30583 -0.991297,0.21215 -1.824535,-0.17241 z m 32.169431,-21.46251 c -0.47534,-0.15668 -2.85204,-0.92865 -5.28155,-1.71548 -2.42951,-0.78684 -5.324758,-1.72691 -6.433888,-2.08906 -1.10912,-0.36215 -4.20324,-1.36614 -6.87582,-2.23109 -5.43631,-1.75941 -5.76159,-1.95022 -6.27569,-3.68138 -0.24644,-0.82986 -0.29243,-2.65187 -0.29243,-11.58618 v -10.60147 l -0.91227,-0.21955 c -0.50174,-0.12075 -1.94937,-0.52378 -3.21694,-0.89562 -3.679482,-1.07938 -6.543927,-1.91575 -9.122673,-2.6637 -1.320388,-0.38296 -3.394596,-0.99152 -4.609352,-1.35235 -2.05467,-0.61033 -4.315375,-1.26346 -10.082956,-2.91307 -1.267572,-0.36254 -3.298568,-0.95258 -4.513324,-1.31119 -2.795937,-0.82539 -6.048783,-1.77128 -9.602815,-2.79238 -1.531649,-0.44005 -3.562645,-1.0421 -4.513323,-1.33789 -0.95068,-0.29579 -2.030996,-0.59652 -2.400705,-0.66829 -1.240181,-0.24076 -3.738379,-1.1199 -4.446579,-1.56479 -0.985022,-0.6188 -1.763894,-2.25315 -1.761274,-3.69581 0.0036,-2.16933 1.508137,-4.00854 3.640409,-4.4512 1.099327,-0.22822 2.033781,-0.0227 8.329134,1.83166 3.130067,0.922 7.012239,2.05753 9.698843,2.83688 2.817127,0.81722 6.422222,1.87004 8.35445,2.43981 0.792232,0.23361 2.304676,0.66341 3.360986,0.95511 1.056309,0.2917 2.698391,0.76333 3.64907,1.04806 1.864642,0.55848 4.68257,1.37768 8.642534,2.51249 1.373202,0.39352 3.490623,1.00439 4.705375,1.35748 1.21476,0.35309 2.79202,0.81043 3.50503,1.01632 l 1.29638,0.37433 v -4.26774 c 0,-6.32336 0.12404,-6.59955 3.89326,-8.66905 1.29171,-0.70922 2.69427,-1.48071 3.1168,-1.71442 1.92127,-1.06273 6.60459,-3.6505 7.29814,-4.03258 5.533838,-3.048703 7.625258,-4.134413 8.320078,-4.319173 0.98143,-0.26097 2.15166,-0.11759 7.09061,0.86874 1.82114,0.36369 3.42438,0.66125 3.56279,0.66125 0.1384,0 0.43431,-0.376 0.65758,-0.83555 0.59968,-1.23432 2.37449,-3.04744 3.84847,-3.93152 2.40215,-1.44081 6.46328,-2.2738 9.53862,-1.9565 3.6205,0.37353 6.71641,1.65807 11.36437,4.71525 5.11152,3.36208 7.05639,4.048733 10.92969,3.858823 6.23367,-0.30565 10.17815,-2.042783 20.04118,-8.826033 1.27608,-0.87762 1.96342,-0.91418 2.73227,-0.14533 0.44361,0.44361 0.5614,0.73192 0.5614,1.37413 0,0.7005 -0.1078,0.91528 -0.78058,1.55528 -1.4433,1.37298 -5.56025,3.98646 -9.39841,5.966193 -3.12775,1.61331 -6.91096,2.94582 -10.23466,3.60483 -1.30529,0.25881 -4.73443,0.33589 -6.37821,0.14337 l -1.15234,-0.13496 0.6722,0.30313 c 2.25841,1.01844 6.46438,1.08848 9.98693,0.1663 3.64468,-0.95415 8.0206,-3.11664 14.854,-7.340533 1.27312,-0.78696 2.01888,-0.86885 2.77452,-0.30468 0.4627,0.34545 0.5208,0.51417 0.5208,1.51238 0,1.12336 -1.7e-4,1.12368 -0.96028,1.850063 -0.52815,0.39958 -1.43562,0.98829 -2.01659,1.30825 -0.58097,0.31995 -1.7045,0.97099 -2.49673,1.44677 -2.42172,1.45435 -7.2725,3.75024 -9.60282,4.54504 -1.21476,0.41432 -2.98647,0.87573 -3.93715,1.02535 -2.17161,0.34178 -6.46235,0.34613 -8.35457,0.008 -2.93817,-0.5243 -6.2006,-2.22006 -10.74917,-5.58725 -2.61602,-1.93658 -5.25701,-3.288163 -7.26762,-3.719363 -1.68168,-0.36065 -3.98501,-0.25806 -5.50999,0.24542 -0.76346,0.25205 -1.21991,0.48903 -1.05631,0.5484 0.15844,0.0575 1.69426,0.386943 3.41291,0.732083 1.71865,0.34514 3.37552,0.77999 3.68193,0.96633 0.30641,0.18634 0.8016,0.75474 1.10042,1.2631 l 0.5433,0.92431 0.096,15.64657 0.096,15.64657 1.44042,0.41705 c 0.79223,0.22938 2.56395,0.73672 3.93715,1.12742 1.37321,0.39072 3.49063,1.00297 4.70538,1.36058 1.21476,0.35761 3.46182,1.00467 4.99347,1.43792 1.53165,0.43325 3.82192,1.09034 5.08949,1.4602 1.26758,0.36987 3.34178,0.97214 4.60936,1.33838 1.26757,0.36625 3.29856,0.95638 4.51331,1.3114 1.21476,0.35503 3.46182,1.00312 4.99347,1.44023 1.53165,0.43709 3.77871,1.08477 4.99347,1.43928 1.21475,0.3545 3.33217,0.96432 4.70538,1.35515 1.3732,0.39083 3.31776,0.95741 4.32126,1.25905 1.00349,0.30164 2.40732,0.6923 3.11962,0.86814 2.69552,0.66542 4.17319,2.3036 4.17672,4.63043 7.3e-4,0.65332 -0.0872,1.42199 -0.19602,1.70814 -0.3665,0.964 -1.3951,2.04525 -2.38347,2.50549 -1.72121,0.80148 -1.63982,0.81731 -12.97527,-2.52462 -3.96174,-1.168 -7.34719,-2.15084 -9.8909,-2.87144 -3.57656,-1.01318 -6.77422,-1.94147 -9.31473,-2.70408 -1.21476,-0.36465 -2.29305,-0.66284 -2.3962,-0.66265 -0.10316,1.8e-4 -1.14026,-0.28903 -2.30468,-0.64269 -2.46272,-0.74797 -4.32806,-1.28808 -7.39867,-2.14228 -2.64143,-0.7348 -8.03539,-2.32167 -8.47493,-2.49327 -0.27587,-0.1077 -0.32193,0.15529 -0.39276,2.24218 -0.12334,3.63418 -0.50161,4.18442 -4.09992,5.96379 -0.74151,0.36668 -2.59965,1.3159 -4.12921,2.10938 -10.52073,5.45777 -12.43823,6.42063 -13.13428,6.59533 l -0.49791,0.12497 v -16.90806 c 0,-15.11489 -0.032,-16.94007 -0.30181,-17.20986 -0.4075,-0.40751 -1.29506,-0.38148 -1.68502,0.0494 -0.29067,0.32119 -0.31784,1.79079 -0.31784,17.18904 0,13.35031 -0.0497,16.83468 -0.24008,16.82266 -0.13203,-0.008 -0.62898,-0.14336 -1.10432,-0.30004 z m 73.94168,-7.94322 c 0.21126,-0.21126 0.38411,-0.61497 0.38411,-0.89715 0,-0.54484 -0.47983,-1.21547 -0.86968,-1.21547 -0.12869,0 -1.26043,-0.30257 -2.51498,-0.67238 -1.25455,-0.36981 -3.36131,-0.9825 -4.6817,-1.36153 -1.32039,-0.37903 -3.22175,-0.93425 -4.22524,-1.23381 -1.00349,-0.29956 -2.21345,-0.64202 -2.68879,-0.76102 -0.47534,-0.119 -1.85814,-0.51239 -3.0729,-0.8742 -1.21475,-0.36182 -3.28896,-0.96847 -4.60935,-1.34813 -1.32039,-0.37965 -3.3946,-0.98158 -4.60935,-1.33761 -1.21476,-0.35604 -3.46182,-1.00464 -4.99347,-1.44135 -4.50326,-1.28397 -9.24649,-2.65966 -14.11613,-4.09413 -1.26758,-0.3734 -3.42821,-0.99302 -4.80142,-1.37694 -1.3732,-0.38392 -3.45823,-0.99452 -4.63341,-1.35689 -2.48253,-0.7655 -2.81851,-0.79315 -3.33692,-0.27474 -0.66522,0.66522 -0.30651,2.11262 0.52357,2.11262 0.1496,0 1.32456,0.31255 2.61102,0.69455 1.28645,0.38201 3.37612,0.99368 4.64369,1.35926 1.26757,0.36559 3.29857,0.95395 4.51332,1.30746 1.21476,0.35351 3.46182,0.99723 4.99347,1.43047 1.53165,0.43325 3.7787,1.07946 4.99346,1.43602 1.21476,0.35656 3.33218,0.96758 4.70538,1.35782 1.3732,0.39024 3.62026,1.03872 4.99347,1.44107 1.3732,0.40235 3.62025,1.05382 4.99346,1.44771 1.3732,0.3939 3.31777,0.95606 4.32127,1.24925 1.79139,0.52339 3.96198,1.14468 7.01005,2.00649 4.04668,1.14416 9.01855,2.6186 9.09803,2.69807 0.2239,0.22391 1.0219,0.0517 1.36904,-0.29544 z m -99.140298,-29.72071 -0.0568,-1.29639 -0.86425,-0.22948 c -0.83623,-0.22205 -2.47297,-0.69862 -7.106087,-2.06906 -1.214755,-0.35932 -3.245751,-0.95216 -4.513323,-1.31743 -1.267572,-0.36527 -3.34178,-0.96812 -4.609351,-1.33967 -1.267572,-0.37155 -3.557843,-1.03274 -5.089492,-1.46932 -1.53165,-0.43657 -3.778709,-1.08919 -4.993465,-1.45027 -1.214756,-0.36108 -3.288964,-0.96847 -4.609351,-1.34975 -1.320388,-0.38128 -3.416202,-0.98958 -4.657366,-1.35178 -1.241164,-0.36219 -3.272159,-0.95435 -4.513323,-1.31591 -1.241164,-0.36156 -3.425274,-1.00975 -4.853577,-1.44042 -2.707102,-0.81627 -3.602887,-0.94031 -3.990617,-0.55258 -0.309296,0.30929 -0.293813,1.59049 0.02239,1.85292 0.238634,0.19805 3.526497,1.2196 6.277055,1.9503 0.686601,0.1824 2.026194,0.56549 2.976873,0.85132 2.11423,0.63564 5.293371,1.57203 8.738562,2.57387 1.426018,0.41469 3.24095,0.94549 4.033182,1.17958 0.792233,0.23408 2.218251,0.63639 3.16893,0.894 0.950679,0.25762 2.376697,0.67433 3.168929,0.92602 0.792232,0.2517 2.563952,0.77651 3.937154,1.16625 1.373203,0.38973 3.663475,1.04936 5.089493,1.46584 1.426018,0.41647 3.586651,1.04719 4.801408,1.40159 3.507216,1.02321 6.993136,2.04979 7.202116,2.12099 0.45031,0.15341 0.4949,0.032 0.4409,-1.20062 z m 28.939288,-12.06148 c 2.97545,-1.54367 3.93014,-2.1823 4.0649,-2.71919 0.068,-0.2711 0.0127,-1.89343 -0.12304,-3.60519 l -0.24674,-3.11227 -1.74932,-0.31454 c -3.66481,-0.65895 -5.4306,-0.9458 -6.35867,-1.03298 -1.11448,-0.10468 -0.9763,-0.16844 -7.49019,3.45587 -2.863288,1.59312 -3.204068,1.78223 -4.801408,2.66443 -2.19684,1.2133 -2.59276,1.5041 -2.59276,1.90432 0,0.60203 -0.45627,0.48585 10.851178,2.76319 1.79573,0.36166 3.69708,0.74266 4.22524,0.84667 1.49173,0.29376 2.34814,0.12123 4.22081,-0.85031 z m 10.85561,-5.90652 c 2.44017,-1.3473 2.45157,-1.60827 0.096,-2.20003 -1.62354,-0.40787 -1.7432,-0.41424 -1.97036,-0.1049 -0.34979,0.47632 -0.6201,1.56728 -0.62133,2.50771 -0.001,1.07758 0.20747,1.06061 2.49566,-0.20278 z m -1.13968,-7.537233 c 1.3093,-1.00748 2.67243,-1.67109 4.30094,-2.09382 1.48065,-0.38435 5.31161,-0.38743 7.11368,-0.006 1.58451,0.33563 1.4405,0.32314 1.4405,0.12487 0,-0.0879 -0.92908,-0.45265 -2.06461,-0.81047 -1.75872,-0.5542 -2.33492,-0.6493 -3.88914,-0.64192 -3.46815,0.0165 -6.97249,1.48378 -8.27998,3.46692 -0.76092,1.15412 -0.1501,1.13646 1.37861,-0.0399 z"
       id="path1" /></g></svg>
