<?xml version="1.0" encoding="UTF-8" standalone="no"?>
<!-- Created with Inkscape (http://www.inkscape.org/) -->

<svg
   width="162.86819mm"
   height="32.156448mm"
   viewBox="0 0 162.86819 32.156448"
   version="1.1"
   id="svg1"
   inkscape:version="1.4 (86a8ad7, 2024-10-11)"
   sodipodi:docname="palmsens.svg"
   xmlns:inkscape="http://www.inkscape.org/namespaces/inkscape"
   xmlns:sodipodi="http://sodipodi.sourceforge.net/DTD/sodipodi-0.dtd"
   xmlns="http://www.w3.org/2000/svg"
   xmlns:svg="http://www.w3.org/2000/svg">
  <sodipodi:namedview
     id="namedview1"
     pagecolor="#ffffff"
     bordercolor="#000000"
     borderopacity="0.25"
     inkscape:showpageshadow="2"
     inkscape:pageopacity="0.0"
     inkscape:pagecheckerboard="0"
     inkscape:deskcolor="#d1d1d1"
     inkscape:document-units="mm"
     inkscape:zoom="0.68862935"
     inkscape:cx="317.29696"
     inkscape:cy="151.75072"
     inkscape:window-width="1920"
     inkscape:window-height="991"
     inkscape:window-x="-9"
     inkscape:window-y="-9"
     inkscape:window-maximized="1"
     inkscape:current-layer="layer1" />
  <defs
     id="defs1" />
  <g
     inkscape:label="Layer 1"
     inkscape:groupmode="layer"
     id="layer1"
     transform="translate(-20.949351,-108.28244)">
    <g
       id="g20"
       transform="translate(1.9210867,-16.137128)">
      <path
         style="fill:#c9e1f1"
         d="m 29.829487,155.79946 c -5.44178,-1.97514 -9.817495,-7.07667 -10.530274,-12.27696 l -0.26808,-1.95586 4.636909,0.0154 4.63691,0.0154 0.851909,1.79426 c 2.479189,5.22158 9.902667,4.85343 12.162871,-0.60319 l 0.506145,-1.22194 h 4.476243 4.476243 l -0.21561,1.91289 c -0.989914,8.78248 -12.172326,15.42719 -20.733266,12.31993 z m 26.096571,-3.69044 c -0.33103,-0.53598 0.282913,-1.17138 1.131817,-1.17138 2.92631,0 3.293116,-19.66544 0.374794,-20.09372 -0.521391,-0.0765 -1.0316,-0.39285 -1.133798,-0.70296 -0.343274,-1.04164 12.34878,-0.51393 13.53689,0.56283 5.14201,4.66012 1.91542,13.95674 -4.579245,13.19396 l -2.236262,-0.26264 v 3.40445 3.40444 l 1.301576,0.28587 c 0.863717,0.18971 1.257776,0.50846 1.171375,0.94753 -0.139558,0.70921 -9.14478,1.11548 -9.567147,0.43162 z m 10.858006,-11.18935 c 2.897444,-3.6835 0.610058,-10.76439 -3.170755,-9.81547 -1.123032,0.28187 -1.55506,7.29324 -0.603597,9.79578 0.571181,1.50232 2.599791,1.51291 3.774352,0.0197 z m 7.198626,11.18935 c -3.089137,-2.3458 -0.89224,-6.6634 4.208635,-8.27131 l 2.293069,-0.72283 v -1.99983 c 0,-3.74828 -2.234525,-3.6891 -4.332849,0.11475 -1.217933,2.20788 -3.028825,2.62173 -3.247846,0.74224 -0.279031,-2.39444 3.525249,-5.0909 7.18247,-5.0909 3.486638,0 3.805862,0.60526 3.805862,7.21609 0,5.43574 0.314564,6.69623 1.400169,5.61062 0.610762,-0.61076 2.007468,-0.61493 2.007468,-0.006 0,2.22991 -4.334825,3.60822 -5.94788,1.8912 l -0.984924,-1.04841 -1.788965,1.04841 c -1.972075,1.15571 -3.523355,1.32989 -4.595209,0.51596 z m 5.618879,-3.14562 c 0.74624,-0.94869 1.312996,-4.41508 0.721867,-4.41508 -1.049697,0 -3.361743,1.52505 -3.713105,2.4492 -0.993389,2.61281 1.297867,4.11866 2.991238,1.96588 z m 7.665291,2.99994 c -0.481787,-0.58095 -0.06738,-1.0257 0.95571,-1.0257 1.292565,0 1.19358,-18.27936 -0.103371,-19.08932 -0.914005,-0.57081 -0.504606,-1.76316 0.616978,-1.79691 0.264158,-0.008 1.247005,-0.37708 2.184105,-0.8203 l 1.703819,-0.80585 0.212977,11.13084 0.212978,11.13084 1.033306,0.24359 c 0.97575,0.23002 1.788444,1.26331 1.025474,1.30382 -4.180436,0.22199 -7.529093,0.10626 -7.841976,-0.27101 z m 8.728611,0.28766 c -0.485587,-0.4877 -0.0789,-1.31336 0.646906,-1.31336 1.000098,0 1.145767,-0.9152 0.957805,-6.01765 -0.12082,-3.27979 -0.233731,-3.71879 -1.050182,-4.0831 -0.895515,-0.39959 -0.888169,-0.42501 0.348352,-1.20532 0.694737,-0.43841 1.804985,-1.23661 2.467216,-1.77377 1.539662,-1.24888 1.990602,-1.2318 1.990602,0.0754 v 1.05205 l 1.55028,-1.05205 c 2.32726,-1.57932 5.98524,-0.87103 6.82673,1.32185 0.20749,0.5407 0.51406,0.41436 1.63799,-0.67499 2.17376,-2.1069 4.35248,-2.20567 6.44281,-0.29208 l 1.64526,1.50613 0.21298,5.46528 c 0.20701,5.31207 0.24054,5.46919 1.19627,5.60466 2.79089,0.3956 0.6831,1.47422 -2.87981,1.4737 -3.73453,-5.5e-4 -4.92808,-0.58682 -2.82361,-1.38693 2.62595,-0.99839 1.17164,-11.51394 -1.59239,-11.51394 -2.9345,0 -4.52053,10.45906 -1.746,11.51394 2.73499,1.03984 -0.26877,1.61042 -6.74341,1.28095 -0.74399,-0.0379 -0.23511,-0.92132 0.74542,-1.29412 1.70277,-0.64739 1.64842,-9.27612 -0.0669,-10.62541 -1.21355,-0.95458 -2.33559,-0.85748 -3.67339,0.31789 -1.33265,1.17085 -0.89354,9.96954 0.51408,10.30082 0.97279,0.22893 1.79393,1.26855 1.02548,1.29831 -3.870802,0.1499 -7.494583,0.16023 -7.632459,0.0217 z m 29.818449,-0.0675 c -2.19409,-0.63708 -2.79709,-1.66074 -2.65026,-4.49915 0.15973,-3.08785 1.18094,-3.50416 1.73412,-0.70694 0.94214,4.76409 7.61515,5.54429 8.61174,1.00687 0.46334,-2.10958 -0.028,-2.72974 -3.99709,-5.04481 -5.034,-2.93622 -6.16296,-4.28148 -5.89894,-7.02914 0.64602,-6.72321 11.26051,-9.04908 12.40456,-2.71811 0.56263,3.11353 -1.32619,4.64591 -2.05801,1.66963 -1.22189,-4.96939 -7.04659,-4.85917 -7.04659,0.13334 0,1.03241 2.12951,3.06656 4.999,4.77512 9.25383,5.50998 4.36909,15.45257 -6.09853,12.41319 z m 16.75232,-0.42352 c -4.97473,-2.62619 -5.43372,-10.00262 -0.84042,-13.5061 3.44434,-2.62712 9.66225,-1.05039 10.70156,2.71369 0.72552,2.6276 0.5341,2.72881 -5.16109,2.72881 h -5.11328 l 0.29696,1.58295 c 0.821,4.3763 5.1249,6.13079 8.50913,3.46875 1.38867,-1.09232 1.91741,-0.70046 1.07433,0.79622 -1.52757,2.71178 -6.37738,3.84682 -9.46719,2.21568 z m 5.99013,-11.1251 c 0.30152,-2.61068 -2.81382,-3.0759 -4.79901,-0.71664 -1.60201,1.90389 -1.40075,2.12714 1.7916,1.9873 2.76693,-0.12121 2.88018,-0.16906 3.00741,-1.27066 z m 8.06741,11.68542 c -3.40746,-0.14519 -4.28865,-0.74743 -2.34275,-1.60115 1.58395,-0.69491 1.68337,-8.37148 0.12168,-9.39474 -1.45067,-0.95051 -1.36731,-1.29777 0.54575,-2.27374 0.8942,-0.45619 1.87607,-1.13096 2.18193,-1.4995 0.80755,-0.97303 1.3037,-0.82277 1.3037,0.39483 0,1.29636 0.30037,1.33136 1.52801,0.17806 4.21663,-3.96132 8.36487,-0.58983 8.69043,7.06316 0.20454,4.80808 0.27498,5.13669 1.18673,5.53662 2.18017,0.95629 0.90306,1.69867 -2.67768,1.55652 -3.77574,-0.1499 -4.76878,-0.60391 -3.0419,-1.39073 1.11671,-0.50881 1.12969,-0.56551 1.12969,-4.93823 0,-5.80915 -1.43416,-7.58955 -4.85724,-6.0299 -2.54528,1.15971 -2.86021,9.84828 -0.39764,10.9703 2.41524,1.10046 1.18331,1.62255 -3.37071,1.4285 z m 16.29277,0.0189 c -1.47222,-0.54132 -2.12969,-1.55635 -2.12325,-3.27795 0.0112,-3.00692 1.32329,-3.77785 1.90695,-1.12048 0.67912,3.09203 3.46316,4.43544 5.32775,2.57085 1.53957,-1.53956 0.66247,-4.6761 -1.3114,-4.68966 -3.22183,-0.0222 -6.42352,-3.31303 -5.46786,-5.6202 1.88378,-4.54783 10.54335,-4.7841 10.11037,-0.27585 -0.17937,1.86763 -1.27315,2.08407 -1.91664,0.37926 -0.96371,-2.55316 -4.86716,-2.5201 -5.16509,0.0437 -0.13547,1.16572 1.52334,2.92147 2.76015,2.92147 1.03107,0 3.92333,1.66858 4.38387,2.52911 2.10779,3.93845 -3.61391,8.33807 -8.50485,6.5397 z M 19.281907,137.72121 c 0.715721,-6.04315 6.663209,-12.01408 12.963125,-13.01424 l 1.810308,-0.2874 v 4.73423 4.73422 l -1.429801,0.59741 c -1.810496,0.75648 -3.57482,2.64343 -3.913523,4.18554 l -0.261775,1.19185 h -4.710988 -4.710989 z m 21.975745,0.54428 c -0.604992,-1.59688 -1.988674,-3.00947 -3.915887,-3.9977 l -1.612052,-0.82662 0.121211,-4.34987 0.121211,-4.34987 1.366086,0.10563 c 5.92525,0.45817 12.35265,6.6192 13.176592,12.6305 l 0.268552,1.95931 h -4.540964 -4.540964 z"
         id="path33" />
      <path
         style="fill:#b0d4ee"
         d="m 30.343588,155.88194 c -5.717151,-1.86586 -10.347216,-7.14593 -11.084157,-12.64023 l -0.224673,-1.67507 h 4.695409 c 4.613365,0 4.699935,0.018 4.954439,1.03206 1.110595,4.42496 7.152184,6.10958 10.825628,3.01858 l 1.234083,-1.03841 1.747001,1.28475 1.747001,1.28476 0.871875,-1.70901 c 0.479532,-0.93996 0.871875,-2.10001 0.871875,-2.5779 0,-0.76921 0.268719,-0.86888 2.342751,-0.86888 2.629998,0 2.576462,-0.0897 1.702603,2.8529 -2.538593,8.54837 -11.651547,13.65787 -19.683835,11.03645 z M 56.382219,152.251 c -0.485749,-0.48641 -0.0801,-1.31336 0.644245,-1.31336 1.992639,0 2.160199,-0.77248 2.160199,-9.95894 0,-8.94777 -0.157942,-9.82085 -1.832807,-10.13148 -2.562328,-0.47522 -0.31258,-1.00746 4.705282,-1.11317 8.113549,-0.17091 9.901317,1.04518 9.904571,6.73737 0.0032,5.51152 -2.665498,8.24127 -7.126642,7.2898 l -1.848572,-0.39426 0.122368,3.67885 c 0.121816,3.66223 0.127662,3.67946 1.293744,3.81364 1.014205,0.11669 1.764217,1.3252 0.851909,1.37269 -2.687822,0.13991 -8.740563,0.15278 -8.874297,0.0189 z M 66.59439,141.33929 c 3.186037,-3.18604 1.247313,-10.78952 -2.636803,-10.34129 l -1.15031,0.13275 -0.120865,4.83751 c -0.08,3.20203 0.04564,5.03814 0.371622,5.43092 0.656058,0.79051 2.720933,0.75553 3.536356,-0.0599 z m 7.345151,10.41935 c -2.826807,-2.22357 -0.688629,-6.25156 4.12377,-7.76853 l 2.421083,-0.76318 v -2.29228 c 0,-3.72241 -2.33597,-3.74699 -4.240169,-0.0446 -1.315705,2.55815 -3.427014,3.23106 -3.427014,1.09225 0,-2.26113 3.978376,-5.10114 7.145826,-5.10114 3.494289,0 3.928994,0.81321 3.928994,7.35003 0,5.5988 0.203622,6.23149 1.740746,5.40885 1.685821,-0.90223 1.810806,0.2311 0.183095,1.66025 -1.844165,1.6192 -2.89498,1.68664 -4.305315,0.2763 -0.585687,-0.58568 -1.143501,-1.06488 -1.239586,-1.06488 -0.09608,0 -0.880838,0.4792 -1.743897,1.06488 -1.909931,1.29612 -3.110664,1.34377 -4.587533,0.18207 z m 5.884076,-3.04884 c 0.6094,-0.87004 0.952757,-4.16148 0.434119,-4.16148 -1.057863,0 -3.26169,1.43469 -3.609643,2.34988 -1.232561,3.24188 1.201215,4.63032 3.175524,1.8116 z m 46.248173,3.49622 c -2.60601,-0.61294 -4.50942,-6.13233 -2.39464,-6.94384 0.79527,-0.30518 1.10653,0.0646 1.10653,1.3147 0,4.88016 7.86804,6.34751 8.75262,1.63231 0.44377,-2.36553 -0.0614,-3.06153 -3.76831,-5.19168 -6.19795,-3.56161 -7.45994,-5.88703 -5.29502,-9.75698 2.8649,-5.12123 11.17255,-4.80023 11.17255,0.43169 0,3.05717 -0.83164,3.46489 -1.72598,0.84617 -1.42881,-4.18372 -6.08332,-4.78523 -6.81579,-0.88082 -0.41119,2.19182 0.64166,3.52699 5.06112,6.41823 8.69722,5.68978 4.24122,14.56087 -6.09308,12.13022 z m 16.56847,-0.55414 c -6.82556,-3.60944 -4.3,-14.73439 3.35163,-14.76373 3.61044,-0.0138 6.47884,2.42528 6.47884,5.50925 v 1.29901 h -5.11146 c -5.71893,0 -5.80876,0.0623 -4.52414,3.13683 1.34664,3.22296 4.73151,4.18734 7.67828,2.18761 2.37011,-1.60841 2.88634,-0.83626 0.78594,1.17557 -2.6112,2.5011 -5.69998,3.02028 -8.65909,1.45546 z m 5.17297,-9.67427 c 2.16576,-1.15908 0.15603,-4.27787 -2.35115,-3.64861 -1.06937,0.26839 -2.78343,2.45631 -2.78672,3.55711 -0.002,0.66263 3.93953,0.73283 5.13787,0.0915 z m 24.69572,10.1217 c -1.26539,-0.64034 -2.00056,-3.39339 -1.31191,-4.91279 0.56733,-1.25172 1.12371,-0.9084 1.46354,0.90308 0.76655,4.08605 6.21933,4.40021 6.21933,0.35833 0,-1.52344 -0.90955,-2.32321 -3.65938,-3.21769 -4.17582,-1.35834 -5.25154,-3.962 -2.77984,-6.72831 2.4924,-2.78947 9.00936,-2.0344 8.98843,1.04143 -0.0111,1.62282 -0.78633,2.40337 -1.39988,1.40939 -2.18322,-3.53695 -5.83483,-3.72435 -5.83483,-0.29943 0,1.25593 1.10718,2.11001 3.89884,3.00758 4.77919,1.5366 5.12926,6.11936 0.62374,8.16539 -2.02412,0.91918 -4.69872,1.03681 -6.20804,0.27302 z m -85.209282,-0.52274 c 0,-0.35496 0.378626,-0.63893 0.851909,-0.63893 1.195149,0 1.347545,-18.4223 0.157903,-19.08806 -1.385458,-0.77534 -0.249482,-1.65537 3.77489,-2.92437 0.68522,-0.21607 0.746288,0.55692 0.851909,10.78335 l 0.113777,11.0161 0.958398,0.13612 c 2.837314,0.40296 0.817346,1.35473 -2.875194,1.35473 -3.123667,0 -3.833592,-0.11832 -3.833592,-0.63894 z m 8.519093,0.19961 c 0,-0.24162 0.335439,-0.56308 0.74542,-0.71435 1.718016,-0.63387 2.130668,-8.32292 0.532444,-9.92114 -1.118339,-1.11834 -1.115467,-1.1261 0.773916,-2.08999 0.894203,-0.45619 1.876071,-1.13096 2.181929,-1.4995 0.81361,-0.98033 1.3037,-0.82029 1.3037,0.42574 v 1.0958 l 1.08489,-0.85337 c 2.24539,-1.76622 5.88496,-1.30735 7.06108,0.89025 0.43812,0.81865 0.47758,0.81325 1.5826,-0.21645 2.75228,-2.56468 4.63036,-2.66174 6.93377,-0.35832 l 1.65371,1.6537 v 5.17211 c 0,5.12499 0.01,5.1758 1.06489,5.57698 2.12452,0.80775 1.09287,1.27787 -2.8042,1.27787 -3.66312,0 -5.37322,-0.79196 -2.59336,-1.201 2.43502,-0.35831 0.8805,-11.57764 -1.60417,-11.57764 -2.90336,0 -4.91165,11.16144 -2.08317,11.57764 2.77986,0.40904 1.06976,1.201 -2.59336,1.201 -3.15522,0 -3.86909,-0.11789 -3.86909,-0.63894 0,-0.35496 0.37863,-0.63893 0.85191,-0.63893 0.80252,0 0.85191,-0.28397 0.85191,-4.89848 0,-6.36097 -1.36409,-8.11937 -4.42864,-5.7088 -1.68255,1.32349 -1.56741,10.19933 0.13751,10.60058 2.69108,0.63332 1.32143,1.28457 -2.701624,1.28457 -2.520218,0 -4.082065,-0.16809 -4.082065,-0.43933 z m 57.503879,-0.12547 c 0,-0.28108 0.43127,-0.70027 0.95839,-0.93153 1.72556,-0.75704 1.63246,-9.23955 -0.10748,-9.79179 -1.24486,-0.3951 -1.04177,-1.02829 0.54209,-1.69007 0.76615,-0.32012 1.75425,-0.98122 2.19579,-1.46911 1.11054,-1.22713 1.52266,-1.11111 1.52266,0.42866 v 1.31573 l 1.31069,-1.10288 c 4.93791,-4.15497 8.91222,-0.77082 8.91222,7.5888 0,4.25483 0.0296,4.3899 1.06489,4.86162 1.94574,0.88654 1.12402,1.30179 -2.55573,1.29153 -3.53309,-0.01 -5.04768,-0.74148 -2.7687,-1.33745 0.78732,-0.20589 0.85191,-0.58101 0.85191,-4.94816 0,-6.10236 -2.49229,-8.62241 -5.52658,-5.58812 -1.7474,1.7474 -1.83661,9.68695 -0.11732,10.44124 2.02919,0.89026 1.04065,1.42217 -2.66222,1.43249 -2.53731,0.007 -3.62061,-0.14282 -3.62061,-0.50096 z m -131.777272,-12.10418 -2.500038,-0.15521 0.283757,-1.78753 c 0.975441,-6.14481 6.686146,-11.82741 12.915945,-12.85237 l 1.810308,-0.29785 v 4.69424 c 0,4.49596 -0.04048,4.70681 -0.958398,4.9918 -1.811711,0.56251 -3.409922,2.02723 -4.226685,3.87365 -0.911576,2.06077 -0.434987,1.96101 -7.324889,1.53327 z m 24.733709,-0.42913 c -0.09857,-0.17571 -0.314678,-0.8945 -0.480233,-1.59733 -0.843867,-3.58245 -4.180034,-6.87581 -8.009852,-7.90707 -1.587862,-0.42757 -1.603879,-0.45353 -1.603879,-2.59968 v -2.16779 l 1.7589,0.28126 c 5.823173,0.93116 11.422713,6.61294 12.528737,12.71275 l 0.28963,1.59733 h -2.15204 c -1.183621,0 -2.23269,-0.14376 -2.331263,-0.31947 z"
         id="path32" />
      <path
         style="fill:#93c5e8"
         d="m 30.182959,155.69517 c -5.721138,-1.89745 -9.958982,-6.71213 -10.858326,-12.33632 l -0.286586,-1.79221 h 4.739941 c 4.453693,0 4.739941,0.0514 4.739941,0.85068 0,2.38764 4.622189,5.4591 7.424241,4.93343 1.368467,-0.25672 1.419494,-0.21312 1.944389,1.66163 0.296473,1.05889 0.73689,1.92526 0.978704,1.92526 0.763015,0 4.084275,-2.11455 4.506617,-2.86924 0.440688,-0.78746 1.246428,-0.52193 3.416563,1.12594 l 1.019351,0.77403 -1.871261,1.81684 c -4.18865,4.06682 -10.53287,5.64143 -15.753574,3.90996 z m 43.756582,-3.93653 c -2.749841,-2.16303 -0.839526,-5.90985 3.892893,-7.63538 l 2.65196,-0.96695 v -2.25697 c 0,-3.68627 -2.335152,-3.68693 -4.290423,-0.001 -1.337191,2.52063 -3.37676,3.16312 -3.37676,1.06371 0,-2.27382 4.0935,-5.0807 7.409609,-5.0807 3.153465,0 3.665211,1.05066 3.665211,7.52502 0,5.4117 0.437622,6.6902 1.817641,5.31018 0.657857,-0.65786 1.164041,-0.60631 1.164041,0.11855 0,2.29282 -3.831009,3.35541 -5.532074,1.53442 -1.050574,-1.12464 -1.252007,-1.19547 -1.737204,-0.61085 -1.563424,1.88381 -3.995614,2.31323 -5.664894,1.00018 z m 5.884076,-3.04884 c 0.6094,-0.87004 0.952757,-4.16148 0.434119,-4.16148 -0.847837,0 -3.192725,1.35582 -3.572648,2.06571 -1.648427,3.08012 1.143325,4.94432 3.138529,2.09577 z m 46.237923,3.43606 c -2.53014,-0.71069 -4.20134,-6.2076 -2.02329,-6.65498 0.55939,-0.1149 0.74543,0.12573 0.74543,0.96416 0,1.77208 1.10937,3.45367 2.81122,4.26125 4.80426,2.27977 8.7284,-3.80213 4.19636,-6.50382 -7.54807,-4.49965 -8.68587,-5.71316 -8.12753,-8.6683 1.25405,-6.63733 11.77624,-8.3408 12.10953,-1.96045 0.15338,2.93608 -1.27735,3.75903 -1.78946,1.0293 -0.77825,-4.14843 -5.86273,-4.91789 -6.82502,-1.03286 -0.58075,2.34466 0.19312,3.37859 4.68505,6.25943 8.94964,5.73973 4.50634,15.19627 -5.78229,12.30627 z m 17.24324,-0.098 c -5.74384,-2.50275 -6.26569,-10.94702 -0.87187,-14.10801 4.24628,-2.48849 10.03782,0.0721 10.03782,4.43793 v 1.31863 h -5.11146 c -5.71893,0 -5.80876,0.0623 -4.52414,3.13683 1.35557,3.24432 5.64323,4.32469 8.07962,2.03582 1.13009,-1.06166 1.55598,-1.14878 1.55598,-0.31829 0,2.45524 -6.1617,4.80613 -9.16595,3.49709 z m 5.06547,-10.42165 c 1.31237,-1.45015 -0.0639,-3.46721 -2.36576,-3.46721 -1.05975,0 -3.33072,2.35413 -3.33072,3.45269 0,1.17392 4.63653,1.18574 5.69648,0.0145 z m 24.68372,10.71869 c -1.26679,-0.24659 -1.73864,-0.92733 -1.86116,-2.68512 -0.2425,-3.47903 0.57322,-4.01273 1.59097,-1.04091 1.31076,3.82737 6.09613,3.75045 6.09613,-0.098 0,-1.57959 -0.86674,-2.36954 -3.59495,-3.27647 -3.76018,-1.24998 -5.11857,-3.69817 -3.40744,-6.14115 2.23261,-3.1875 9.55812,-2.95851 9.55812,0.29877 0,2.23263 -0.94284,2.76481 -1.78706,1.00871 -1.2032,-2.50282 -4.62058,-2.95339 -5.46929,-0.72111 -0.61918,1.62856 0.12425,2.54972 2.88858,3.57914 8.18418,3.04773 4.76258,10.78458 -4.0139,9.07613 z M 56.20498,151.59098 c 0,-0.41044 0.390333,-0.65334 1.0499,-0.65334 1.724603,0 1.931783,-1.08465 1.931783,-10.11349 0,-8.84209 -0.157925,-9.67729 -1.886505,-9.97693 -2.609292,-0.4523 -0.277526,-1.00659 4.65521,-1.1066 8.081564,-0.16384 10.00777,1.16392 10.009272,6.89955 0.0014,5.30081 -2.632845,7.89883 -7.168055,7.0695 l -1.709247,-0.31255 -0.157627,2.81186 c -0.188685,3.36591 0.165887,4.61586 1.36233,4.80252 2.544641,0.39699 0.634124,1.00256 -3.508048,1.11193 -3.8837,0.10254 -4.579013,0.0217 -4.579013,-0.53245 z m 11.145574,-11.57592 c 1.955222,-4.42011 0.201338,-9.34572 -3.209654,-9.014 l -1.333623,0.12969 -0.120865,4.83751 c -0.135881,5.43853 0.09037,6.02433 2.326746,6.02433 1.330568,0 1.541623,-0.17856 2.337396,-1.97753 z m 19.949114,11.73461 c 0,-0.2562 0.360957,-0.56022 0.802126,-0.67559 1.647505,-0.43083 2.072156,-17.28202 0.475738,-18.87844 -0.46855,-0.46855 -0.851909,-1.00832 -0.851909,-1.19948 0,-0.31999 4.098475,-2.20816 4.79303,-2.20816 0.167224,0 0.355199,4.93575 0.417723,10.96833 l 0.11368,10.96833 0.958398,0.13612 c 2.837314,0.40296 0.817346,1.35473 -2.875194,1.35473 -2.490542,0 -3.833592,-0.1632 -3.833592,-0.46584 z m 8.519093,0.0293 c 0,-0.24007 0.479199,-0.61869 1.064886,-0.84137 1.648319,-0.62669 1.605541,-10.22291 -0.04557,-10.22291 -1.113196,0 -0.59629,-0.8331 1.032466,-1.66403 0.894203,-0.45619 1.876071,-1.13096 2.181927,-1.4995 0.81324,-0.97989 1.3037,-0.82044 1.3037,0.42383 v 1.09389 l 1.37309,-0.97772 c 2.05327,-1.46206 4.21322,-1.31668 5.9875,0.40302 l 1.42456,1.38074 0.97393,-1.03671 c 2.26926,-2.41552 4.75597,-2.43567 7.13383,-0.0578 l 1.42314,1.42314 v 5.16459 c 0,5.11696 0.01,5.16833 1.06489,5.56946 2.12452,0.80775 1.09287,1.27787 -2.8042,1.27787 -3.66312,0 -5.37322,-0.79196 -2.59336,-1.201 1.70451,-0.25081 1.24806,-10.06903 -0.52309,-11.25165 -0.89825,-0.59979 -2.24337,-0.31918 -3.16313,0.65986 -1.41971,1.51121 -1.42065,10.38291 -10e-4,10.59179 2.77986,0.40904 1.06976,1.201 -2.59336,1.201 -3.15522,0 -3.86909,-0.11789 -3.86909,-0.63894 0,-0.35496 0.37863,-0.63893 0.85191,-0.63893 0.80252,0 0.85191,-0.28397 0.85191,-4.89848 0,-6.36097 -1.36409,-8.11937 -4.42864,-5.7088 -1.68255,1.32349 -1.56741,10.19933 0.13751,10.60058 2.69108,0.63332 1.32143,1.28457 -2.701622,1.28457 -2.503137,0 -4.082065,-0.16884 -4.082065,-0.4365 z m 57.503879,-0.16295 c 0,-0.26202 0.43127,-0.66562 0.95839,-0.89688 1.59053,-0.6978 1.69414,-8.93262 0.12142,-9.6492 -1.39576,-0.63595 -1.36188,-0.98697 0.15597,-1.61569 0.67969,-0.28153 1.6715,-0.97566 2.20403,-1.54251 1.28322,-1.36593 1.67164,-1.29968 1.67164,0.28509 v 1.31573 l 1.31069,-1.10288 c 4.99208,-4.20056 8.91222,-0.73545 8.91222,7.87773 0,3.94664 0.0367,4.10421 1.06489,4.57269 1.92127,0.87539 1.12221,1.26589 -2.55573,1.24898 -3.51551,-0.0162 -5.0013,-0.71106 -2.7687,-1.2949 2.87471,-0.75175 0.73083,-11.37735 -2.29557,-11.37735 -3.50642,0 -5.68158,9.30974 -2.64069,11.30221 1.76122,1.154 1.33164,1.38774 -2.51795,1.37004 -2.37546,-0.0109 -3.62061,-0.1805 -3.62061,-0.49306 z M 19.146928,138.65266 c 0,-6.12323 8.108687,-14.1242 14.314348,-14.1242 1.175091,0 0.824454,9.24361 -0.364334,9.60471 -1.70613,0.51825 -3.659302,2.28701 -4.21138,3.81375 l -0.538771,1.48995 h -4.599932 c -4.183598,0 -4.599931,-0.071 -4.599931,-0.78421 z"
         id="path31" />
      <path
         style="fill:#94b8d3"
         d="m 31.499612,155.90587 c -5.34285,-1.24064 -9.957863,-5.39757 -11.486345,-10.34622 -1.303333,-4.2197 -1.506932,-3.99301 3.586252,-3.99301 h 4.452591 l 0.84803,1.91711 c 0.550137,1.24368 1.380092,2.23104 2.362683,2.81078 1.732994,1.02249 1.719603,0.97343 0.89983,3.29692 l -0.614823,1.74259 1.49905,0.28122 c 0.824478,0.15468 2.3529,0.16419 3.396493,0.0212 2.030011,-0.27824 2.216903,-0.0965 2.964686,2.8829 0.408269,1.62667 -3.741292,2.3542 -7.908447,1.38656 z m 42.439929,-4.14723 c -2.749841,-2.16303 -0.839526,-5.90985 3.892893,-7.63538 l 2.65196,-0.96695 v -2.25697 c 0,-3.68627 -2.335152,-3.68693 -4.290423,-0.001 -1.337191,2.52063 -3.37676,3.16312 -3.37676,1.06371 0,-2.27382 4.0935,-5.0807 7.409609,-5.0807 3.153465,0 3.665211,1.05066 3.665211,7.52502 0,5.4117 0.437622,6.6902 1.817641,5.31018 0.657857,-0.65786 1.164041,-0.60631 1.164041,0.11855 0,2.29282 -3.831009,3.35541 -5.532074,1.53442 -1.050574,-1.12464 -1.252007,-1.19547 -1.737204,-0.61085 -1.563424,1.88381 -3.995614,2.31323 -5.664894,1.00018 z m 5.884076,-3.04884 c 0.6094,-0.87004 0.952757,-4.16148 0.434119,-4.16148 -0.847837,0 -3.192725,1.35582 -3.572648,2.06571 -1.648427,3.08012 1.143325,4.94432 3.138529,2.09577 z m 46.237923,3.43606 c -2.53014,-0.71069 -4.20134,-6.2076 -2.02329,-6.65498 0.55939,-0.1149 0.74543,0.12573 0.74543,0.96416 0,1.77208 1.10937,3.45367 2.81122,4.26125 4.80426,2.27977 8.7284,-3.80213 4.19636,-6.50382 -7.54807,-4.49965 -8.68587,-5.71316 -8.12753,-8.6683 1.25405,-6.63733 11.77624,-8.3408 12.10953,-1.96045 0.15338,2.93608 -1.27735,3.75903 -1.78946,1.0293 -0.77825,-4.14843 -5.86273,-4.91789 -6.82502,-1.03286 -0.58075,2.34466 0.19312,3.37859 4.68505,6.25943 8.94964,5.73973 4.50634,15.19627 -5.78229,12.30627 z m 17.24324,-0.098 c -5.74384,-2.50275 -6.26569,-10.94702 -0.87187,-14.10801 4.24628,-2.48849 10.03782,0.0721 10.03782,4.43793 v 1.31863 h -5.11146 c -5.71893,0 -5.80876,0.0623 -4.52414,3.13683 1.35557,3.24432 5.64323,4.32469 8.07962,2.03582 1.13009,-1.06166 1.55598,-1.14878 1.55598,-0.31829 0,2.45524 -6.1617,4.80613 -9.16595,3.49709 z m 5.06547,-10.42165 c 1.31237,-1.45015 -0.0639,-3.46721 -2.36576,-3.46721 -1.05975,0 -3.33072,2.35413 -3.33072,3.45269 0,1.17392 4.63653,1.18574 5.69648,0.0145 z m 24.68372,10.71869 c -1.26679,-0.24659 -1.73864,-0.92733 -1.86116,-2.68512 -0.2425,-3.47903 0.57322,-4.01273 1.59097,-1.04091 1.31076,3.82737 6.09613,3.75045 6.09613,-0.098 0,-1.57959 -0.86674,-2.36954 -3.59495,-3.27647 -3.76018,-1.24998 -5.11857,-3.69817 -3.40744,-6.14115 2.23261,-3.1875 9.55812,-2.95851 9.55812,0.29877 0,2.23263 -0.94284,2.76481 -1.78706,1.00871 -1.2032,-2.50282 -4.62058,-2.95339 -5.46929,-0.72111 -0.61918,1.62856 0.12425,2.54972 2.88858,3.57914 8.18418,3.04773 4.76258,10.78458 -4.0139,9.07613 z M 56.20498,151.59098 c 0,-0.41044 0.390333,-0.65334 1.0499,-0.65334 1.724603,0 1.931783,-1.08465 1.931783,-10.11349 0,-8.84209 -0.157925,-9.67729 -1.886505,-9.97693 -2.609292,-0.4523 -0.277526,-1.00659 4.65521,-1.1066 8.081564,-0.16384 10.00777,1.16392 10.009272,6.89955 0.0014,5.30081 -2.632845,7.89883 -7.168055,7.0695 l -1.709247,-0.31255 -0.157627,2.81186 c -0.188685,3.36591 0.165887,4.61586 1.36233,4.80252 2.544641,0.39699 0.634124,1.00256 -3.508048,1.11193 -3.8837,0.10254 -4.579013,0.0217 -4.579013,-0.53245 z m 11.145574,-11.57592 c 1.955222,-4.42011 0.201338,-9.34572 -3.209654,-9.014 l -1.333623,0.12969 -0.120865,4.83751 c -0.135881,5.43853 0.09037,6.02433 2.326746,6.02433 1.330568,0 1.541623,-0.17856 2.337396,-1.97753 z m 19.949114,11.73461 c 0,-0.2562 0.360957,-0.56022 0.802126,-0.67559 1.647505,-0.43083 2.072156,-17.28202 0.475738,-18.87844 -0.46855,-0.46855 -0.851909,-1.00832 -0.851909,-1.19948 0,-0.31999 4.098475,-2.20816 4.79303,-2.20816 0.167224,0 0.355199,4.93575 0.417723,10.96833 l 0.11368,10.96833 0.958398,0.13612 c 2.837314,0.40296 0.817346,1.35473 -2.875194,1.35473 -2.490542,0 -3.833592,-0.1632 -3.833592,-0.46584 z m 8.519093,0.0293 c 0,-0.24007 0.479199,-0.61869 1.064886,-0.84137 1.648319,-0.62669 1.605541,-10.22291 -0.04557,-10.22291 -1.113196,0 -0.59629,-0.8331 1.032466,-1.66403 0.894203,-0.45619 1.876071,-1.13096 2.181927,-1.4995 0.81324,-0.97989 1.3037,-0.82044 1.3037,0.42383 v 1.09389 l 1.37309,-0.97772 c 2.05327,-1.46206 4.21322,-1.31668 5.9875,0.40302 l 1.42456,1.38074 0.97393,-1.03671 c 2.26926,-2.41552 4.75597,-2.43567 7.13383,-0.0578 l 1.42314,1.42314 v 5.16459 c 0,5.11696 0.01,5.16833 1.06489,5.56946 2.12452,0.80775 1.09287,1.27787 -2.8042,1.27787 -3.66312,0 -5.37322,-0.79196 -2.59336,-1.201 1.70451,-0.25081 1.24806,-10.06903 -0.52309,-11.25165 -0.89825,-0.59979 -2.24337,-0.31918 -3.16313,0.65986 -1.41971,1.51121 -1.42065,10.38291 -10e-4,10.59179 2.77986,0.40904 1.06976,1.201 -2.59336,1.201 -3.15522,0 -3.86909,-0.11789 -3.86909,-0.63894 0,-0.35496 0.37863,-0.63893 0.85191,-0.63893 0.80252,0 0.85191,-0.28397 0.85191,-4.89848 0,-6.36097 -1.36409,-8.11937 -4.42864,-5.7088 -1.68255,1.32349 -1.56741,10.19933 0.13751,10.60058 2.69108,0.63332 1.32143,1.28457 -2.701622,1.28457 -2.503137,0 -4.082065,-0.16884 -4.082065,-0.4365 z m 57.503879,-0.16295 c 0,-0.26202 0.43127,-0.66562 0.95839,-0.89688 1.59053,-0.6978 1.69414,-8.93262 0.12142,-9.6492 -1.39576,-0.63595 -1.36188,-0.98697 0.15597,-1.61569 0.67969,-0.28153 1.6715,-0.97566 2.20403,-1.54251 1.28322,-1.36593 1.67164,-1.29968 1.67164,0.28509 v 1.31573 l 1.31069,-1.10288 c 4.99208,-4.20056 8.91222,-0.73545 8.91222,7.87773 0,3.94664 0.0367,4.10421 1.06489,4.57269 1.92127,0.87539 1.12221,1.26589 -2.55573,1.24898 -3.51551,-0.0162 -5.0013,-0.71106 -2.7687,-1.2949 2.87471,-0.75175 0.73083,-11.37735 -2.29557,-11.37735 -3.50642,0 -5.68158,9.30974 -2.64069,11.30221 1.76122,1.154 1.33164,1.38774 -2.51795,1.37004 -2.37546,-0.0109 -3.62061,-0.1805 -3.62061,-0.49306 z M 19.146928,138.65266 c 0,-6.12323 8.108687,-14.1242 14.314348,-14.1242 1.175091,0 0.824454,9.24361 -0.364334,9.60471 -1.70613,0.51825 -3.659302,2.28701 -4.21138,3.81375 l -0.538771,1.48995 h -4.599932 c -4.183598,0 -4.599931,-0.071 -4.599931,-0.78421 z"
         id="path30" />
      <path
         style="fill:#8da5b6"
         d="m 31.499612,155.90587 c -5.34285,-1.24064 -9.957863,-5.39757 -11.486345,-10.34622 -1.303333,-4.2197 -1.506932,-3.99301 3.586252,-3.99301 h 4.452591 l 0.84803,1.91711 c 0.550137,1.24368 1.380092,2.23104 2.362683,2.81078 1.732994,1.02249 1.719603,0.97343 0.89983,3.29692 l -0.614823,1.74259 1.493343,0.28015 c 0.821338,0.15409 2.357059,0.1828 3.412713,0.0638 2.047731,-0.2308 2.226204,-0.0591 2.954173,2.84131 0.408269,1.62667 -3.741292,2.3542 -7.908447,1.38656 z m 42.482252,-4.11394 c -2.980207,-2.34423 -0.670391,-6.32787 4.575829,-7.89173 1.462558,-0.43598 1.737801,-0.71618 2.015254,-2.05157 0.863342,-4.15529 -2.35154,-5.04748 -4.315576,-1.19765 -1.019599,1.99858 -1.848514,2.71315 -2.747239,2.36828 -2.891227,-1.10947 2.478125,-6.13812 6.553988,-6.13812 3.282914,0 3.827911,1.08885 3.827911,7.64782 0,5.52131 0.631216,7.21093 1.916796,5.13082 0.379197,-0.61355 1.064886,-0.52423 1.064886,0.13873 0,2.21169 -3.851615,3.39526 -5.432849,1.66947 l -1.162328,-1.26859 -1.316996,1.00453 c -1.962884,1.49716 -3.580972,1.68823 -4.979676,0.58801 z m 5.307847,-2.42482 c 1.124537,-1.07738 1.827555,-4.81879 0.905459,-4.81879 -2.868124,0 -5.067564,3.52741 -3.300965,5.29401 0.884596,0.8846 1.000073,0.86169 2.395506,-0.47522 z m 46.915829,2.80845 c -2.60382,-0.6188 -4.42887,-6.25522 -2.16729,-6.69338 0.56775,-0.10999 0.7458,0.14224 0.74702,1.05819 0.004,3.16584 3.51631,5.58665 6.38263,4.39938 1.75014,-0.72493 2.56082,-1.97218 2.56082,-3.93986 0,-1.75932 0.48636,-1.33363 -6.20754,-5.43325 -3.94968,-2.41894 -4.78371,-4.53317 -3.13324,-7.94259 2.648,-5.47002 11.47056,-5.21077 11.47056,0.33707 0,2.73403 -1.12077,2.75386 -2.02648,0.0359 -0.98861,-2.96682 -3.92359,-3.98313 -5.87305,-2.03368 -2.27847,2.27848 -1.12375,4.92607 3.29284,7.54991 4.61994,2.74466 5.45859,3.69844 5.45859,6.2079 0,4.90006 -4.75414,7.82112 -10.50486,6.45445 z m 17.57755,0.0422 c -8.77585,-2.75875 -5.17297,-16.83306 3.8746,-15.13573 2.32143,0.4355 4.81304,3.06191 4.81304,5.07342 v 1.54095 h -5.11146 -5.11145 l 0.002,1.17138 c 0.006,4.28992 5.66382,6.82106 8.75532,3.91674 1.3478,-1.2662 1.87315,-0.72572 0.75401,0.77573 -1.71395,2.29948 -5.30658,3.49656 -7.97565,2.65751 z m 4.61064,-10.46858 c 0.89738,-0.89738 0.84303,-1.7127 -0.18255,-2.73828 -1.65501,-1.65501 -4.54592,-0.53133 -5.47269,2.12721 l -0.44636,1.28043 h 2.71612 c 1.90126,0 2.91694,-0.20081 3.38548,-0.66936 z m 24.20335,10.2822 c -1.32377,-0.59924 -1.38435,-0.73165 -1.38435,-3.02548 0,-2.75508 0.63751,-2.96886 1.48676,-0.49856 1.27691,3.71427 5.08591,4.08505 6.31722,0.61494 0.52299,-1.47391 -0.55973,-2.7549 -3.11643,-3.68712 -4.51017,-1.64449 -5.73922,-3.57132 -3.98536,-6.24804 1.76664,-2.69624 8.15452,-3.28819 9.08461,-0.84185 0.94844,2.49457 -0.41037,4.0462 -1.51142,1.7259 -1.11073,-2.34068 -4.46451,-2.60226 -5.29681,-0.41314 -0.62602,1.64654 -0.0774,2.33419 2.94161,3.68698 4.5095,2.02066 5.46055,3.39054 4.22959,6.0922 -1.11727,2.45214 -5.93161,3.87697 -8.76542,2.59417 z m -116.29075,-0.3335 c 0.100222,-0.30099 0.549698,-0.61135 0.998834,-0.68968 1.727959,-0.30137 1.881499,-1.13063 1.881499,-10.1619 0,-9.2 -0.26401,-10.35448 -2.367889,-10.35448 -0.365239,0 -0.545606,-0.19168 -0.400816,-0.42595 0.490385,-0.79346 10.872526,-0.5282 12.529538,0.32012 6.034177,3.08927 3.342193,13.69192 -3.354684,13.21276 L 62.5943,143.38421 v 3.05637 c 0,3.1657 0.460402,4.31308 1.832806,4.56762 2.341725,0.4343 0.450597,1.00707 -3.68355,1.11564 -3.613551,0.0949 -4.579769,0.002 -4.437226,-0.42596 z m 10.630658,-10.61257 c 2.796114,-3.22663 0.797777,-10.43375 -2.796088,-10.08425 l -1.333623,0.12969 -0.123282,4.89848 c -0.156059,6.20081 1.527052,8.20174 4.252993,5.05608 z m 20.36268,10.66436 c 0,-0.2562 0.365638,-0.56145 0.812528,-0.67831 1.670757,-0.43691 2.100337,-17.9535 0.465336,-18.97457 -1.310727,-0.81857 -1.019091,-1.52712 0.833925,-2.02608 0.927208,-0.24967 1.801079,-0.64042 1.941934,-0.86833 1.246287,-2.01653 1.483687,-0.34318 1.483687,10.45801 v 10.87238 l 1.064887,0.40487 c 2.118546,0.80547 1.095025,1.27787 -2.768705,1.27787 -2.490542,0 -3.833592,-0.1632 -3.833592,-0.46584 z m 8.519093,0.0293 c 0,-0.24007 0.479199,-0.61869 1.064886,-0.84137 1.498676,-0.56979 1.691484,-9.71285 0.212978,-10.09949 -1.136577,-0.29722 -1.078166,-0.91039 0.130499,-1.36992 0.540325,-0.20544 1.594563,-0.88861 2.342751,-1.51817 l 1.360345,-1.14465 v 1.33741 1.3374 l 1.38435,-1.0534 c 2.60379,-1.98131 4.26615,-1.87267 6.75092,0.4412 l 1.10702,1.03087 1.35374,-1.26458 c 4.43953,-4.14714 8.14597,-1.03768 8.14597,6.83391 0,5.01026 0.0114,5.06889 1.06489,5.46942 2.12452,0.80775 1.09287,1.27787 -2.8042,1.27787 -3.66312,0 -5.37322,-0.79196 -2.59336,-1.201 2.67087,-0.39301 0.92636,-11.57764 -1.80581,-11.57764 -3.20521,0 -4.96146,11.1206 -1.8295,11.58445 2.73375,0.40488 0.98526,1.19419 -2.64539,1.19419 -3.67809,0 -5.20202,-0.5831 -3.01718,-1.15445 2.5406,-0.66438 0.80908,-11.62419 -1.83648,-11.62419 -2.29498,0 -2.84902,1.28715 -2.84902,6.61889 v 4.88188 h 1.06489 c 0.66259,0 1.06488,0.24138 1.06488,0.63893 0,0.52062 -0.70992,0.63894 -3.833588,0.63894 -2.333486,0 -3.833591,-0.17081 -3.833591,-0.4365 z m 57.503879,-0.0264 c 0,-0.16007 0.47919,-0.60503 1.06488,-0.98879 1.56209,-1.02351 1.64531,-8.67267 0.10649,-9.7878 -0.92931,-0.67344 -0.93378,-0.71057 -0.14724,-1.22333 0.44614,-0.29085 1.42984,-1.05593 2.18601,-1.70019 1.7359,-1.479 1.90131,-1.46644 1.90131,0.14436 v 1.31573 l 1.2904,-1.08581 c 4.77942,-4.02161 8.57099,-0.99992 8.85834,7.05964 0.1742,4.88576 0.2214,5.10232 1.19266,5.47159 1.92919,0.73348 0.99277,1.1313 -2.60933,1.10854 -2.67261,-0.0169 -3.62061,-0.16769 -3.62061,-0.5759 0,-0.30416 0.29226,-0.55302 0.64947,-0.55302 1.60736,0 1.62033,-9.72494 0.0145,-10.89718 -1.31641,-0.96099 -3.53423,-0.75377 -4.72993,0.44193 -1.613,1.61299 -1.59867,9.22127 0.0194,10.28144 1.70312,1.11593 1.289,1.32703 -2.55573,1.30273 -1.99134,-0.0126 -3.62061,-0.15386 -3.62061,-0.31394 z M 19.31944,137.67713 c 0.977906,-6.11549 6.790174,-11.82846 13.13857,-12.91411 l 1.59733,-0.27317 v 4.67177 4.67177 l -1.476902,0.48742 c -1.633735,0.53918 -3.493781,2.49007 -3.893832,4.084 -0.254497,1.014 -0.341169,1.03206 -4.952795,1.03206 h -4.693764 z"
         id="path29" />
      <path
         style="fill:#57a4dc"
         d="m 31.499612,155.90587 c -5.34285,-1.24064 -9.957863,-5.39757 -11.486345,-10.34622 -1.303333,-4.2197 -1.506932,-3.99301 3.586252,-3.99301 h 4.452591 l 0.84803,1.91711 c 0.550137,1.24368 1.380092,2.23104 2.362683,2.81078 1.732994,1.02249 1.719603,0.97343 0.89983,3.29692 l -0.614823,1.74259 1.493343,0.28015 c 0.821338,0.15409 2.357059,0.1828 3.412713,0.0638 2.047731,-0.2308 2.226204,-0.0591 2.954173,2.84131 0.408269,1.62667 -3.741292,2.3542 -7.908447,1.38656 z m 43.028491,-3.81219 c -3.611784,-1.82743 -1.594161,-6.2383 3.65212,-7.98415 l 2.730126,-0.90853 v -1.69709 c 0,-4.57828 -2.675537,-4.56758 -5.198133,0.0208 -0.814338,1.4812 -2.895005,1.92292 -2.895005,0.6146 0,-2.20547 4.206989,-5.23013 7.300528,-5.2488 3.12253,-0.0188 3.542126,0.82087 3.700807,7.40624 0.144948,6.01546 0.497593,6.89833 2.110968,5.28496 0.701073,-0.70108 1.226917,-0.0399 0.671187,0.84394 -1.448416,2.30354 -4.147001,2.50371 -5.626948,0.41739 -0.50642,-0.71392 -0.65986,-0.73754 -1.277863,-0.19675 -1.978513,1.73134 -3.670187,2.20515 -5.167787,1.44741 z m 4.870237,-2.66429 c 1.084177,-1.16985 1.717699,-4.88107 0.83322,-4.88107 -2.304919,0 -4.006712,1.58019 -4.006712,3.7204 0,2.33474 1.557484,2.90437 3.173492,1.16067 z m 47.51511,2.82052 c -3.0596,-0.62107 -3.40764,-1.04304 -3.40764,-4.13146 0,-3.1067 0.85979,-3.67813 1.31553,-0.87432 0.88533,5.44662 8.90738,5.32818 8.90738,-0.13151 0,-1.83335 -0.30833,-2.14716 -4.52168,-4.60197 -4.93841,-2.87725 -6.16172,-4.66842 -5.28239,-7.73448 1.77937,-6.20428 11.93385,-6.89781 11.93385,-0.81505 0,2.66611 -1.05483,2.74831 -1.94181,0.15131 -1.08737,-3.18372 -3.90626,-4.20059 -5.95772,-2.14913 -2.45125,2.45125 -1.31479,4.71737 4.06956,8.11479 8.3378,5.26097 4.60447,14.1448 -5.11508,12.17182 z m 16.89131,-0.22484 c -8.69971,-3.12806 -5.21471,-16.64413 3.85293,-14.94303 2.32143,0.4355 4.81304,3.06191 4.81304,5.07342 v 1.54095 h -5.16754 -5.16754 l 0.2349,1.75135 c 0.59293,4.42065 5.8186,6.36382 8.88028,3.30214 1.18556,-1.18556 1.57107,-0.61555 0.52829,0.78113 -1.713,2.29439 -5.35859,3.43457 -7.97436,2.49404 z m 4.58897,-10.27588 c 1.36688,-1.36687 -0.0191,-3.59019 -2.23807,-3.59019 -1.423,0 -3.90784,2.55525 -3.90784,4.01857 0,0.59904 5.50199,0.21555 6.14591,-0.42838 z m 24.52282,10.35233 c -1.44963,-0.51043 -1.49441,-0.59385 -1.61987,-3.01719 -0.14854,-2.86914 0.52024,-3.14421 1.40281,-0.57698 1.1047,3.21335 4.04218,3.97219 5.86858,1.51604 1.44968,-1.94954 0.60965,-3.32499 -2.89605,-4.74194 -4.55262,-1.84009 -5.29441,-2.99409 -3.79207,-5.89929 1.8869,-3.64885 9.12974,-3.44485 9.12974,0.25714 0,2.29846 -0.60682,2.48656 -1.45706,0.45166 -0.98082,-2.34744 -4.43761,-2.63173 -5.43313,-0.44681 -0.7254,1.59209 0.3869,2.88934 3.4282,3.99826 4.17708,1.52303 5.34834,3.87073 3.20306,6.42024 -1.86493,2.21636 -5.00745,3.0342 -7.83421,2.03887 z M 56.31127,151.68306 c 0.0975,-0.29284 0.544758,-0.59653 0.993894,-0.67486 1.733717,-0.30237 1.881499,-1.11882 1.881499,-10.39469 v -8.88345 l -1.275171,-0.72561 c -2.188119,-1.2451 -1.461831,-1.45087 4.576319,-1.29652 7.691981,0.19661 9.477491,1.48014 9.477491,6.81294 0,5.10357 -2.096269,7.38384 -6.498455,7.06887 l -2.9052,-0.20787 0.122815,3.41352 c 0.125608,3.49117 0.240266,3.71918 2.173097,4.32149 1.887607,0.58822 -0.08257,1.09863 -4.24069,1.09863 -3.396886,0 -4.439934,-0.12899 -4.305599,-0.53245 z m 9.75473,-9.72475 c 3.778699,-2.0223 2.324753,-11.29442 -1.718052,-10.95638 l -1.540671,0.12882 -0.11967,5.2268 c -0.116666,5.0956 -0.09528,5.23658 0.851909,5.6169 1.300344,0.5221 1.523426,0.52068 2.526484,-0.0161 z m 21.233668,9.76145 c 0,-0.19589 0.177988,-0.35616 0.395529,-0.35616 1.517515,0 1.734244,-1.22378 1.734244,-9.79255 0,-8.77164 -0.116664,-9.80137 -1.110459,-9.80137 -0.326347,0 -0.593359,-0.28752 -0.593359,-0.63893 0,-0.35141 0.24699,-0.63893 0.548867,-0.63893 0.301877,0 1.300804,-0.38336 2.219838,-0.85191 0.919034,-0.46855 1.822121,-0.85191 2.00686,-0.85191 0.18474,0 0.33589,4.97034 0.33589,11.0452 0,11.01048 0.0029,11.04562 0.925034,11.18131 2.679173,0.39422 0.981224,1.09632 -2.610598,1.07948 -2.118515,-0.01 -3.851846,-0.17834 -3.851846,-0.37423 z m 8.519093,0.0684 c 0,-0.15828 0.479199,-0.50613 1.064886,-0.77298 1.497649,-0.68238 1.688272,-9.7912 0.212978,-10.177 -1.101473,-0.28804 -1.088503,-0.84283 0.02799,-1.19719 0.483943,-0.1536 1.538181,-0.85725 2.342751,-1.56367 l 1.462854,-1.2844 v 1.32199 c 0,0.72709 0.19168,1.32199 0.42595,1.32199 0.23428,0 0.42596,-0.15035 0.42596,-0.33412 0,-1.97743 5.14268,-2.27983 6.99478,-0.4113 l 1.37218,1.38435 1.30871,-1.32683 c 4.34235,-4.40246 8.21021,-1.03323 8.21283,7.15408 0.002,4.78011 0.0379,4.98068 0.92662,5.11146 2.67312,0.39333 1.03674,1.13065 -2.35598,1.06154 -3.74603,-0.0763 -5.01792,-0.46746 -3.09184,-0.95088 l 1.11515,-0.27988 v -4.8523 c 0,-5.94103 -0.97436,-7.46312 -4.02748,-6.29153 -2.56709,0.98509 -2.84795,10.63728 -0.33237,11.42242 1.8575,0.57974 0.49852,1.00353 -3.09237,0.96433 -3.49153,-0.0381 -4.52466,-0.3809 -2.79887,-0.92865 2.91371,-0.92477 1.29161,-11.72269 -1.76102,-11.72269 -3.38539,0 -5.22355,11.09507 -1.91923,11.58445 2.63263,0.38991 0.89641,1.08936 -2.662631,1.07267 -2.118515,-0.01 -3.851845,-0.14758 -3.851845,-0.30586 z m 57.503899,-0.11561 c -1e-5,-0.1815 0.47917,-0.5122 1.06486,-0.73488 1.57197,-0.59766 1.66004,-8.83581 0.10649,-9.96161 -0.92931,-0.67344 -0.93378,-0.71057 -0.14724,-1.22333 0.44614,-0.29085 1.42984,-1.05593 2.18601,-1.70019 1.73335,-1.47682 1.90131,-1.46549 1.90131,0.12817 v 1.29954 l 1.38435,-1.0534 c 4.98071,-3.78998 8.41578,-1.02008 8.74832,7.0543 0.20076,4.8747 0.25379,5.11383 1.21497,5.47927 1.93557,0.73591 0.97402,1.13644 -2.61551,1.08949 -2.58718,-0.0338 -3.62057,-0.19932 -3.62061,-0.57979 -4e-5,-0.29285 0.28071,-0.53245 0.62388,-0.53245 1.70835,0 2.08015,-7.99392 0.48503,-10.42838 -0.98226,-1.49911 -3.68861,-1.51316 -5.1749,-0.0269 -1.613,1.61299 -1.59867,9.22127 0.0194,10.28144 1.68373,1.10323 1.30507,1.29046 -2.5557,1.26375 -1.99132,-0.0138 -3.6206,-0.17356 -3.62062,-0.35506 z M 19.344662,137.83954 c 1.111903,-6.07113 6.058523,-11.29737 12.022033,-12.7016 2.795926,-0.65836 2.688645,-0.82892 2.688645,4.27442 v 4.31596 l -1.479039,0.53483 c -1.629992,0.58941 -4.058372,3.23349 -4.058372,4.41886 0,0.67722 -0.486804,0.75486 -4.732905,0.75486 h -4.732906 z"
         id="path28" />
      <path
         style="fill:#6f8ca2"
         d="m 28.143872,154.69896 c -4.382156,-2.16812 -7.937637,-6.86389 -8.76329,-11.57379 l -0.286816,-1.63614 4.392616,0.1453 4.392616,0.14529 0.743762,1.457 c 0.40907,0.80135 0.696589,1.48724 0.638932,1.5242 -0.05766,0.037 -0.831756,0.60825 -1.72022,1.26954 l -1.615389,1.20235 1.189434,1.25255 c 0.654189,0.68889 1.897191,1.61661 2.762226,2.06158 l 1.572791,0.80903 -0.676094,2.02715 c -0.371852,1.11493 -0.706708,2.06955 -0.744125,2.12138 -0.03742,0.0518 -0.886316,-0.31062 -1.886443,-0.80544 z m 46.384231,-2.60528 c -3.611784,-1.82743 -1.594161,-6.2383 3.65212,-7.98415 l 2.730126,-0.90853 v -1.69709 c 0,-4.57828 -2.675537,-4.56758 -5.198133,0.0208 -0.814338,1.4812 -2.895005,1.92292 -2.895005,0.6146 0,-2.20547 4.206989,-5.23013 7.300528,-5.2488 3.12253,-0.0188 3.542126,0.82087 3.700807,7.40624 0.144948,6.01546 0.497593,6.89833 2.110968,5.28496 0.701073,-0.70108 1.226917,-0.0399 0.671187,0.84394 -1.448416,2.30354 -4.147001,2.50371 -5.626948,0.41739 -0.50642,-0.71392 -0.65986,-0.73754 -1.277863,-0.19675 -1.978513,1.73134 -3.670187,2.20515 -5.167787,1.44741 z m 4.870237,-2.66429 c 1.084177,-1.16985 1.717699,-4.88107 0.83322,-4.88107 -2.304919,0 -4.006712,1.58019 -4.006712,3.7204 0,2.33474 1.557484,2.90437 3.173492,1.16067 z m 47.51511,2.82052 c -3.0596,-0.62107 -3.40764,-1.04304 -3.40764,-4.13146 0,-3.1067 0.85979,-3.67813 1.31553,-0.87432 0.88533,5.44662 8.90738,5.32818 8.90738,-0.13151 0,-1.83335 -0.30833,-2.14716 -4.52168,-4.60197 -4.93841,-2.87725 -6.16172,-4.66842 -5.28239,-7.73448 1.77937,-6.20428 11.93385,-6.89781 11.93385,-0.81505 0,2.66611 -1.05483,2.74831 -1.94181,0.15131 -1.08737,-3.18372 -3.90626,-4.20059 -5.95772,-2.14913 -2.45125,2.45125 -1.31479,4.71737 4.06956,8.11479 8.3378,5.26097 4.60447,14.1448 -5.11508,12.17182 z m 16.89131,-0.22484 c -8.69971,-3.12806 -5.21471,-16.64413 3.85293,-14.94303 2.32143,0.4355 4.81304,3.06191 4.81304,5.07342 v 1.54095 h -5.16754 -5.16754 l 0.2349,1.75135 c 0.59293,4.42065 5.8186,6.36382 8.88028,3.30214 1.18556,-1.18556 1.57107,-0.61555 0.52829,0.78113 -1.713,2.29439 -5.35859,3.43457 -7.97436,2.49404 z m 4.58897,-10.27588 c 1.36688,-1.36687 -0.0191,-3.59019 -2.23807,-3.59019 -1.423,0 -3.90784,2.55525 -3.90784,4.01857 0,0.59904 5.50199,0.21555 6.14591,-0.42838 z m 24.52282,10.35233 c -1.44963,-0.51043 -1.49441,-0.59385 -1.61987,-3.01719 -0.14854,-2.86914 0.52024,-3.14421 1.40281,-0.57698 1.1047,3.21335 4.04218,3.97219 5.86858,1.51604 1.44968,-1.94954 0.60965,-3.32499 -2.89605,-4.74194 -4.55262,-1.84009 -5.29441,-2.99409 -3.79207,-5.89929 1.8869,-3.64885 9.12974,-3.44485 9.12974,0.25714 0,2.29846 -0.60682,2.48656 -1.45706,0.45166 -0.98082,-2.34744 -4.43761,-2.63173 -5.43313,-0.44681 -0.7254,1.59209 0.3869,2.88934 3.4282,3.99826 4.17708,1.52303 5.34834,3.87073 3.20306,6.42024 -1.86493,2.21636 -5.00745,3.0342 -7.83421,2.03887 z M 56.31127,151.68306 c 0.0975,-0.29284 0.544758,-0.59653 0.993894,-0.67486 1.733717,-0.30237 1.881499,-1.11882 1.881499,-10.39469 v -8.88345 l -1.275171,-0.72561 c -2.188119,-1.2451 -1.461831,-1.45087 4.576319,-1.29652 7.691981,0.19661 9.477491,1.48014 9.477491,6.81294 0,5.10357 -2.096269,7.38384 -6.498455,7.06887 l -2.9052,-0.20787 0.122815,3.41352 c 0.125608,3.49117 0.240266,3.71918 2.173097,4.32149 1.887607,0.58822 -0.08257,1.09863 -4.24069,1.09863 -3.396886,0 -4.439934,-0.12899 -4.305599,-0.53245 z m 9.75473,-9.72475 c 3.778699,-2.0223 2.324753,-11.29442 -1.718052,-10.95638 l -1.540671,0.12882 -0.11967,5.2268 c -0.116666,5.0956 -0.09528,5.23658 0.851909,5.6169 1.300344,0.5221 1.523426,0.52068 2.526484,-0.0161 z m 21.233668,9.76145 c 0,-0.19589 0.177988,-0.35616 0.395529,-0.35616 1.517515,0 1.734244,-1.22378 1.734244,-9.79255 0,-8.77164 -0.116664,-9.80137 -1.110459,-9.80137 -0.326347,0 -0.593359,-0.28752 -0.593359,-0.63893 0,-0.35141 0.24699,-0.63893 0.548867,-0.63893 0.301877,0 1.300804,-0.38336 2.219838,-0.85191 0.919034,-0.46855 1.822121,-0.85191 2.00686,-0.85191 0.18474,0 0.33589,4.97034 0.33589,11.0452 0,11.01048 0.0029,11.04562 0.925034,11.18131 2.679173,0.39422 0.981224,1.09632 -2.610598,1.07948 -2.118515,-0.01 -3.851846,-0.17834 -3.851846,-0.37423 z m 8.519093,0.0684 c 0,-0.15828 0.479199,-0.50613 1.064886,-0.77298 1.497649,-0.68238 1.688272,-9.7912 0.212978,-10.177 -1.101473,-0.28804 -1.088503,-0.84283 0.02799,-1.19719 0.483943,-0.1536 1.538181,-0.85725 2.342751,-1.56367 l 1.462854,-1.2844 v 1.32199 c 0,0.72709 0.19168,1.32199 0.42595,1.32199 0.23428,0 0.42596,-0.15035 0.42596,-0.33412 0,-1.97743 5.14268,-2.27983 6.99478,-0.4113 l 1.37218,1.38435 1.30871,-1.32683 c 4.34235,-4.40246 8.21021,-1.03323 8.21283,7.15408 0.002,4.78011 0.0379,4.98068 0.92662,5.11146 2.67312,0.39333 1.03674,1.13065 -2.35598,1.06154 -3.74603,-0.0763 -5.01792,-0.46746 -3.09184,-0.95088 l 1.11515,-0.27988 v -4.8523 c 0,-5.94103 -0.97436,-7.46312 -4.02748,-6.29153 -2.56709,0.98509 -2.84795,10.63728 -0.33237,11.42242 1.8575,0.57974 0.49852,1.00353 -3.09237,0.96433 -3.49153,-0.0381 -4.52466,-0.3809 -2.79887,-0.92865 2.91371,-0.92477 1.29161,-11.72269 -1.76102,-11.72269 -3.38539,0 -5.22355,11.09507 -1.91923,11.58445 2.63263,0.38991 0.89641,1.08936 -2.662631,1.07267 -2.118515,-0.01 -3.851845,-0.14758 -3.851845,-0.30586 z m 57.503899,-0.11561 c -1e-5,-0.1815 0.47917,-0.5122 1.06486,-0.73488 1.57197,-0.59766 1.66004,-8.83581 0.10649,-9.96161 -0.92931,-0.67344 -0.93378,-0.71057 -0.14724,-1.22333 0.44614,-0.29085 1.42984,-1.05593 2.18601,-1.70019 1.73335,-1.47682 1.90131,-1.46549 1.90131,0.12817 v 1.29954 l 1.38435,-1.0534 c 4.98071,-3.78998 8.41578,-1.02008 8.74832,7.0543 0.20076,4.8747 0.25379,5.11383 1.21497,5.47927 1.93557,0.73591 0.97402,1.13644 -2.61551,1.08949 -2.58718,-0.0338 -3.62057,-0.19932 -3.62061,-0.57979 -4e-5,-0.29285 0.28071,-0.53245 0.62388,-0.53245 1.70835,0 2.08015,-7.99392 0.48503,-10.42838 -0.98226,-1.49911 -3.68861,-1.51316 -5.1749,-0.0269 -1.613,1.61299 -1.59867,9.22127 0.0194,10.28144 1.68373,1.10323 1.30507,1.29046 -2.5557,1.26375 -1.99132,-0.0138 -3.6206,-0.17356 -3.62062,-0.35506 z M 19.344662,137.83954 c 1.111903,-6.07113 6.058523,-11.29737 12.022033,-12.7016 2.795926,-0.65836 2.688645,-0.82892 2.688645,4.27442 v 4.31596 l -1.479039,0.53483 c -1.629992,0.58941 -4.058372,3.23349 -4.058372,4.41886 0,0.67722 -0.486804,0.75486 -4.732905,0.75486 h -4.732906 z"
         id="path27" />
      <path
         style="fill:#3291d4"
         d="m 28.143872,154.69896 c -4.382156,-2.16812 -7.937637,-6.86389 -8.76329,-11.57379 l -0.286816,-1.63614 4.392616,0.1453 4.392616,0.14529 0.743762,1.457 c 0.40907,0.80135 0.696589,1.48724 0.638932,1.5242 -0.05766,0.037 -0.831756,0.60825 -1.72022,1.26954 l -1.615389,1.20235 1.189434,1.25255 c 0.654189,0.68889 1.897191,1.61661 2.762226,2.06158 l 1.572791,0.80903 -0.676094,2.02715 c -0.371852,1.11493 -0.706708,2.06955 -0.744125,2.12138 -0.03742,0.0518 -0.886316,-0.31062 -1.886443,-0.80544 z m 28.070327,-2.85568 c 0.0051,-0.14669 0.628029,-0.55423 1.384353,-0.90564 l 1.375133,-0.63893 0.120636,-8.73207 c 0.137242,-9.93407 0.05994,-10.53386 -1.404987,-10.90153 -2.405286,-0.60369 -0.725395,-0.90179 4.69543,-0.83322 7.594635,0.0961 9.592208,1.52294 9.570521,6.83627 -0.02011,4.92672 -2.290985,7.29456 -6.60912,6.89133 L 62.5943,143.30251 v 3.1438 c 0,3.83172 0.225643,4.49133 1.536413,4.49133 0.560623,0 1.019314,0.2475 1.019314,0.55 0,0.41213 -1.121038,0.55906 -4.472523,0.58617 -2.459888,0.0199 -4.468375,-0.0838 -4.463305,-0.23053 z M 66.066,141.95831 c 3.915688,-2.09561 2.403697,-10.99071 -1.87437,-11.02699 l -1.59733,-0.0136 v 5.30327 c 0,6.12415 0.672428,7.23539 3.4717,5.73727 z m 7.414296,9.31051 c -1.789902,-2.55544 0.297357,-5.77546 4.596696,-7.09133 2.609864,-0.79879 2.620902,-0.80899 2.750564,-2.54206 0.350841,-4.68935 -2.571055,-4.73533 -5.132539,-0.0808 -0.540985,0.98304 -0.994854,1.3127 -1.670455,1.21332 -3.791969,-0.55779 2.44284,-6.16057 6.397245,-5.74874 2.966096,0.3089 3.162775,0.73003 3.324679,7.11881 0.163845,6.4654 0.203304,6.58592 1.873537,5.72221 1.675962,-0.86668 1.769672,0.18372 0.13136,1.47242 -1.557678,1.22527 -3.29854,1.14064 -4.362589,-0.21208 l -0.861251,-1.0949 -1.611294,1.0949 c -2.08867,1.41929 -4.499616,1.48503 -5.435953,0.14822 z m 5.323874,-1.19571 c 1.502263,-0.80399 2.788406,-4.70058 1.85846,-5.63052 -0.365724,-0.36573 -3.288013,0.91484 -3.905339,1.71135 -1.615135,2.08392 -0.06605,5.04997 2.046879,3.91917 z m 8.495498,1.72462 c 0,-0.12767 0.431279,-0.42133 0.958398,-0.65259 1.434678,-0.62943 1.745521,-18.87911 0.327878,-19.24984 -1.47739,-0.38634 -0.948986,-1.1703 1.375941,-2.04138 1.229944,-0.46083 2.380021,-0.90515 2.555727,-0.98739 0.175707,-0.0822 0.319466,4.82934 0.319466,10.91462 v 11.06414 l 1.064887,0.26727 c 2.177045,0.5464 0.949245,0.96361 -2.768705,0.9408 -2.108476,-0.0129 -3.833592,-0.12797 -3.833592,-0.25563 z m 8.519093,-0.0533 c 0,-0.15867 0.479199,-0.40877 1.064886,-0.55577 1.501783,-0.37692 1.699009,-9.96192 0.212978,-10.35053 -1.101473,-0.28804 -1.088503,-0.84283 0.02799,-1.19719 0.483943,-0.1536 1.538181,-0.85725 2.342751,-1.56367 l 1.462854,-1.2844 v 1.32199 c 0,1.59822 0.16019,1.62134 1.7815,0.2571 1.92158,-1.6169 4.28195,-1.47594 6.1236,0.36571 l 1.4306,1.43059 0.97604,-1.04375 c 4.46193,-4.77143 8.43026,-1.54824 8.43026,6.8473 0,4.84311 0.007,4.87512 1.06489,5.14073 2.16292,0.54286 0.96195,0.98333 -2.55567,0.93732 -3.53541,-0.0462 -4.48484,-0.3546 -2.76877,-0.89926 1.00592,-0.31927 0.97606,-0.12858 0.86732,-5.53741 -0.1227,-6.10381 -2.0906,-8.11758 -4.93422,-5.04926 -1.62136,1.74948 -1.60567,9.75549 0.0203,10.37369 1.94875,0.74092 1.10283,1.10748 -2.55572,1.10748 -3.49046,0 -4.53499,-0.3339 -2.78351,-0.8898 2.97892,-0.94547 1.34768,-11.71845 -1.7744,-11.71845 -3.50559,0 -5.267532,10.9093 -1.86671,11.55799 2.34538,0.44736 0.79282,1.03809 -2.728334,1.03809 -2.111264,0 -3.838662,-0.12982 -3.838662,-0.2885 z m 29.402889,-0.003 c -1.47531,-0.58876 -1.70189,-1.10465 -1.70932,-3.89186 -0.008,-2.97463 0.48705,-3.1396 1.30274,-0.43419 1.11671,3.70385 5.06961,5.15077 7.58641,2.77694 2.74908,-2.5929 1.94188,-4.94247 -2.51388,-7.31736 -5.2369,-2.79124 -6.7039,-4.76323 -5.90467,-7.93725 1.54846,-6.14949 11.87557,-6.96771 11.87557,-0.9409 0,2.63211 -1.06077,2.69533 -1.94181,0.11572 -1.50617,-4.40995 -7.00324,-4.18507 -7.00324,0.28649 0,2.07913 1.28087,3.45563 5.83599,6.27171 8.21053,5.07592 1.64507,14.73138 -7.52779,11.0707 z m 17.19167,-0.33717 c -5.54928,-3.38386 -4.38181,-12.25575 1.85778,-14.11767 3.5901,-1.07129 7.61634,1.22379 8.06903,4.59962 l 0.24277,1.8103 h -5.16754 -5.16754 v 1.33408 c 0,4.42775 5.01312,6.66541 8.8661,3.95747 1.24272,-0.87341 1.53189,-0.61962 0.67993,0.59673 -1.70955,2.44072 -6.75639,3.41962 -9.38053,1.81947 z m 6.13862,-9.49676 c 1.36488,-1.36487 -0.0654,-3.7484 -2.24932,-3.7484 -1.56653,0 -4.0548,2.46604 -4.0548,4.01857 0,0.4832 5.79929,0.23467 6.30412,-0.27017 z m 4.91971,9.77487 c -0.11015,-0.17615 0.29046,-0.50684 0.89024,-0.73488 1.59595,-0.60678 1.70499,-8.88489 0.13212,-10.03049 -0.91704,-0.66793 -0.92429,-0.71953 -0.16805,-1.19553 0.4347,-0.27362 1.48893,-1.04364 2.34275,-1.71117 l 1.5524,-1.2137 0.13127,1.29054 0.13126,1.29053 1.48022,-1.0045 c 5.15772,-3.50013 8.17651,-0.92185 8.58294,7.33047 0.22664,4.60194 0.29871,4.9123 1.2403,5.34132 1.7299,0.78819 1.11109,1.0218 -2.62041,0.98925 -3.91247,-0.0341 -4.20857,-0.18764 -2.50944,-1.30095 3.04343,-1.99414 0.87142,-11.29629 -2.63765,-11.29629 -3.52632,0 -5.7757,10.26319 -2.52062,11.50077 0.58569,0.22268 1.06488,0.57427 1.06488,0.7813 0,0.45439 -6.80713,0.41918 -7.09221,-0.0367 z m 18.4865,0.0965 c -0.56279,-0.34541 -0.74542,-1.02631 -0.74542,-2.77909 0,-2.73108 0.60907,-3.01796 1.32613,-0.62463 0.97663,3.25969 4.19753,4.11252 6.0618,1.60505 1.6162,-2.17381 0.72055,-3.39105 -3.75257,-5.09995 -2.81839,-1.07674 -3.94626,-2.44274 -3.49651,-4.23471 1.06397,-4.23919 9.65811,-5.32177 9.65811,-1.21661 0,2.11219 -0.59786,2.50163 -1.28685,0.83825 -0.94048,-2.2705 -4.03821,-2.95043 -5.2913,-1.16139 -1.4039,2.00435 -0.59234,3.14325 3.2673,4.58519 4.30253,1.60739 5.22312,4.24807 2.44922,7.0255 -1.38863,1.3904 -6.56204,2.06149 -8.18991,1.06239 z M 19.37461,137.83954 c 1.052407,-6.31296 7.896808,-12.88513 13.418844,-12.88513 h 1.261886 v 4.42635 c 0,4.32864 -0.02278,4.43206 -1.032058,4.68537 -1.512812,0.37969 -3.683046,2.35586 -4.35601,3.9665 l -0.58673,1.40424 h -4.486108 -4.486109 z"
         id="path26" />
      <path
         style="fill:#4d718c"
         d="m 56.214199,151.84328 c 0.0051,-0.14669 0.628029,-0.55423 1.384353,-0.90564 l 1.375133,-0.63893 0.120636,-8.73207 c 0.137242,-9.93407 0.05994,-10.53386 -1.404987,-10.90153 -2.405286,-0.60369 -0.725395,-0.90179 4.69543,-0.83322 7.594635,0.0961 9.592208,1.52294 9.570521,6.83627 -0.02011,4.92672 -2.290985,7.29456 -6.60912,6.89133 L 62.5943,143.30251 v 3.1438 c 0,3.83172 0.225643,4.49133 1.536413,4.49133 0.560623,0 1.019314,0.2475 1.019314,0.55 0,0.41213 -1.121038,0.55906 -4.472523,0.58617 -2.459888,0.0199 -4.468375,-0.0838 -4.463305,-0.23053 z M 66.066,141.95831 c 3.915688,-2.09561 2.403697,-10.99071 -1.87437,-11.02699 l -1.59733,-0.0136 v 5.30327 c 0,6.12415 0.672428,7.23539 3.4717,5.73727 z m 7.414296,9.31051 c -1.789902,-2.55544 0.297357,-5.77546 4.596696,-7.09133 2.609864,-0.79879 2.620902,-0.80899 2.750564,-2.54206 0.350841,-4.68935 -2.571055,-4.73533 -5.132539,-0.0808 -0.540985,0.98304 -0.994854,1.3127 -1.670455,1.21332 -3.791969,-0.55779 2.44284,-6.16057 6.397245,-5.74874 2.966096,0.3089 3.162775,0.73003 3.324679,7.11881 0.163845,6.4654 0.203304,6.58592 1.873537,5.72221 1.675962,-0.86668 1.769672,0.18372 0.13136,1.47242 -1.557678,1.22527 -3.29854,1.14064 -4.362589,-0.21208 l -0.861251,-1.0949 -1.611294,1.0949 c -2.08867,1.41929 -4.499616,1.48503 -5.435953,0.14822 z m 5.323874,-1.19571 c 1.502263,-0.80399 2.788406,-4.70058 1.85846,-5.63052 -0.365724,-0.36573 -3.288013,0.91484 -3.905339,1.71135 -1.615135,2.08392 -0.06605,5.04997 2.046879,3.91917 z m 8.495498,1.72462 c 0,-0.12767 0.431279,-0.42133 0.958398,-0.65259 1.434678,-0.62943 1.745521,-18.87911 0.327878,-19.24984 -1.47739,-0.38634 -0.948986,-1.1703 1.375941,-2.04138 1.229944,-0.46083 2.380021,-0.90515 2.555727,-0.98739 0.175707,-0.0822 0.319466,4.82934 0.319466,10.91462 v 11.06414 l 1.064887,0.26727 c 2.177045,0.5464 0.949245,0.96361 -2.768705,0.9408 -2.108476,-0.0129 -3.833592,-0.12797 -3.833592,-0.25563 z m 8.519093,-0.0533 c 0,-0.15867 0.479199,-0.40877 1.064886,-0.55577 1.501783,-0.37692 1.699009,-9.96192 0.212978,-10.35053 -1.101473,-0.28804 -1.088503,-0.84283 0.02799,-1.19719 0.483943,-0.1536 1.538181,-0.85725 2.342751,-1.56367 l 1.462854,-1.2844 v 1.32199 c 0,1.59822 0.16019,1.62134 1.7815,0.2571 1.92158,-1.6169 4.28195,-1.47594 6.1236,0.36571 l 1.4306,1.43059 0.97604,-1.04375 c 4.46193,-4.77143 8.43026,-1.54824 8.43026,6.8473 0,4.84311 0.007,4.87512 1.06489,5.14073 2.16292,0.54286 0.96195,0.98333 -2.55567,0.93732 -3.53541,-0.0462 -4.48484,-0.3546 -2.76877,-0.89926 1.00592,-0.31927 0.97606,-0.12858 0.86732,-5.53741 -0.1227,-6.10381 -2.0906,-8.11758 -4.93422,-5.04926 -1.62136,1.74948 -1.60567,9.75549 0.0203,10.37369 1.94875,0.74092 1.10283,1.10748 -2.55572,1.10748 -3.49046,0 -4.53499,-0.3339 -2.78351,-0.8898 2.97892,-0.94547 1.34768,-11.71845 -1.7744,-11.71845 -3.50559,0 -5.267532,10.9093 -1.86671,11.55799 2.34538,0.44736 0.79282,1.03809 -2.728334,1.03809 -2.111264,0 -3.838662,-0.12982 -3.838662,-0.2885 z m 29.402889,-0.003 c -1.47531,-0.58876 -1.70189,-1.10465 -1.70932,-3.89186 -0.008,-2.97463 0.48705,-3.1396 1.30274,-0.43419 1.11671,3.70385 5.06961,5.15077 7.58641,2.77694 2.74908,-2.5929 1.94188,-4.94247 -2.51388,-7.31736 -5.2369,-2.79124 -6.7039,-4.76323 -5.90467,-7.93725 1.54846,-6.14949 11.87557,-6.96771 11.87557,-0.9409 0,2.63211 -1.06077,2.69533 -1.94181,0.11572 -1.50617,-4.40995 -7.00324,-4.18507 -7.00324,0.28649 0,2.07913 1.28087,3.45563 5.83599,6.27171 8.21053,5.07592 1.64507,14.73138 -7.52779,11.0707 z m 17.19167,-0.33717 c -5.54928,-3.38386 -4.38181,-12.25575 1.85778,-14.11767 3.5901,-1.07129 7.61634,1.22379 8.06903,4.59962 l 0.24277,1.8103 h -5.16754 -5.16754 v 1.33408 c 0,4.42775 5.01312,6.66541 8.8661,3.95747 1.24272,-0.87341 1.53189,-0.61962 0.67993,0.59673 -1.70955,2.44072 -6.75639,3.41962 -9.38053,1.81947 z m 6.13862,-9.49676 c 1.36488,-1.36487 -0.0654,-3.7484 -2.24932,-3.7484 -1.56653,0 -4.0548,2.46604 -4.0548,4.01857 0,0.4832 5.79929,0.23467 6.30412,-0.27017 z m 4.91971,9.77487 c -0.11015,-0.17615 0.29046,-0.50684 0.89024,-0.73488 1.59595,-0.60678 1.70499,-8.88489 0.13212,-10.03049 -0.91704,-0.66793 -0.92429,-0.71953 -0.16805,-1.19553 0.4347,-0.27362 1.48893,-1.04364 2.34275,-1.71117 l 1.5524,-1.2137 0.13127,1.29054 0.13126,1.29053 1.48022,-1.0045 c 5.15772,-3.50013 8.17651,-0.92185 8.58294,7.33047 0.22664,4.60194 0.29871,4.9123 1.2403,5.34132 1.7299,0.78819 1.11109,1.0218 -2.62041,0.98925 -3.91247,-0.0341 -4.20857,-0.18764 -2.50944,-1.30095 3.04343,-1.99414 0.87142,-11.29629 -2.63765,-11.29629 -3.52632,0 -5.7757,10.26319 -2.52062,11.50077 0.58569,0.22268 1.06488,0.57427 1.06488,0.7813 0,0.45439 -6.80713,0.41918 -7.09221,-0.0367 z m 18.4865,0.0965 c -0.56279,-0.34541 -0.74542,-1.02631 -0.74542,-2.77909 0,-2.73108 0.60907,-3.01796 1.32613,-0.62463 0.97663,3.25969 4.19753,4.11252 6.0618,1.60505 1.6162,-2.17381 0.72055,-3.39105 -3.75257,-5.09995 -2.81839,-1.07674 -3.94626,-2.44274 -3.49651,-4.23471 1.06397,-4.23919 9.65811,-5.32177 9.65811,-1.21661 0,2.11219 -0.59786,2.50163 -1.28685,0.83825 -0.94048,-2.2705 -4.03821,-2.95043 -5.2913,-1.16139 -1.4039,2.00435 -0.59234,3.14325 3.2673,4.58519 4.30253,1.60739 5.22312,4.24807 2.44922,7.0255 -1.38863,1.3904 -6.56204,2.06149 -8.18991,1.06239 z M 21.520435,148.70161 c -2.582942,-3.94207 -2.50779,-6.70902 0.18222,-6.70902 1.740822,0 2.131482,0.13614 2.139128,0.74543 0.0051,0.40998 0.397261,1.60054 0.871368,2.6457 l 0.862014,1.90029 -0.977857,0.77405 c -2.027323,1.60478 -2.396464,1.68199 -3.076873,0.64355 z M 19.37461,137.83954 c 1.052407,-6.31296 7.896808,-12.88513 13.418844,-12.88513 h 1.261886 v 4.42635 c 0,4.32864 -0.02278,4.43206 -1.032058,4.68537 -1.512812,0.37969 -3.683046,2.35586 -4.35601,3.9665 l -0.58673,1.40424 h -4.486108 -4.486109 z"
         id="path25" />
      <path
         style="fill:#0076c7"
         d="m 56.214199,151.78955 c 0.0051,-0.11714 0.628029,-0.5005 1.384353,-0.85191 l 1.375133,-0.63893 0.120636,-8.73207 c 0.13781,-9.97515 0.06441,-10.53274 -1.436173,-10.90936 -2.34848,-0.58943 -0.119501,-0.83784 5.504953,-0.6135 l 5.893235,0.23506 1.211353,1.35733 c 4.314617,4.83455 0.941034,12.5154 -5.22415,11.89415 l -2.449239,-0.2468 v 3.15329 c 0,3.84151 0.225067,4.50083 1.536413,4.50083 0.560623,0 1.019314,0.2396 1.019314,0.53245 0,0.39214 -1.178474,0.53244 -4.472523,0.53244 -2.459888,0 -4.468375,-0.0958 -4.463305,-0.21298 z m 10.945354,-11.03132 c 1.74018,-2.59078 1.117574,-8.77719 -0.963723,-9.57586 -0.379238,-0.14553 -1.344725,-0.2646 -2.145527,-0.2646 H 62.5943 v 5.30327 c 0,4.59751 0.0992,5.36239 0.74542,5.74756 1.320883,0.78727 2.790922,0.32147 3.819833,-1.21037 z m 6.461616,10.55742 c -2.5364,-2.5364 0.500745,-6.07207 6.756736,-7.86579 0.693449,-0.19883 0.710789,-4.09022 0.0213,-4.77971 -1.293363,-1.29336 -3.364301,-0.10181 -4.65492,2.6783 -0.61946,1.33438 -1.861937,1.87966 -2.600373,1.14123 -2.140879,-2.14088 5.364401,-6.44563 8.762467,-5.02583 l 1.559699,0.65168 v 5.47774 c 0,5.9536 0.489093,7.67735 1.856381,6.5426 1.283177,-1.06494 1.798244,-0.2584 0.600119,0.93972 -1.505947,1.50595 -3.370052,1.52446 -4.533782,0.045 l -0.861251,-1.0949 -1.611294,1.0949 c -1.987364,1.35045 -4.063211,1.42691 -5.29508,0.19505 z m 6.316145,-2.46428 c 0.849322,-1.26333 1.412651,-4.729 0.768677,-4.729 -0.844042,0 -3.734023,1.52967 -4.067615,2.15299 -1.78327,3.33207 1.216089,5.67415 3.298938,2.57601 z m 7.362354,2.9327 c 0,-0.12015 0.431279,-0.40767 0.958398,-0.63893 1.512241,-0.66346 1.724881,-18.31535 0.234177,-19.43979 l -0.954711,-0.72014 1.265421,-0.50768 c 0.695981,-0.27923 1.774194,-0.7736 2.396028,-1.09861 0.621835,-0.325 1.256085,-0.59092 1.409445,-0.59092 0.15336,0 0.25548,4.74407 0.226933,10.54238 -0.02855,5.79831 -0.03984,10.7612 -0.02509,11.02864 0.01475,0.26745 0.50601,0.60654 1.091698,0.75354 2.111503,0.52995 0.991486,0.88997 -2.768705,0.88997 -2.108476,0 -3.833592,-0.0983 -3.833592,-0.21846 z m 8.694339,-0.0556 c -0.09315,-0.15071 0.308515,-0.39397 0.892584,-0.54056 1.572399,-0.39464 1.679756,-9.84616 0.1184,-10.42375 -0.891205,-0.32967 -0.845935,-0.41065 0.816103,-1.45985 0.967806,-0.61095 1.882912,-1.31026 2.033569,-1.55403 0.535027,-0.86569 1.075557,-0.42405 1.075557,0.87877 v 1.32199 l 1.50566,-1.32199 c 2.14298,-1.88156 4.3332,-1.84405 6.28489,0.10764 l 1.42963,1.42963 1.55999,-1.42963 c 4.06148,-3.72206 8.54806,-0.22457 7.76383,6.05224 -0.45226,3.61972 0.061,6.02195 1.35621,6.34702 1.86077,0.46702 0.62201,0.83982 -2.88465,0.86811 -3.52741,0.0285 -4.03765,-0.15216 -2.42662,-0.85895 2.79334,-1.22551 0.9504,-11.70827 -2.05838,-11.70827 -3.16411,0 -5.01783,10.2464 -2.09468,11.57828 1.74763,0.79627 1.25296,0.98738 -2.55572,0.98738 -1.99134,0 -3.62062,-0.14376 -3.62062,-0.31947 0,-0.1757 0.28078,-0.31946 0.62395,-0.31946 1.75712,0 2.26012,-8.72315 0.623,-10.8044 -1.08597,-1.38059 -2.81353,-1.47497 -4.38416,-0.23951 -2.01783,1.58723 -1.64168,10.14166 0.475,10.80222 0.52711,0.1645 0.95839,0.42994 0.95839,0.58986 0,0.36922 -7.264053,0.38545 -7.491933,0.0167 z m 29.641573,0.18482 c -1.64642,-0.60538 -2.12977,-1.51848 -2.12977,-4.02338 0,-2.78891 0.60185,-3.31724 1.05108,-0.92268 1.00472,5.35561 8.31556,5.99054 9.3552,0.81248 0.36412,-1.81357 -0.54817,-2.88371 -4.42356,-5.18895 -5.72879,-3.40774 -6.90476,-5.6656 -4.81471,-9.24427 2.89205,-4.95186 11.48116,-4.41067 11.09911,0.69935 -0.17261,2.30865 -1.01848,2.44938 -1.66913,0.27769 -1.4113,-4.7105 -7.19035,-4.49423 -7.19035,0.26908 0,2.01822 0.87716,2.97356 5.21619,5.68109 8.43196,5.26151 2.93841,15.10785 -6.49406,11.63959 z m 16.57522,-0.66881 c -5.40132,-3.63995 -4.02674,-12.26967 2.2224,-13.95239 3.16337,-0.85181 7.13869,1.17722 7.84867,4.00601 0.56162,2.23768 0.2186,2.39828 -5.12221,2.39828 h -4.91184 v 1.33408 c 0,4.18669 3.92889,6.43808 7.80797,4.47424 2.04656,-1.0361 2.72487,-0.64296 1.22797,0.71172 -2.33563,2.11372 -6.72407,2.61098 -9.07296,1.02806 z m 6.34114,-9.33711 c 1.36284,-1.36283 -0.0652,-3.7484 -2.24388,-3.7484 -1.46476,0 -3.31209,1.59303 -3.82812,3.30115 -0.33462,1.10763 5.01741,1.50185 6.072,0.44725 z m 4.91898,9.77487 c -0.10975,-0.17615 0.29119,-0.50684 0.89097,-0.73488 1.20731,-0.45902 1.20257,-0.43537 1.11073,-5.54716 -0.0567,-3.15448 -0.18556,-3.72453 -1.00103,-4.4278 -0.59195,-0.51049 -0.75042,-0.87243 -0.43115,-0.98469 0.27765,-0.0976 1.28231,-0.74071 2.23257,-1.42907 2.09762,-1.51951 2.16108,-1.52481 2.16108,-0.18065 v 1.07093 l 1.74702,-1.15612 c 4.93518,-3.26595 8.04994,-0.60648 8.04994,6.87327 0,4.52177 0.57586,6.1975 2.12977,6.1975 0.23428,0 0.42596,0.15869 0.42596,0.35264 0,0.38769 -6.77586,0.25471 -7.17131,-0.14074 -0.13513,-0.13513 0.17931,-0.35683 0.69876,-0.49267 3.47558,-0.90889 1.34721,-11.87478 -2.28479,-11.77183 -3.562,0.10097 -5.75317,10.23578 -2.53046,11.70415 0.58569,0.26685 1.06488,0.60741 1.06488,0.75678 0,0.38499 -6.85116,0.29838 -7.09294,-0.0897 z m 18.6885,-0.12985 c -0.76118,-0.53315 -0.94669,-1.07569 -0.94669,-2.7687 0,-2.51076 0.64523,-2.75122 1.25965,-0.46945 1.00958,3.74929 5.08936,4.52787 6.45463,1.2318 0.84105,-2.03046 -0.11781,-3.2628 -3.46013,-4.44703 -4.27805,-1.51577 -5.31505,-3.48409 -3.17532,-6.02701 2.71928,-3.23169 8.71813,-2.79821 8.71813,0.62997 0,1.84268 -0.53948,1.8256 -1.64738,-0.0522 -1.48464,-2.51628 -5.59385,-1.81032 -5.59385,0.96103 0,1.08139 1.62089,2.42881 3.75372,3.12042 4.75924,1.54326 5.59401,4.97423 1.82718,7.50992 -1.76601,1.18881 -5.69424,1.35884 -7.18994,0.31121 z M 21.520435,148.70161 c -2.582942,-3.94207 -2.50779,-6.70902 0.18222,-6.70902 1.740822,0 2.131482,0.13614 2.139128,0.74543 0.0051,0.40998 0.397261,1.60054 0.871368,2.6457 l 0.862014,1.90029 -0.977857,0.77405 c -2.027323,1.60478 -2.396464,1.68199 -3.076873,0.64355 z m -2.089041,-10.6491 c 1.269238,-6.6766 6.840059,-12.33154 12.811129,-13.00456 l 1.812817,-0.20433 v 4.2574 4.2574 l -2.006593,1.03263 c -1.50537,0.77469 -2.264532,1.53385 -3.039222,3.03922 l -1.032629,2.0066 h -4.404335 -4.404336 z"
         id="path24" />
      <path
         style="fill:#3c6481"
         d="m 56.214199,151.78955 c 0.0051,-0.11714 0.628029,-0.5005 1.384353,-0.85191 l 1.375133,-0.63893 0.120636,-8.73207 c 0.13781,-9.97515 0.06441,-10.53274 -1.436173,-10.90936 -2.34848,-0.58943 -0.119501,-0.83784 5.504953,-0.6135 l 5.893235,0.23506 1.211353,1.35733 c 4.314617,4.83455 0.941034,12.5154 -5.22415,11.89415 l -2.449239,-0.2468 v 3.15329 c 0,3.84151 0.225067,4.50083 1.536413,4.50083 0.560623,0 1.019314,0.2396 1.019314,0.53245 0,0.39214 -1.178474,0.53244 -4.472523,0.53244 -2.459888,0 -4.468375,-0.0958 -4.463305,-0.21298 z m 10.945354,-11.03132 c 1.74018,-2.59078 1.117574,-8.77719 -0.963723,-9.57586 -0.379238,-0.14553 -1.344725,-0.2646 -2.145527,-0.2646 H 62.5943 v 5.30327 c 0,4.59751 0.0992,5.36239 0.74542,5.74756 1.320883,0.78727 2.790922,0.32147 3.819833,-1.21037 z m 6.461616,10.55742 c -2.5364,-2.5364 0.500745,-6.07207 6.756736,-7.86579 0.693449,-0.19883 0.710789,-4.09022 0.0213,-4.77971 -1.293363,-1.29336 -3.364301,-0.10181 -4.65492,2.6783 -0.61946,1.33438 -1.861937,1.87966 -2.600373,1.14123 -2.140879,-2.14088 5.364401,-6.44563 8.762467,-5.02583 l 1.559699,0.65168 v 5.47774 c 0,5.9536 0.489093,7.67735 1.856381,6.5426 1.283177,-1.06494 1.798244,-0.2584 0.600119,0.93972 -1.505947,1.50595 -3.370052,1.52446 -4.533782,0.045 l -0.861251,-1.0949 -1.611294,1.0949 c -1.987364,1.35045 -4.063211,1.42691 -5.29508,0.19505 z m 6.316145,-2.46428 c 0.849322,-1.26333 1.412651,-4.729 0.768677,-4.729 -0.844042,0 -3.734023,1.52967 -4.067615,2.15299 -1.78327,3.33207 1.216089,5.67415 3.298938,2.57601 z m 7.362354,2.9327 c 0,-0.12015 0.431279,-0.40767 0.958398,-0.63893 1.512241,-0.66346 1.724881,-18.31535 0.234177,-19.43979 l -0.954711,-0.72014 1.265421,-0.50768 c 0.695981,-0.27923 1.774194,-0.7736 2.396028,-1.09861 0.621835,-0.325 1.256085,-0.59092 1.409445,-0.59092 0.15336,0 0.25548,4.74407 0.226933,10.54238 -0.02855,5.79831 -0.03984,10.7612 -0.02509,11.02864 0.01475,0.26745 0.50601,0.60654 1.091698,0.75354 2.111503,0.52995 0.991486,0.88997 -2.768705,0.88997 -2.108476,0 -3.833592,-0.0983 -3.833592,-0.21846 z m 8.694339,-0.0556 c -0.09315,-0.15071 0.308515,-0.39397 0.892584,-0.54056 1.572399,-0.39464 1.679756,-9.84616 0.1184,-10.42375 -0.891205,-0.32967 -0.845935,-0.41065 0.816103,-1.45985 0.967806,-0.61095 1.882912,-1.31026 2.033569,-1.55403 0.535027,-0.86569 1.075557,-0.42405 1.075557,0.87877 v 1.32199 l 1.50566,-1.32199 c 2.14298,-1.88156 4.3332,-1.84405 6.28489,0.10764 l 1.42963,1.42963 1.55999,-1.42963 c 4.06148,-3.72206 8.54806,-0.22457 7.76383,6.05224 -0.45226,3.61972 0.061,6.02195 1.35621,6.34702 1.86077,0.46702 0.62201,0.83982 -2.88465,0.86811 -3.52741,0.0285 -4.03765,-0.15216 -2.42662,-0.85895 2.79334,-1.22551 0.9504,-11.70827 -2.05838,-11.70827 -3.16411,0 -5.01783,10.2464 -2.09468,11.57828 1.74763,0.79627 1.25296,0.98738 -2.55572,0.98738 -1.99134,0 -3.62062,-0.14376 -3.62062,-0.31947 0,-0.1757 0.28078,-0.31946 0.62395,-0.31946 1.75712,0 2.26012,-8.72315 0.623,-10.8044 -1.08597,-1.38059 -2.81353,-1.47497 -4.38416,-0.23951 -2.01783,1.58723 -1.64168,10.14166 0.475,10.80222 0.52711,0.1645 0.95839,0.42994 0.95839,0.58986 0,0.36922 -7.264053,0.38545 -7.491933,0.0167 z m 29.641573,0.18482 c -1.64642,-0.60538 -2.12977,-1.51848 -2.12977,-4.02338 0,-2.78891 0.60185,-3.31724 1.05108,-0.92268 1.00472,5.35561 8.31556,5.99054 9.3552,0.81248 0.36412,-1.81357 -0.54817,-2.88371 -4.42356,-5.18895 -5.72879,-3.40774 -6.90476,-5.6656 -4.81471,-9.24427 2.89205,-4.95186 11.48116,-4.41067 11.09911,0.69935 -0.17261,2.30865 -1.01848,2.44938 -1.66913,0.27769 -1.4113,-4.7105 -7.19035,-4.49423 -7.19035,0.26908 0,2.01822 0.87716,2.97356 5.21619,5.68109 8.43196,5.26151 2.93841,15.10785 -6.49406,11.63959 z m 16.57522,-0.66881 c -5.40132,-3.63995 -4.02674,-12.26967 2.2224,-13.95239 3.16337,-0.85181 7.13869,1.17722 7.84867,4.00601 0.56162,2.23768 0.2186,2.39828 -5.12221,2.39828 h -4.91184 v 1.33408 c 0,4.18669 3.92889,6.43808 7.80797,4.47424 2.04656,-1.0361 2.72487,-0.64296 1.22797,0.71172 -2.33563,2.11372 -6.72407,2.61098 -9.07296,1.02806 z m 6.34114,-9.33711 c 1.36284,-1.36283 -0.0652,-3.7484 -2.24388,-3.7484 -1.46476,0 -3.31209,1.59303 -3.82812,3.30115 -0.33462,1.10763 5.01741,1.50185 6.072,0.44725 z m 4.91898,9.77487 c -0.10975,-0.17615 0.29119,-0.50684 0.89097,-0.73488 1.20731,-0.45902 1.20257,-0.43537 1.11073,-5.54716 -0.0567,-3.15448 -0.18556,-3.72453 -1.00103,-4.4278 -0.59195,-0.51049 -0.75042,-0.87243 -0.43115,-0.98469 0.27765,-0.0976 1.28231,-0.74071 2.23257,-1.42907 2.09762,-1.51951 2.16108,-1.52481 2.16108,-0.18065 v 1.07093 l 1.74702,-1.15612 c 4.93518,-3.26595 8.04994,-0.60648 8.04994,6.87327 0,4.52177 0.57586,6.1975 2.12977,6.1975 0.23428,0 0.42596,0.15869 0.42596,0.35264 0,0.38769 -6.77586,0.25471 -7.17131,-0.14074 -0.13513,-0.13513 0.17931,-0.35683 0.69876,-0.49267 3.47558,-0.90889 1.34721,-11.87478 -2.28479,-11.77183 -3.562,0.10097 -5.75317,10.23578 -2.53046,11.70415 0.58569,0.26685 1.06488,0.60741 1.06488,0.75678 0,0.38499 -6.85116,0.29838 -7.09294,-0.0897 z m 18.6885,-0.12985 c -0.76118,-0.53315 -0.94669,-1.07569 -0.94669,-2.7687 0,-2.51076 0.64523,-2.75122 1.25965,-0.46945 1.00958,3.74929 5.08936,4.52787 6.45463,1.2318 0.84105,-2.03046 -0.11781,-3.2628 -3.46013,-4.44703 -4.27805,-1.51577 -5.31505,-3.48409 -3.17532,-6.02701 2.71928,-3.23169 8.71813,-2.79821 8.71813,0.62997 0,1.84268 -0.53948,1.8256 -1.64738,-0.0522 -1.48464,-2.51628 -5.59385,-1.81032 -5.59385,0.96103 0,1.08139 1.62089,2.42881 3.75372,3.12042 4.75924,1.54326 5.59401,4.97423 1.82718,7.50992 -1.76601,1.18881 -5.69424,1.35884 -7.18994,0.31121 z M 19.431394,138.05251 c 1.269238,-6.6766 6.840059,-12.33154 12.811129,-13.00456 l 1.812817,-0.20433 v 4.2574 4.2574 l -2.006593,1.03263 c -1.50537,0.77469 -2.264532,1.53385 -3.039222,3.03922 l -1.032629,2.0066 h -4.404335 -4.404336 z"
         id="path23" />
      <path
         style="fill:#2b5677"
         d="m 56.20498,151.68824 c 0,-0.17855 0.353651,-0.32464 0.785892,-0.32464 3.362776,0 3.985165,-19.87358 0.648615,-20.711 -2.245,-0.56346 -0.05976,-0.79297 5.586449,-0.58673 l 5.830681,0.21297 1.206708,1.35229 c 4.510318,5.05444 0.475049,13.19519 -5.825972,11.75331 l -1.87355,-0.42873 0.121737,3.86626 c 0.116424,3.69752 0.166835,3.87686 1.155044,4.1092 2.497947,0.58731 1.074828,1.07163 -3.163239,1.07654 -2.4598,0.003 -4.472365,-0.14092 -4.472365,-0.31947 z m 10.674188,-10.36153 c 3.251422,-3.46098 0.654361,-11.60121 -3.365843,-10.54991 -1.282591,0.33541 -1.439541,10.44434 -0.173605,11.18168 1.252426,0.72947 2.463753,0.51325 3.539448,-0.63177 z m 7.09008,10.35635 c -3.062839,-2.28208 0.177111,-6.53608 6.19568,-8.13483 0.581399,-0.15445 0.745421,-0.65668 0.745421,-2.28248 0,-4.32618 -3.057537,-4.21373 -5.285546,0.1944 -0.422759,0.83643 -1.022599,1.38435 -1.515528,1.38435 -3.266442,0 0.888054,-5.01579 4.725228,-5.70484 3.882648,-0.69722 4.616907,0.3815 4.625051,6.79481 0.0071,5.60366 0.521181,7.31493 1.862903,6.2014 1.316599,-1.09268 1.794565,-0.23495 0.524819,0.94181 -1.593665,1.47696 -3.317415,1.49355 -4.458482,0.0429 l -0.861251,-1.0949 -1.611294,1.0949 c -1.737939,1.18096 -3.801938,1.41563 -4.947001,0.56246 z m 5.854537,-2.59593 c 1.503428,-1.9711 1.590472,-5.17915 0.128166,-4.72361 -3.053588,0.95125 -3.727103,1.65695 -3.727103,3.9052 0,2.54143 1.947018,2.98419 3.598937,0.81841 z m 7.475883,2.69694 c 0,-0.12015 0.431279,-0.40767 0.958398,-0.63893 1.518383,-0.66615 1.724131,-18.31592 0.226681,-19.44544 l -0.962208,-0.7258 1.272917,-0.45693 c 0.700105,-0.25132 1.800036,-0.75398 2.444292,-1.11704 0.644257,-0.36305 1.17765,-0.5055 1.185318,-0.31654 0.0077,0.18895 0.0017,4.97208 -0.01333,10.62919 -0.02861,10.79 0.115247,11.65102 1.946607,11.65102 0.334678,0 0.608506,0.14376 0.608506,0.31946 0,0.17571 -1.725116,0.31947 -3.833591,0.31947 -2.108476,0 -3.833592,-0.0983 -3.833592,-0.21846 z m 8.945304,-0.0513 c -1.41e-4,-0.14838 0.383102,-0.37003 0.851653,-0.49256 1.363377,-0.35653 1.312988,-10.52545 -0.05216,-10.52545 -0.755318,0 -0.81682,-0.10512 -0.373799,-0.63893 0.291646,-0.35141 0.718726,-0.63893 0.949065,-0.63893 0.230339,0 1.021507,-0.50904 1.758151,-1.1312 l 1.339358,-1.1312 0.13491,1.36335 0.1349,1.36335 1.47725,-1.29704 c 2.19502,-1.92725 5.74147,-1.49085 7.00036,0.86143 0.45185,0.84428 0.51948,0.82398 2.14363,-0.64334 2.27258,-2.05314 4.06661,-2.06841 6.25988,-0.0533 l 1.59107,1.46184 -0.10562,3.54313 c -0.14995,5.03019 0.1784,7.06184 1.19339,7.38398 1.68448,0.53464 0.73805,0.84465 -2.57861,0.84465 -3.57156,0 -4.0343,-0.16199 -2.44924,-0.85739 2.81276,-1.23402 0.97132,-11.70827 -2.05838,-11.70827 -3.16411,0 -5.01783,10.2464 -2.09468,11.57828 1.74613,0.79558 1.25367,0.98705 -2.55598,0.99374 -3.76871,0.007 -4.27291,-0.15699 -2.66196,-0.86375 1.44361,-0.63335 1.6777,-8.81993 0.3022,-10.56859 -2.77342,-3.52583 -5.52014,-0.82865 -5.52014,5.42058 v 4.58856 l 1.27786,0.48234 c 2.01167,0.75932 1.5427,0.94768 -2.342498,0.94086 -1.991197,-0.004 -3.620473,-0.12777 -3.620614,-0.27615 z m 29.603588,0.1764 c -1.77616,-0.4327 -2.34275,-1.40473 -2.34275,-4.0192 0,-2.78891 0.60185,-3.31724 1.05108,-0.92268 0.93785,4.99917 7.83317,6.05069 9.22454,1.40672 0.71995,-2.40298 0.0619,-3.38812 -3.59178,-5.37721 -6.14084,-3.34312 -7.7292,-6.34295 -5.291,-9.99272 2.59382,-3.8827 10.05096,-4.02881 10.76719,-0.21096 0.55876,2.97844 -0.70801,4.45722 -1.46613,1.71152 -1.34819,-4.88272 -7.28626,-4.90662 -7.28626,-0.0293 0,2.16081 0.78145,3.02393 5.38354,5.94612 8.30378,5.27266 3.46007,13.90162 -6.44843,11.48773 z m 17.67712,-9.7e-4 c -5.16662,-1.9414 -6.27732,-9.81712 -1.87307,-13.2815 3.4199,-2.6901 8.85582,-1.62101 10.37223,2.03993 1.07775,2.60193 0.76799,2.79413 -4.88328,3.02981 l -5.10672,0.21298 0.13438,1.24647 c 0.48991,4.54416 5.08599,6.68401 8.70418,4.05249 1.3746,-0.99974 1.56836,-0.37152 0.28213,0.91472 -1.72234,1.72234 -5.46595,2.5982 -7.62985,1.7851 z m 5.02626,-10.00077 c 1.22342,-1.22341 0.21856,-3.28277 -1.91947,-3.93379 -1.08698,-0.33097 -3.70008,1.85517 -4.16748,3.48654 -0.31732,1.10758 5.03347,1.50074 6.08695,0.44725 z m 4.92197,9.77566 c -0.11085,-0.1757 0.001,-0.31946 0.24954,-0.31946 2.38778,0 3.21404,-7.92465 1.05172,-10.08697 -1.03163,-1.03163 -0.8944,-1.8055 0.32509,-1.83324 0.15773,-0.004 0.87653,-0.50276 1.59733,-1.10927 l 1.31055,-1.10276 v 1.31573 c 0,0.72365 0.19168,1.31573 0.42595,1.31573 0.23428,0 0.42727,-0.14376 0.42887,-0.31946 0.006,-0.65762 2.9464,-2.29232 4.18671,-2.32759 3.97649,-0.11306 5.18138,1.78214 5.18138,8.14996 v 4.73252 l 1.27633,0.77619 c 1.71811,1.04485 1.44842,1.16519 -2.36457,1.0551 -3.42107,-0.0988 -4.26577,-0.34362 -2.91281,-0.84431 2.39251,-0.88541 2.05295,-9.82049 -0.43515,-11.45076 -1.31061,-0.85874 -3.32863,-0.51438 -4.52763,0.77259 -1.42444,1.52896 -1.24074,9.93717 0.23176,10.60809 0.58569,0.26685 1.06488,0.61244 1.06488,0.76797 0,0.39155 -6.8407,0.29501 -7.08995,-0.10006 z m 18.68551,-0.13064 c -0.76118,-0.53315 -0.94669,-1.07569 -0.94669,-2.7687 0,-2.53559 0.53272,-2.72091 1.22069,-0.42466 0.97395,3.25076 4.24295,4.37341 6.12703,2.10416 1.70893,-2.05831 0.50257,-4.26724 -2.91957,-5.34597 -3.24078,-1.02157 -4.60761,-2.33384 -4.25697,-4.08705 0.92145,-4.60724 9.62578,-5.8083 9.62578,-1.3282 0,1.52319 -0.69845,1.94682 -1.143,0.69327 -1.10924,-3.12781 -6.09823,-2.96881 -6.09823,0.19436 0,1.13343 0.73987,1.72481 4.41973,3.53274 3.26212,1.60268 4.07353,3.19796 2.81895,5.54217 -1.24329,2.32311 -6.59579,3.4652 -8.84772,1.88788 z M 19.431394,138.05251 c 1.239956,-6.52257 6.678539,-12.1229 12.558154,-12.93165 l 1.852814,-0.25485 -0.147246,4.41023 -0.147246,4.41024 -1.76955,0.87072 c -1.263574,0.62174 -2.074037,1.44351 -2.834436,2.87396 l -1.064886,2.00324 -4.355387,10e-4 -4.355386,0.001 z"
         id="path22" />
      <path
         style="fill:#18476a"
         d="m 56.20498,151.73631 c 0,-0.14642 0.553087,-0.37684 1.229082,-0.51204 3.081915,-0.61638 3.3593,-19.22043 0.30639,-20.54937 -1.192609,-0.51915 -0.723139,-0.57733 4.780125,-0.59236 l 6.102619,-0.0167 1.210556,1.21055 c 5.13383,5.13383 0.829603,13.94173 -5.873562,12.01928 l -1.397191,-0.4007 0.122139,3.89661 c 0.116902,3.72953 0.166447,3.90704 1.155446,4.13956 2.50129,0.58809 1.074487,1.07136 -3.16308,1.07136 -2.459888,0 -4.472524,-0.1198 -4.472524,-0.26622 z m 10.569651,-10.29833 c 3.433294,-3.65457 1.078756,-11.7478 -3.111769,-10.69604 -1.222871,0.30692 -1.707547,10.01533 -0.557417,11.16546 0.825503,0.82551 2.674953,0.5889 3.669186,-0.46942 z m 7.490699,10.45154 c -2.974188,-1.98592 -1.077451,-5.8075 3.746995,-7.54952 2.596031,-0.93738 2.689559,-1.02279 2.821176,-2.57626 0.394851,-4.66043 -2.496746,-5.24505 -4.82096,-0.9747 -1.219187,2.24004 -3.154512,2.91379 -2.84545,0.99058 0.330338,-2.0556 3.262284,-4.18917 6.032058,-4.38952 4.014582,-0.29039 4.266927,0.0943 4.266927,6.5039 0,5.87659 0.415456,7.10921 2.093487,6.21115 1.438583,-0.7699 1.566461,-0.21257 0.234466,1.02188 -1.540352,1.42755 -3.279389,1.42485 -4.405549,-0.007 l -0.861565,-1.0953 -1.868991,1.0953 c -1.85255,1.08567 -3.489458,1.37236 -4.392594,0.76932 z m 5.558455,-2.80239 c 0.922996,-1.21011 1.631724,-4.96476 0.937149,-4.96476 -2.228881,0 -4.536086,1.94014 -4.536086,3.81442 0,2.85725 1.846774,3.44754 3.598937,1.15034 z m 7.650916,2.64137 c -0.09303,-0.15071 0.308729,-0.39397 0.892797,-0.54056 l 1.061943,-0.26653 v -9.31093 c 0,-9.1792 -0.01356,-9.32013 -0.958398,-9.96099 l -0.958398,-0.65006 1.277864,-0.4697 c 0.702825,-0.25833 1.804983,-0.76674 2.449239,-1.1298 l 1.171376,-0.66009 v 10.80073 c 0,11.28177 0.08515,11.82303 1.860002,11.82303 0.46074,0 0.716405,0.1213 0.568144,0.26956 -0.358434,0.35844 -7.147918,0.44633 -7.364569,0.0953 z m 8.770014,0.004 c 0,-0.14838 0.383359,-0.37003 0.85191,-0.49256 1.342672,-0.35112 1.312298,-10.39531 -0.03206,-10.60231 -0.708495,-0.1091 -0.412549,-0.44544 1.490841,-1.69437 l 2.374814,-1.55825 v 1.27665 1.27665 l 1.31069,-1.10287 c 2.40171,-2.02091 4.78032,-1.96805 6.75905,0.15019 l 1.12474,1.20404 1.57284,-1.44141 c 2.09352,-1.91857 3.95211,-1.95529 6.04306,-0.11942 l 1.50567,1.32199 v 4.88236 c 0,4.93379 0.36811,6.53017 1.50582,6.53017 0.34317,0 0.6237,0.14376 0.6234,0.31946 -3e-4,0.17571 -1.53378,0.31947 -3.40773,0.31947 -3.57108,0 -4.03367,-0.16198 -2.4486,-0.85739 2.79187,-1.22486 0.94136,-11.81476 -2.06455,-11.81476 -3.08718,0 -4.85756,10.55319 -1.98202,11.81476 1.59956,0.70176 1.11633,0.85739 -2.66221,0.85739 -3.77854,0 -4.26177,-0.15563 -2.66222,-0.85739 3.22162,-1.41341 0.72611,-13.0035 -2.55068,-11.84635 -3.37303,1.19115 -4.164578,12.06481 -0.87825,12.06481 0.42169,0 0.76671,0.14376 0.76671,0.31946 0,0.17571 -1.62927,0.31947 -3.620608,0.31947 -1.991338,0 -3.620615,-0.12141 -3.620615,-0.26979 z m 28.964915,-0.24006 c -1.4358,-0.73966 -1.49552,-0.8663 -1.61766,-3.43023 -0.13961,-2.93098 0.50208,-3.63021 0.92194,-1.00459 0.76115,4.76 7.76937,5.91677 9.21983,1.52182 0.86239,-2.61305 0.3738,-3.33276 -4.01663,-5.91667 -6.9788,-4.10724 -7.96488,-9.03971 -2.36922,-11.85106 4.5643,-2.29318 11.27083,1.77553 8.12008,4.92628 -0.56944,0.56944 -1.29551,-0.25656 -1.30677,-1.48663 -0.0341,-3.72998 -6.21226,-4.54445 -7.20479,-0.94981 -0.72418,2.62278 0.48429,4.24394 5.30332,7.11435 3.3478,1.99408 4.08279,2.85609 4.32569,5.0733 0.53527,4.88608 -6.41974,8.55639 -11.37579,6.00324 z m 17.52771,2e-4 c -4.74943,-2.34006 -5.07762,-10.06538 -0.55808,-13.13649 3.35762,-2.28156 8.72718,-0.87786 9.86829,2.57974 0.86874,2.63229 0.63221,2.76028 -5.10087,2.76028 -5.80263,0 -5.78798,-0.0112 -4.28832,3.29235 1.54932,3.41301 5.23798,4.43472 8.17393,2.26407 1.40616,-1.03961 1.63012,-0.43665 0.32324,0.87024 -2.05315,2.05314 -5.79538,2.66208 -8.41819,1.36981 z m 5.88034,-9.68982 c 1.47445,-1.7766 -1.10737,-4.5888 -3.35729,-3.65685 -1.23361,0.51097 -3.01257,2.74912 -3.01257,3.79017 0,0.75458 5.73254,0.6346 6.36986,-0.13332 z m 7.96589,10.09566 -2.9154,-0.14993 1.1051,-1.02416 c 1.98893,-1.84328 1.47563,-10.0099 -0.62915,-10.0099 -0.74038,0 -0.39886,-0.79344 0.45868,-1.06561 0.46981,-0.14912 1.42821,-0.75411 2.12977,-1.34444 l 1.27557,-1.07332 v 1.31573 c 0,1.62862 0.16648,1.6318 1.98187,0.0379 2.03184,-1.78398 4.66309,-1.79821 6.63699,-0.0359 l 1.39107,1.24196 0.12816,5.04087 c 0.12375,4.86716 0.16721,5.07325 1.26122,5.98042 1.4739,1.22218 1.35655,1.26614 -2.65456,0.99433 -3.11595,-0.21115 -3.29973,-0.27306 -2.23626,-0.75337 1.29025,-0.58273 1.76768,-7.68399 0.67748,-10.07672 -1.00337,-2.20215 -5.2049,-2.37168 -6.33733,-0.2557 -1.00796,1.88339 -0.51618,9.76651 0.6422,10.29431 1.10396,0.503 1.46639,1.26327 0.53244,1.11693 -0.29284,-0.0459 -1.84437,-0.1509 -3.44785,-0.23336 z m 15.57585,-0.3463 c -0.76118,-0.53315 -0.94669,-1.07569 -0.94669,-2.7687 0,-2.33629 0.6279,-2.81734 1.06713,-0.81756 0.74973,3.4135 3.88743,4.87092 5.98048,2.77787 2.238,-2.238 1.22534,-4.22865 -2.94345,-5.78614 -3.29923,-1.23261 -4.27468,-2.2187 -3.92524,-3.96806 0.89916,-4.50136 9.61804,-5.66879 9.61804,-1.28783 0,1.78771 -0.39327,1.79767 -1.49667,0.0379 -0.70625,-1.12637 -1.16715,-1.39063 -2.60985,-1.49637 -4.34523,-0.31848 -4.12764,3.9872 0.27292,5.40091 4.09086,1.31421 5.43424,3.7227 3.56495,6.39148 -1.42742,2.03793 -6.54581,2.94241 -8.58162,1.51647 z M 19.607963,137.55779 c 1.133771,-6.06878 6.558893,-11.50384 12.434545,-12.45733 l 1.586877,-0.25752 v 4.44269 4.44269 l -1.489947,0.53877 c -1.526743,0.55208 -3.295502,2.50525 -3.813751,4.21138 -0.277345,0.91305 -0.498799,0.9584 -4.679947,0.9584 h -4.388826 z"
         id="path21" />
      <path
         style="fill:#00345b"
         d="m 56.384018,151.73492 c -0.09087,-0.14718 0.40988,-0.38262 1.112768,-0.5232 3.21342,-0.64268 3.197356,-19.87089 -0.01735,-20.76553 -0.583814,-0.16247 1.526194,-0.31169 4.688907,-0.33159 7.96736,-0.0501 9.45874,0.96626 9.496249,6.47178 0.03933,5.77245 -3.372668,8.35336 -8.461611,6.40055 -0.500293,-0.19198 -0.608683,0.46086 -0.608683,3.66616 v 3.89972 l 1.384352,0.6017 c 0.761394,0.33093 1.288513,0.62037 1.171375,0.6432 -1.017514,0.19831 -8.638516,0.14372 -8.766009,-0.0628 z m 10.013456,-9.72605 c 3.185617,-1.70489 2.443027,-10.07391 -0.995568,-11.22011 -2.69172,-0.89724 -3.233561,-0.0365 -3.233561,5.13656 0,5.99578 1.191249,7.70938 4.229129,6.08355 z m 7.615386,9.46122 c -2.356096,-2.74332 -0.519084,-5.66523 4.541421,-7.2235 l 2.356068,-0.72549 v -2.4772 c 0,-4.11581 -2.787349,-4.48876 -4.74133,-0.63439 -1.254583,2.47475 -2.925854,3.39769 -2.925854,1.61577 0,-2.23548 3.540322,-4.71819 6.728104,-4.71819 3.232754,0 3.493516,0.51007 3.50133,6.84882 0.0075,6.07026 0.233673,6.77124 1.934814,5.99615 1.64331,-0.74875 1.716157,-0.3523 0.173745,0.94556 -1.849896,1.55658 -3.892582,1.29247 -4.590249,-0.5935 -0.278558,-0.75302 -0.415621,-0.72435 -2.169844,0.4538 -2.118672,1.42291 -3.866142,1.60905 -4.808205,0.51217 z m 5.794737,-2.26895 c 1.674807,-1.99039 1.628443,-5.29606 -0.06862,-4.89275 -2.770378,0.65838 -4.35408,2.92916 -3.538657,5.07389 0.601411,1.58183 2.191008,1.50201 3.607281,-0.18114 z m 46.120223,2.58135 c -2.07018,-0.6214 -2.42201,-1.18483 -2.42201,-3.87869 0,-1.38507 0.1903,-2.50357 0.42596,-2.50357 0.23427,0 0.42595,0.40231 0.42595,0.89403 0,5.4972 8.62579,7.13207 9.62166,1.82362 0.43289,-2.30749 -0.29958,-3.27752 -4.15329,-5.50035 -5.96835,-3.44253 -7.07219,-5.41638 -5.11739,-9.15067 2.32549,-4.44241 10.26902,-4.59658 10.87014,-0.21097 0.47245,3.44695 -0.4338,3.79946 -1.56679,0.60945 -1.44724,-4.07478 -6.31974,-4.2672 -7.23988,-0.28591 -0.53598,2.31909 0.53278,3.70552 5.27133,6.83815 8.34662,5.5179 3.62658,14.28926 -6.11568,11.36491 z m 16.94077,-0.3605 c -7.2629,-4.42906 -3.83963,-15.11587 4.48437,-13.99938 2.64116,0.35425 4.31608,1.88961 4.88447,4.47748 l 0.30098,1.37037 h -5.15866 c -5.79524,0 -5.91647,0.0682 -5.15443,2.89813 1.0639,3.95103 5.34433,5.49642 8.58592,3.09981 1.46079,-1.08001 1.64943,-0.57379 0.26932,0.72275 -2.30098,2.16166 -5.96628,2.8003 -8.21197,1.43084 z m 5.89313,-9.89591 c 1.21944,-1.94135 -1.53296,-4.45254 -3.76537,-3.43539 -1.0662,0.48579 -2.74406,2.81547 -2.74694,3.81408 -0.002,0.8621 5.95035,0.51595 6.51231,-0.37869 z m 7.96855,10.23407 c -1.75706,-0.13369 -2.96875,-0.27761 -2.69264,-0.31981 2.4147,-0.36912 2.73807,-10.72561 0.33491,-10.72561 -0.92065,0 -0.75818,-0.7519 0.23026,-1.06561 0.46981,-0.14912 1.42821,-0.75411 2.12977,-1.34444 l 1.27557,-1.07332 v 1.31573 c 0,1.44775 0.4513,1.67275 1.30117,0.64871 4.10916,-4.95123 8.92174,-1.51737 8.92174,6.36583 0,4.40202 0.41845,5.80197 1.73424,5.80197 0.21754,0 0.39598,0.14376 0.39653,0.31946 5.5e-4,0.17571 -1.56241,0.25603 -3.47325,0.17848 -3.03452,-0.12314 -3.34465,-0.20547 -2.45024,-0.6505 1.15247,-0.57343 1.74419,-7.82895 0.83377,-10.22353 -1.00864,-2.65292 -5.16487,-2.55524 -6.51788,0.15318 -1.54916,3.10106 -0.88816,9.45671 1.05841,10.17679 1.45852,0.53954 0.32687,0.70206 -3.08236,0.44267 z m 15.76032,-0.0933 c -1.16948,-0.58878 -1.77191,-3.81315 -0.87922,-4.70583 0.32039,-0.3204 0.45327,-0.23602 0.45327,0.28782 0,3.60514 3.89083,5.80009 6.1957,3.49522 1.77333,-1.77333 0.75513,-5.31808 -1.53765,-5.35315 -3.08746,-0.0472 -5.87061,-2.98846 -4.93859,-5.21909 1.59254,-3.81148 9.22559,-4.23093 9.22559,-0.50696 0,1.72435 -0.51627,1.9124 -1.1901,0.4335 -1.54121,-3.38259 -6.05113,-2.80332 -6.05113,0.77722 0,1.25972 1.09609,2.12459 3.85318,3.04035 3.54706,1.17814 4.85372,3.64396 3.18981,6.01953 -1.40823,2.01053 -5.90706,2.94664 -8.32086,1.73139 z m -84.339013,-0.25816 1.064887,-0.29596 0.114353,-9.61977 0.114354,-9.61977 -0.947662,-0.24782 c -1.125101,-0.29422 -0.826886,-0.68408 1.046374,-1.36791 0.75702,-0.27635 1.711839,-0.6447 2.12182,-0.81854 0.698468,-0.29617 0.745421,0.35426 0.745421,10.3262 0,11.14735 0.01666,11.24918 1.916795,11.71624 0.468551,0.11517 -0.969046,0.21253 -3.194659,0.21635 -2.237804,0.004 -3.570578,-0.12534 -2.981683,-0.28902 z m 8.778096,-0.036 c 1.749452,-0.70697 2.050122,-10.65796 0.322031,-10.65796 -0.886582,0 -0.691933,-0.7593 0.273173,-1.06561 0.469815,-0.14912 1.428213,-0.75411 2.129774,-1.34444 l 1.275569,-1.07332 v 1.38998 1.38998 l 0.95839,-0.87293 c 2.54387,-2.31701 4.3822,-2.39172 6.72696,-0.27337 l 1.72444,1.55793 0.64539,-0.92143 c 1.65109,-2.35726 4.60872,-2.78072 6.65682,-0.95309 l 1.39107,1.24133 0.21298,5.45635 c 0.20676,5.29712 0.24405,5.47203 1.27786,5.99362 0.93505,0.47176 0.62345,0.53285 -2.55573,0.50108 -2.14806,-0.0215 -3.18751,-0.1563 -2.55573,-0.33153 2.23764,-0.62063 1.64709,-10.85333 -0.68776,-11.91716 -1.45678,-0.66375 -1.62575,-0.63002 -3.11315,0.62154 l -1.31054,1.10275 v 4.82512 4.82512 l 1.17137,0.42782 c 0.93296,0.34075 0.39109,0.42603 -2.66221,0.41899 -2.18272,-0.005 -3.37502,-0.13608 -2.76871,-0.30434 1.67469,-0.46473 1.87519,-9.70984 0.24591,-11.33911 -1.3498,-1.3498 -2.40431,-1.33842 -4.04682,0.0437 l -1.31054,1.10275 v 4.59549 c 0,4.75605 0.16306,5.23835 1.91679,5.66943 0.46855,0.11517 -0.8732,0.21948 -2.98168,0.23181 -2.509996,0.0147 -3.523569,-0.10287 -2.935657,-0.34045 z M 19.719453,137.5227 c 0.784066,-5.72038 6.323884,-11.28759 12.312602,-12.37347 l 1.59733,-0.28963 v 2.16906 c 0,2.01403 -0.08372,2.18919 -1.171375,2.4506 -3.736404,0.89803 -7.345093,4.33301 -8.246304,7.84935 l -0.540331,2.10826 h -2.107144 -2.107144 z"
         id="path20" />
    </g>
  </g>
</svg>
