<svg width="2500" height="2500" viewBox="0 0 48 48" fill="none" xmlns="http://www.w3.org/2000/svg"><path fill="url(#a)" d="M23.998 5.25a18.748 18.75 0 1 0 0 37.5 18.748 18.75 0 1 0 0-37.5"/><path fill="url(#b)" d="M23.998 5.25a18.748 18.75 0 1 0 0 37.5 18.748 18.75 0 1 0 0-37.5"/><path fill="url(#c)" fill-opacity=".5" d="M23.998 5.25a18.748 18.75 0 1 0 0 37.5 18.748 18.75 0 1 0 0-37.5"/><path d="M24.001 5.25c10.354 0 18.748 8.395 18.748 18.75 0 3.445-.93 6.671-2.552 9.445l.305-.675c1.855-4.12-1.16-8.781-5.679-8.778l-7.462.006a3.36 3.36 0 0 1-3.36-3.357v-7.476c0-4.52-4.667-7.533-8.786-5.67l-.6.27a18.66 18.66 0 0 1 9.386-2.515" fill="url(#d)"/><path d="M24.001 5.25c10.354 0 18.748 8.395 18.748 18.75 0 3.445-.93 6.671-2.552 9.445l.305-.675c1.855-4.12-1.16-8.781-5.679-8.778l-7.462.006a3.36 3.36 0 0 1-3.36-3.357v-7.476c0-4.52-4.667-7.533-8.786-5.67l-.6.27a18.66 18.66 0 0 1 9.386-2.515" fill="url(#e)"/><path d="M24.001 5.25c10.354 0 18.748 8.395 18.748 18.75 0 3.445-.93 6.671-2.552 9.445l.305-.675c1.855-4.12-1.16-8.781-5.679-8.778l-7.462.006a3.36 3.36 0 0 1-3.36-3.357v-7.476c0-4.52-4.667-7.533-8.786-5.67l-.6.27a18.66 18.66 0 0 1 9.386-2.515" fill="url(#f)" fill-opacity=".8"/><path d="M24.001 5.25c10.354 0 18.748 8.395 18.748 18.75 0 3.445-.93 6.671-2.552 9.445l.305-.675c1.855-4.12-1.16-8.781-5.679-8.778l-7.462.006a3.36 3.36 0 0 1-3.36-3.357v-7.476c0-4.52-4.667-7.533-8.786-5.67l-.6.27a18.66 18.66 0 0 1 9.386-2.515" fill="url(#g)"/><path d="M24.001 5.25c10.354 0 18.748 8.395 18.748 18.75 0 3.445-.93 6.671-2.552 9.445l.305-.675c1.855-4.12-1.16-8.781-5.679-8.778l-7.462.006a3.36 3.36 0 0 1-3.36-3.357v-7.476c0-4.52-4.667-7.533-8.786-5.67l-.6.27a18.66 18.66 0 0 1 9.386-2.515" fill="url(#h)"/><rect x="4" y="23" width="16" height="16" rx="3.25" fill="url(#i)"/><rect x="4" y="23" width="16" height="16" rx="3.25" fill="url(#j)" fill-opacity=".3"/><path d="M11.22 32.594v2.977H9.16V26.43h3.18q1.708 0 2.6.745.9.746.899 2.213 0 1.51-1.007 2.359-1 .848-2.69.848zm0-4.584v3.003h.86q.765 0 1.179-.402t.414-1.154q0-.694-.408-1.071-.402-.376-1.153-.376z" fill="white"/><defs><linearGradient id="a" x1="22.096" y1="4.056" x2="-.876" y2="26.033" gradientUnits="userSpaceOnUse"><stop offset=".058" stop-color="#FF7F48"/><stop offset="1" stop-color="#E5495B"/></linearGradient><radialGradient id="b" cx="0" cy="0" r="1" gradientUnits="userSpaceOnUse" gradientTransform="translate(31.4094 16.1307) rotate(135) scale(37.6453 63.3621)"><stop offset=".152" stop-color="#AA1D2D"/><stop offset=".381" stop-color="#D12B18" stop-opacity=".44"/><stop offset=".602" stop-color="#FF3C00" stop-opacity="0"/></radialGradient><radialGradient id="c" cx="0" cy="0" r="1" gradientUnits="userSpaceOnUse" gradientTransform="translate(-1.29405 39.2412) rotate(-25.2832) scale(35.6859 64.6502)"><stop offset=".407" stop-color="#FF66FB"/><stop offset="1" stop-color="#EA3D01" stop-opacity="0"/></radialGradient><linearGradient id="d" x1="27.549" y1="28.172" x2="47.729" y2="13.216" gradientUnits="userSpaceOnUse"><stop offset=".311" stop-color="#FF6E30"/><stop offset=".635" stop-color="#FFA05C"/></linearGradient><radialGradient id="e" cx="0" cy="0" r="1" gradientUnits="userSpaceOnUse" gradientTransform="translate(20.8504 26.2421) rotate(11.8349) scale(24.2391 23.1082)"><stop offset=".786" stop-color="#FFA05C" stop-opacity="0"/><stop offset=".905" stop-color="#FFCE84"/></radialGradient><radialGradient id="f" cx="0" cy="0" r="1" gradientUnits="userSpaceOnUse" gradientTransform="translate(24.653 23.7187) rotate(-33.1977) scale(24.4755 23.4062)"><stop offset=".295" stop-color="#FF99E9"/><stop offset=".728" stop-color="#FF99E9" stop-opacity="0"/></radialGradient><radialGradient id="g" cx="0" cy="0" r="1" gradientUnits="userSpaceOnUse" gradientTransform="translate(21.9045 26.5812) rotate(-48.864) scale(26.059 23.7991)"><stop stop-color="#FD6EF9"/><stop offset=".637" stop-color="#FF9944"/><stop offset=".852" stop-color="#FCC479"/></radialGradient><radialGradient id="h" cx="0" cy="0" r="1" gradientUnits="userSpaceOnUse" gradientTransform="translate(20.199 7.72799) rotate(98.3949) scale(13.2634 29.9755)"><stop offset=".144" stop-color="#FF8D13"/><stop offset=".537" stop-color="#FF7F29" stop-opacity="0"/></radialGradient><radialGradient id="i" cx="0" cy="0" r="1" gradientUnits="userSpaceOnUse" gradientTransform="translate(3.99805 23) rotate(45) scale(22.6274)"><stop stop-color="#F8193E"/><stop offset=".939" stop-color="#920616"/></radialGradient><radialGradient id="j" cx="0" cy="0" r="1" gradientUnits="userSpaceOnUse" gradientTransform="translate(11.998 32.6) rotate(90) scale(11.2 12.75)"><stop offset=".576" stop-color="#FFB055" stop-opacity="0"/><stop offset=".974" stop-color="#FFF2BE"/></radialGradient></defs></svg>