<?xml version="1.0" encoding="UTF-8" standalone="no"?>
<!-- Created with Inkscape (http://www.inkscape.org/) -->

<svg
   width="210mm"
   height="297mm"
   viewBox="0 0 210 297"
   version="1.1"
   id="svg1"
   xml:space="preserve"
   inkscape:version="1.4 (86a8ad7, 2024-10-11)"
   sodipodi:docname="prusa.svg"
   xmlns:inkscape="http://www.inkscape.org/namespaces/inkscape"
   xmlns:sodipodi="http://sodipodi.sourceforge.net/DTD/sodipodi-0.dtd"
   xmlns="http://www.w3.org/2000/svg"
   xmlns:svg="http://www.w3.org/2000/svg"><sodipodi:namedview
     id="namedview1"
     pagecolor="#ffffff"
     bordercolor="#000000"
     borderopacity="0.25"
     inkscape:showpageshadow="2"
     inkscape:pageopacity="0.0"
     inkscape:pagecheckerboard="0"
     inkscape:deskcolor="#d1d1d1"
     inkscape:document-units="mm"
     inkscape:zoom="0.68862935"
     inkscape:cx="397.16576"
     inkscape:cy="561.25984"
     inkscape:window-width="1920"
     inkscape:window-height="991"
     inkscape:window-x="-9"
     inkscape:window-y="-9"
     inkscape:window-maximized="1"
     inkscape:current-layer="layer1" /><defs
     id="defs1" /><g
     inkscape:label="Layer 1"
     inkscape:groupmode="layer"
     id="layer1"><g
       id="g1"
       transform="translate(4.994819,-4.9948249)"><path
         style="fill:#fdfdfd"
         d="M -27.543591,152.10562 V 25.105616 h 127 127.000001 v 127.000004 127 h -127.000001 -127 z"
         id="path3" /><path
         style="fill:#ea6a22"
         d="m 85.565784,242.33639 c -1.018645,-0.12314 -3.16177,-0.35404 -4.7625,-0.51314 -2.854099,-0.28366 -7.17257,-1.15529 -10.847916,-2.18952 -1.018646,-0.28664 -2.506927,-0.70145 -3.307292,-0.92179 -3.039229,-0.83672 -10.833496,-4.29862 -13.983812,-6.21105 -0.924378,-0.56115 -1.739436,-1.02027 -1.81124,-1.02027 -0.0718,0 -0.503649,-0.2679 -0.959657,-0.59532 -0.456008,-0.32742 -1.020195,-0.71437 -1.253749,-0.85989 -1.026269,-0.63944 -3.584003,-2.37225 -3.880292,-2.62881 -0.178864,-0.15489 -0.937531,-0.75786 -1.685926,-1.33994 -2.861993,-2.22599 -6.323241,-5.48108 -6.323241,-5.94663 0,-0.62149 107.337231,-107.9565 107.958741,-107.9565 0.2507,0 1.18418,0.80367 2.07438,1.78594 0.8902,0.98227 1.89946,2.08359 2.24279,2.4474 0.34333,0.3638 1.31522,1.61395 2.15975,2.77812 0.84454,1.16417 1.84582,2.53339 2.22508,3.04271 1.90917,2.56389 3.93796,6.02742 5.73432,9.78958 0.79905,1.67349 1.56238,3.24247 1.69627,3.48662 0.38949,0.71021 2.02012,4.97873 2.50889,6.56755 1.32928,4.32102 2.14618,8.00506 3.05078,13.75833 0.68877,4.38057 0.90196,14.04927 0.38795,17.59479 -0.68424,4.71978 -1.565,9.53507 -1.9943,10.90324 -0.28352,0.90356 -0.51548,1.8864 -0.51548,2.18409 0,0.52385 -1.73877,5.59437 -2.52411,7.36071 -0.21247,0.47788 -0.38631,0.97353 -0.38631,1.10144 0,0.26561 -3.07276,6.61916 -4.16759,8.61732 -2.83967,5.18265 -7.72709,11.56086 -12.47187,16.2761 -3.78205,3.7585 -4.31458,4.23261 -7.43762,6.62167 -2.39392,1.83129 -7.04451,5.01148 -7.32862,5.01148 -0.0937,0 -0.36785,0.17874 -0.60925,0.3972 -0.5771,0.52227 -9.08949,4.73059 -10.45068,5.16656 -0.58208,0.18644 -1.56865,0.56131 -2.19238,0.83305 -0.62373,0.27173 -1.80253,0.66818 -2.61955,0.88099 -0.81702,0.2128 -2.09263,0.61267 -2.83469,0.88858 -0.74207,0.27592 -1.88499,0.58549 -2.53983,0.68795 -0.65485,0.10245 -1.87563,0.35816 -2.71286,0.56824 -4.43868,1.11374 -16.236671,1.94106 -20.438186,1.4332 z M 52.479141,190.40405 c -3.112863,-3.34883 -8.23253,-10.09008 -9.198946,-12.11259 -0.102225,-0.21393 -0.418373,-0.74616 -0.702552,-1.18272 -1.09813,-1.68697 -4.261401,-8.171 -5.227684,-10.71562 -2.500471,-6.58479 -3.819528,-11.91493 -4.845287,-19.57917 -0.309874,-2.31531 -0.293081,-15.06832 0.02265,-17.19792 0.11866,-0.80036 0.350394,-2.40771 0.514965,-3.57187 0.164572,-1.16417 0.406432,-2.47386 0.537467,-2.91042 0.131036,-0.43656 0.489287,-1.92098 0.796114,-3.2987 0.50826,-2.2822 2.103789,-7.43977 2.908358,-9.4013 0.179066,-0.43656 0.416975,-1.03187 0.528686,-1.32292 0.356297,-0.92826 4.247763,-8.70007 4.769317,-9.524996 0.276013,-0.436563 0.680647,-1.108666 0.899187,-1.493564 0.484655,-0.853586 2.498217,-3.807764 3.941326,-5.782478 3.273152,-4.478897 10.692829,-11.951573 14.580227,-14.684375 0.414006,-0.291041 1.138224,-0.856588 1.609374,-1.256771 0.47115,-0.400182 0.93872,-0.727604 1.039044,-0.727604 0.100324,0 0.33869,-0.148828 0.529702,-0.330729 0.862722,-0.821573 6.770927,-4.282941 9.801366,-5.742207 5.272383,-2.538843 8.834731,-3.880441 13.361458,-5.03199 8.974102,-2.282911 13.274337,-2.784438 22.092707,-2.576621 9.31529,0.219527 14.02526,1.045895 23.68021,4.154712 1.41671,0.45617 5.74009,2.199404 6.58853,2.656563 0.23261,0.125338 1.50291,0.758685 2.82288,1.407439 5.94865,2.923693 12.48301,7.554048 17.52021,12.415105 l 1.66391,1.60573 -1.13474,1.164878 c -5.1922,5.33006 -106.978913,106.958368 -107.125083,106.958368 -0.104679,0 -0.992706,-0.8632 -1.973392,-1.91823 z"
         id="path2" /><path
         style="fill:#313131"
         d="m 53.762786,191.69852 c -0.116372,-0.19754 -1.122799,-1.3584 -2.236504,-2.57968 -1.113706,-1.22129 -2.469834,-2.80894 -3.013619,-3.52812 -0.543785,-0.71919 -1.093155,-1.43356 -1.220822,-1.5875 -0.82055,-0.98943 -3.221562,-4.57124 -3.936205,-5.872 -0.468861,-0.85341 -1.002416,-1.73024 -1.185678,-1.94852 -0.527567,-0.62838 -2.646684,-5.02808 -4.051464,-8.41162 -1.56874,-3.77845 -1.728223,-4.23111 -2.722758,-7.72796 -0.434567,-1.52797 -0.909674,-3.16247 -1.055792,-3.63222 -0.28704,-0.92279 -0.454603,-1.81434 -1.331302,-7.08341 -0.77442,-4.65437 -0.852285,-16.57828 -0.139086,-21.29896 1.092012,-7.22804 3.174097,-14.84375 5.087415,-18.60842 0.209379,-0.41197 0.380688,-0.87573 0.380688,-1.03057 0,-0.98016 5.084966,-10.241045 7.521578,-13.698508 4.019895,-5.704082 9.925259,-12.052915 14.655859,-15.756454 3.26635,-2.557193 3.908082,-3.023187 6.000688,-4.357402 2.16481,-1.380251 2.374237,-1.510182 4.22331,-2.620195 1.107664,-0.664939 4.492378,-2.365268 7.021482,-3.527278 11.14706,-5.121574 25.720324,-7.468681 38.177574,-6.148714 4.31226,0.456926 7.09639,0.932877 11.03493,1.886433 3.06331,0.741658 8.91588,2.631143 10.9802,3.54493 0.72761,0.322078 1.8587,0.820926 2.51355,1.108551 2.0577,0.9038 5.2099,2.542457 7.00871,3.643449 0.95252,0.583007 1.79432,1.060014 1.87066,1.060014 0.0763,0 0.2826,0.120191 0.45836,0.267091 0.17575,0.1469 1.153,0.854585 2.17164,1.572633 2.25773,1.591484 4.93457,3.591775 5.73119,4.282681 2.3456,2.034327 4.71985,4.313741 4.71985,4.531319 0,0.444297 -107.588131,107.87961 -108.03306,107.87961 -0.230895,0 -0.515023,-0.16163 -0.631394,-0.35918 z"
         id="path1" /></g></g></svg>
