<?xml version="1.0" encoding="UTF-8" standalone="no"?>
<!-- Created with Inkscape (http://www.inkscape.org/) -->

<svg
   width="295.50983mm"
   height="310.48706mm"
   viewBox="0 0 295.50983 310.48706"
   version="1.1"
   id="svg1"
   xml:space="preserve"
   inkscape:version="1.4 (86a8ad7, 2024-10-11)"
   sodipodi:docname="wafer.svg"
   xmlns:inkscape="http://www.inkscape.org/namespaces/inkscape"
   xmlns:sodipodi="http://sodipodi.sourceforge.net/DTD/sodipodi-0.dtd"
   xmlns="http://www.w3.org/2000/svg"
   xmlns:svg="http://www.w3.org/2000/svg"><sodipodi:namedview
     id="namedview1"
     pagecolor="#ffffff"
     bordercolor="#000000"
     borderopacity="0.25"
     inkscape:showpageshadow="2"
     inkscape:pageopacity="0.0"
     inkscape:pagecheckerboard="0"
     inkscape:deskcolor="#d1d1d1"
     inkscape:document-units="mm"
     inkscape:zoom="0.24346724"
     inkscape:cx="117.05887"
     inkscape:cy="548.32839"
     inkscape:window-width="1920"
     inkscape:window-height="991"
     inkscape:window-x="-9"
     inkscape:window-y="-9"
     inkscape:window-maximized="1"
     inkscape:current-layer="layer1" /><defs
     id="defs1" /><g
     inkscape:label="Layer 1"
     inkscape:groupmode="layer"
     id="layer1"
     transform="translate(48.747208,5.6866732)"><path
       style="fill:#000000"
       d="m 89.377248,304.29871 c -1.704463,-0.54115 -3.982644,-1.86492 -5.291667,-3.0748 -0.776877,-0.71804 -5.547191,-4.43555 -16.271875,-12.68069 -1.018646,-0.78314 -5.066771,-3.87718 -8.995833,-6.87564 -10.397058,-7.93453 -9.852526,-7.47387 -10.291639,-8.70648 -0.283032,-0.79449 -0.432528,-2.89806 -0.547741,-7.70732 -0.225613,-9.41759 -0.08651,-8.79338 -2.306496,-10.34998 -1.013196,-0.71042 -2.362018,-1.67863 -2.997381,-2.15158 -0.635364,-0.47294 -1.23292,-0.85989 -1.327903,-0.85989 -0.09498,0 -0.131891,2.23749 -0.08202,4.97221 0.08099,4.4412 0.03969,5.05006 -0.386718,5.70117 -0.612611,0.93543 -1.850271,1.68412 -3.14585,1.903 -1.395558,0.23578 -2.211935,-0.2222 -9.286226,-5.20945 -8.422777,-5.93791 -8.206427,-5.7863 -11.82907,-8.2897 -1.81901,-1.25701 -4.021666,-2.79038 -4.894791,-3.4075 -0.873125,-0.61711 -2.5457539,-1.78252 -3.7169527,-2.5898 -2.0162105,-1.38972 -3.0148488,-2.08641 -6.2710685,-4.37494 -0.76398436,-0.53695 -2.3415625,-1.62271 -3.5057292,-2.4128 -1.1641667,-0.7901 -2.9126831,-2.08443 -3.885592,-2.8763 -1.6113438,-1.3115 -1.8399084,-1.62565 -2.5657444,-3.52642 -0.4382505,-1.14766 -0.9195561,-2.54247 -1.069568,-3.09957 -0.1517221,-0.56345 -0.3972544,-7.21713 -0.5533373,-14.99488 -0.2797249,-13.93897 -0.2823879,-13.98348 -0.8656729,-14.47344 -0.321797,-0.27031 -1.574644,-1.17864 -2.784104,-2.01851 -1.209461,-0.83986 -3.02156,-2.12234 -4.026888,-2.84995 -1.005328,-0.7276 -5.12643,-3.64463 -9.158005,-6.48229 -4.031575,-2.83765 -8.232131,-5.87375 -9.33457,-6.74687 -2.396773,-1.89823 -4.336436,-4.62191 -5.370047,-7.54063 -1.370254,-3.86933 -1.474788,-5.49276 -1.644045,-25.53229 -0.08604,-10.18645 -0.289699,-33.8163 -0.452583,-52.510757 l -0.296155,-33.989929 -1.525523,-1.502022 c -4.178837,-4.114459 -4.601997,-9.925546 -1.009045,-13.856808 1.460697,-1.598234 3.560693,-2.745676 6.573171,-3.591594 1.091406,-0.306472 3.093639,-0.904798 4.449406,-1.329614 1.355768,-0.424815 2.628823,-0.772392 2.829011,-0.772392 0.200189,0 1.687401,0.773907 3.304916,1.719792 1.617515,0.945885 2.9955,1.719792 3.062188,1.719792 0.06669,0 1.577868,0.880095 3.358177,1.955766 3.283693,1.984023 10.937216,6.43827 12.629636,7.350276 0.5093224,0.274462 1.34276,0.745026 1.8520829,1.045697 5.2098553,3.075561 11.8744333,6.846176 12.1006455,6.846176 0.155824,0 0.7075374,-0.625078 1.2260298,-1.389062 0.5184923,-0.763984 1.31018,-1.924844 1.7593059,-2.579687 C 10.016894,52.515267 17.734613,44.53284 22.702247,40.744405 c 0.654844,-0.499399 1.333676,-1.044257 1.508516,-1.210795 0.713278,-0.679412 6.745312,-4.625436 9.339401,-6.109632 5.304966,-3.03521 12.515751,-6.188251 16.536459,-7.230854 0.436562,-0.113204 1.74625,-0.462151 2.910416,-0.775438 2.677242,-0.720468 7.166634,-1.523868 10.583334,-1.893943 3.907354,-0.423219 14.456107,-0.168784 17.594792,0.424384 5.805564,1.097173 12.435416,2.974759 12.435416,3.521733 0,0.208816 -0.857915,0.200399 -4.828646,-0.04738 -2.64269,-0.164905 -10.359136,0.341654 -13.956771,0.916216 -9.887,1.579007 -18.999355,4.950389 -28.045833,10.376377 -10.512181,6.305101 -20.058064,15.599039 -27.613593,26.884786 -1.110857,1.659296 -2.019741,3.104242 -2.019741,3.210992 0,0.262584 3.573215,2.371064 4.018212,2.371064 0.194603,0 0.998678,-0.982265 1.786833,-2.182812 8.939325,-13.616698 22.79813,-25.442852 35.999122,-30.719182 2.48295,-0.992415 6.268063,-2.36335 7.540625,-2.731148 7.696186,-2.224366 11.138124,-2.764231 18.653126,-2.925726 8.906293,-0.191394 13.048061,0.331825 20.701165,2.615121 0.9809,0.292651 1.8326,0.611825 1.89265,0.709276 0.0601,0.09745 -2.94515,0.18451 -6.67825,0.193466 -7.282894,0.01747 -10.583541,0.384055 -16.601232,1.84379 -18.658852,4.52615 -35.43572,15.913667 -47.544101,32.271174 -2.949297,3.984277 -4.782326,6.910318 -4.610121,7.359077 0.07298,0.190183 0.971839,0.831618 1.997463,1.42541 2.130329,1.23337 1.793547,1.369069 3.74371,-1.508446 6.649571,-9.811612 14.209984,-17.506471 23.230292,-23.643395 1.206169,-0.820611 2.241997,-1.49202 2.30184,-1.49202 0.05984,0 0.655211,-0.368765 1.323041,-0.819478 1.119336,-0.755431 8.908688,-4.736772 9.267325,-4.736772 0.08653,0 0.656816,-0.2246 1.267296,-0.49911 4.026789,-1.810702 9.615562,-3.376074 16.323505,-4.572085 2.883796,-0.514175 4.255921,-0.591297 10.715622,-0.602284 8.01255,-0.01363 10.45321,0.264969 16.53646,1.887602 1.38245,0.368751 2.78143,0.730462 3.10886,0.803803 1.63489,0.366207 -0.0174,0.543492 -6.35,0.681341 -9.08053,0.197664 -14.29702,1.093155 -22.663392,3.890521 -4.413517,1.475696 -12.438499,5.204249 -14.882144,6.914515 -0.386266,0.270342 -0.77804,0.49153 -0.870609,0.49153 -0.09257,0 -0.490909,0.224786 -0.885198,0.499524 -0.39429,0.274738 -1.431266,0.953293 -2.304391,1.5079 -6.114726,3.884059 -13.80633,10.760544 -19.210726,17.174867 -3.035856,3.60317 -7.909066,10.489106 -7.909066,11.175657 0,0.262293 3.567938,2.450384 3.995638,2.450384 0.121789,0 0.636312,-0.648557 1.143384,-1.441238 5.524836,-8.636709 14.879646,-18.264848 23.350766,-24.03303 4.444498,-3.026361 11.263086,-6.769188 14.523447,-7.97214 0.57194,-0.211025 1.694734,-0.636404 2.495099,-0.945286 9.911242,-3.825014 20.271572,-5.461841 30.249752,-4.779155 5.21139,0.356552 8.27707,0.89722 13.93567,2.457713 3.61527,0.996997 3.16543,1.126622 -3.91232,1.127374 -6.6197,7.03e-4 -8.64716,0.19109 -14.47623,1.35937 -21.415861,4.292237 -41.469544,17.994671 -54.768747,37.422811 -2.276525,3.325661 -2.290167,2.924016 0.147853,4.353329 1.16875,0.68519 2.161121,1.201568 2.205269,1.147505 0.04415,-0.05406 1.187472,-1.646108 2.54072,-3.537879 4.197674,-5.868132 9.504014,-11.7531 14.6191,-16.213236 4.834193,-4.215211 11.485268,-8.652652 17.131845,-11.429971 9.25466,-4.55198 16.44815,-6.627083 27.64896,-7.975889 3.09748,-0.372999 11.63269,-0.144316 15.21355,0.407615 4.54428,0.700428 10.58333,2.15459 10.58333,2.548395 0,0.09757 -2.82774,0.248249 -6.28386,0.334854 -12.30241,0.308277 -21.94095,2.702114 -33.30556,8.271797 -14.574881,7.14301 -27.221463,18.149506 -36.269098,31.565506 l -1.495394,2.21739 0.773085,0.56073 c 1.341434,0.97296 1.691576,1.4498 1.866127,2.54138 0.199849,1.24979 0.449319,1.32659 1.086329,0.33445 1.012571,-1.57707 4.736881,-6.65435 6.259026,-8.532809 2.510951,-3.098728 3.453194,-4.123029 7.157546,-7.780877 14.683109,-14.498785 33.627429,-23.246095 52.463119,-24.224214 11.00517,-0.571488 20.3703,0.94123 30.00367,4.846392 2.52062,1.021807 7.348,3.393921 8.41404,4.134553 0.37625,0.261403 1.39847,0.928282 2.27159,1.481952 5.82521,3.693907 11.61533,9.45314 15.52564,15.442831 0.99252,1.520299 1.80457,2.859752 1.80457,2.976563 0,0.116811 0.0893,0.212228 0.19844,0.212037 0.36487,-6.38e-4 2.18394,-4.919568 5.64678,-15.269389 l 3.43363,-10.262554 0.40263,-4.966005 c 0.55189,-6.8071 0.53411,-6.952211 -0.95023,-7.757031 -8.71564,-4.725686 -90.72027,-46.002175 -90.94558,-45.776861 -0.043,0.04296 -0.0923,1.49535 -0.10973,3.227542 -0.0305,3.042602 -0.0717,3.257147 -1.21294,6.32444 -1.13708,3.056074 -4.92287,11.244791 -5.19867,11.244791 -0.0737,0 -0.52784,-0.228876 -1.0091,-0.508615 -0.48126,-0.279738 -1.88705,-1.048401 -3.12398,-1.708139 -2.47061,-1.317745 -2.59603,-1.560925 -1.75055,-3.394028 0.22109,-0.47933 0.95787,-2.240728 1.63729,-3.914217 0.67943,-1.673489 1.59683,-3.929149 2.03868,-5.012577 l 0.80336,-1.969868 -0.17138,-8.4811727 c -0.0943,-4.664645 -0.0832,-8.6127472 0.0247,-8.7735605 0.2316,-0.3454071 1.16697,-0.6600922 4.56167,-1.5346741 1.38245,-0.356162 3.94203,-1.0178318 5.68795,-1.4703774 4.20505,-1.0899538 7.48027,-1.4100996 11.14019,-1.0889291 4.63419,0.4066671 6.33073,0.9513667 13.11221,4.2098611 2.13338,1.02509136 4.69323,2.24359673 5.68854,2.7077897 3.33439,1.5550954 6.54117,3.0799185 10.74749,5.1104427 2.29644,1.1085613 4.21714,2.0155661 4.26822,2.0155661 0.0511,0 2.31714,1.0715624 5.03566,2.3812502 2.71853,1.309687 4.98416,2.38125 5.03474,2.38125 0.0506,0 2.09689,0.964684 4.54734,2.143742 2.45045,1.179059 5.34834,2.56287 6.43975,3.075137 1.0914,0.512267 3.23453,1.52848 4.7625,2.258251 3.22666,1.541084 7.3834,3.511049 10.58333,5.01567 1.23693,0.581608 3.61818,1.713818 5.29167,2.516022 1.67349,0.802205 3.75708,1.789199 4.6302,2.19332 0.87313,0.404121 3.31391,1.560871 5.42396,2.570557 2.11005,1.009685 7.11068,3.364364 11.1125,5.232621 11.0723,5.169118 11.85261,5.597001 13.02367,7.141553 1.58165,2.086089 2.13024,3.830942 1.9965,6.349999 -0.25124,4.732079 -2.749,7.394342 -8.29661,8.843001 l -1.08164,0.282454 -0.17342,8.931022 c -0.0954,4.912062 -0.2919,19.706178 -0.43672,32.875808 -0.24056,21.87561 -0.9408,74.57075 -1.15674,87.04792 -0.12657,7.31308 -0.42177,8.02938 -6.57506,15.95425 -5.54569,7.14232 -6.79866,8.7701 -9.10376,11.827 -1.15218,1.52796 -3.70198,4.86171 -5.66621,7.40833 -1.96423,2.54661 -3.78091,4.9577 -4.03708,5.35797 -0.52574,0.8215 -0.555,1.27359 -0.99729,15.41182 -0.15478,4.94771 -0.40283,9.70373 -0.55122,10.56895 -0.49775,2.90211 -2.44337,5.82838 -4.97503,7.48256 -2.20094,1.4381 -11.16674,4.45662 -12.49639,4.20718 -0.84136,-0.15784 -2.97636,-1.45358 -6.50269,-3.94649 -3.38174,-2.39071 -4.3432,-3.06039 -7.20989,-5.02189 -1.67349,-1.14506 -4.38764,-2.98105 -6.03144,-4.07997 -3.4677,-2.31825 -3.4822,-1.82189 0.14315,-4.89976 l 2.18343,-1.8537 2.44774,1.6061 c 3.13555,2.05742 8.99587,5.85798 9.92978,6.4397 l 0.72005,0.44851 0.0393,-32.67953 c 0.0295,-24.50453 -0.0367,-32.65213 -0.26458,-32.57 -0.16713,0.0602 -18.38944,6.22982 -40.49404,13.71018 l -40.19016,13.60066 0.16407,40.13361 c 0.11414,27.92191 0.079,40.37773 -0.11562,40.93592 -0.35547,1.01969 -1.57134,1.60243 -7.44552,3.56845 -4.946865,1.65566 -6.519503,1.82222 -9.192392,0.97361 z m 6.689582,-8.39373 2.631173,-0.96651 -0.09632,-39.97776 -0.09631,-39.97776 0.742229,-1.26269 c 0.408227,-0.69448 1.200818,-1.56618 1.761318,-1.9371 1.42705,-0.94437 4.51869,-1.95536 5.03056,-1.64502 0.28732,0.17419 11.97556,-3.68697 40.62006,-13.41866 22.11917,-7.51478 41.88354,-14.24563 43.92083,-14.95746 2.0373,-0.71182 3.7957,-1.29714 3.90756,-1.30071 0.11187,-0.004 0.12199,17.67855 0.0225,39.29359 l -0.18092,39.30007 2.2202,-0.81861 c 2.87957,-1.06174 3.91563,-1.71645 4.10739,-2.59557 0.0847,-0.38817 0.19904,-0.85259 0.25414,-1.03206 0.0551,-0.17947 0.28873,-5.83494 0.51917,-12.56771 0.45148,-13.19126 0.59447,-14.38594 1.9207,-16.04704 1.04958,-1.31459 10.70891,-13.7788 12.35315,-15.94026 0.73396,-0.96484 3.43614,-4.48878 6.00485,-7.83099 4.91917,-6.40044 5.6823,-7.59531 5.90266,-9.24206 0.18236,-1.36268 0.6272,-29.81939 0.93616,-59.88625 0.13832,-13.46068 0.39226,-34.625157 0.56432,-47.032176 0.17205,-12.407018 0.25974,-22.611301 0.19485,-22.676186 -0.0649,-0.06488 -1.64414,0.352953 -3.50947,0.928528 -1.86532,0.575575 -3.55737,1.0465 -3.7601,1.0465 -0.29618,0 -0.36859,0.676097 -0.36859,3.441351 0,3.316443 -0.0344,3.530117 -0.94776,5.886979 -1.97687,5.101176 -3.18642,8.276529 -5.71886,15.013336 -0.73849,1.964531 -1.55052,4.107656 -1.80452,4.7625 -0.254,0.654843 -1.08542,2.857499 -1.84761,4.894791 -0.7622,2.037287 -1.59563,4.239947 -1.85209,4.894787 -0.25645,0.65485 -1.06833,2.79797 -1.80418,4.7625 -0.73585,1.96454 -1.83028,4.82204 -2.43207,6.35 -0.60179,1.52797 -1.20272,3.13532 -1.33539,3.57188 -0.13268,0.43656 -0.35886,1.03187 -0.50263,1.32292 -0.14377,0.29104 -0.4275,1.00541 -0.6305,1.5875 -0.4591,1.3164 -2.59073,6.99077 -4.49377,11.96232 -0.79165,2.06813 -1.77244,4.32857 -2.17952,5.02321 -1.17463,2.00435 -2.95289,3.72265 -4.72232,4.56307 -0.88609,0.42087 -13.33873,4.662 -27.67253,9.42473 -14.33381,4.76273 -34.60103,11.49955 -45.03828,14.97069 -10.43725,3.47115 -19.366933,6.30857 -19.843748,6.30537 -1.041022,-0.007 -2.743728,-0.75911 -3.621258,-1.59962 -0.632119,-0.60544 -3.197764,-5.75199 -7.113637,-14.26957 -0.434861,-0.94588 -1.32397,-2.85088 -1.975797,-4.23333 -1.38178,-2.93059 -2.472541,-5.26882 -3.579348,-7.67292 -0.435469,-0.94588 -1.325075,-2.85088 -1.976902,-4.23333 -1.157618,-2.45517 -1.993969,-4.2451 -3.801546,-8.13594 -0.490136,-1.05502 -1.322758,-2.84096 -1.850272,-3.96875 -2.085136,-4.45787 -1.951301,-3.74409 -1.951301,-10.40683 0,-3.33491 -0.0893,-6.06624 -0.198437,-6.0696 -0.109141,-0.003 -1.723135,0.49527 -3.586653,1.10808 l -3.388216,1.11422 0.09612,63.38409 c 0.0747,49.26283 0.16868,63.60332 0.42182,64.36807 0.490323,1.4813 1.301665,2.29927 6.195069,6.24571 5.129585,4.13691 9.702415,7.83672 12.920689,10.45395 3.20426,2.60584 4.609094,4.0009 5.126139,5.09049 0.486904,1.02607 0.947662,9.29596 1.340347,24.05713 0.10482,3.9402 0.297091,7.02046 0.450044,7.20989 0.400092,0.49551 0.843574,0.41966 3.716829,-0.63578 z m -13.473556,-7.03713 c -0.07487,-0.47295 -0.33662,-2.27945 -0.581673,-4.01446 l -0.445552,-3.15455 -13.88763,-9.88317 c -10.59683,-7.54127 -13.904445,-9.7718 -13.95859,-9.41316 -0.03903,0.25852 0.0205,1.69776 0.132291,3.19833 l 0.203253,2.7283 14.155208,10.68283 c 7.785365,5.87556 14.23702,10.69025 14.337012,10.6993 0.09999,0.009 0.120548,-0.37048 0.04568,-0.84342 z m 0.672184,-16.27188 c -0.01451,-1.56435 -0.103803,-3.09983 -0.198438,-3.41219 -0.166338,-0.54901 -2.728451,-2.76803 -11.56397,-10.01541 -4.900004,-4.01926 -7.95332,-6.534 -11.163823,-9.19464 -1.273307,-1.05523 -3.981979,-3.09878 -6.019271,-4.54122 -2.037292,-1.44245 -4.716198,-3.36144 -5.953125,-4.26443 -2.110976,-1.54107 -17.344468,-12.41801 -20.240625,-14.45212 -1.145398,-0.80446 -4.892458,-3.48091 -11.244792,-8.03192 -0.945886,-0.67766 -2.969948,-2.10897 -4.497917,-3.18068 -4.4039039,-3.08888 -5.5867629,-3.93262 -6.1079684,-4.35686 -0.2681708,-0.21829 -1.0574123,-0.79222 -1.7538699,-1.27542 -0.6964577,-0.4832 -2.4249226,-1.70359 -3.84103322,-2.71198 -1.41611059,-1.00839 -2.63650118,-1.83344 -2.71197918,-1.83344 -0.1910472,0 -0.1714745,2.50519 0.035007,4.4807 0.1679955,1.60729 0.2054847,1.67242 1.52135416,2.6428 1.37170073,1.01155 19.21182354,13.72238 20.66347754,14.72243 1.033965,0.7123 8.648037,6.16482 10.186679,7.29479 1.490904,1.09491 16.288527,11.68486 18.25625,13.06512 0.800365,0.56142 2.110052,1.47271 2.910417,2.0251 0.800364,0.55239 3.422823,2.64336 5.827686,4.6466 2.404862,2.00324 7.391529,6.14256 11.08148,9.1985 3.689952,3.05594 8.449368,7.00927 10.576481,8.78518 2.127113,1.77591 3.956775,3.23442 4.065916,3.24114 0.10914,0.007 0.186569,-1.2677 0.172064,-2.83205 z M 33.473933,249.07313 c -0.108543,-2.67891 -0.264172,-3.97791 -0.503459,-4.20224 -0.190494,-0.17859 -8.263681,-5.76173 -17.940416,-12.40699 l -17.594064,-12.08228 -0.1775681,0.87254 c -0.097662,0.4799 -0.2170524,2.19026 -0.265311,3.80079 l -0.087743,2.92826 1.0583334,0.68264 c 0.5820833,0.37546 2.07036459,1.38406 3.3072917,2.24134 1.2369271,0.85727 3.4395834,2.37839 4.8947917,3.38025 1.4552084,1.00186 3.3602084,2.31614 4.2333333,2.92062 0.873125,0.60448 2.54,1.75444 3.704167,2.55548 4.970141,3.41984 7.474846,5.14928 13.096875,9.04307 3.274219,2.26771 6.060619,4.12782 6.192001,4.13358 0.138549,0.006 0.172892,-1.61807 0.08177,-3.86706 z m 24.593801,-34.7954 c -0.09675,-13.12095 -0.175903,-40.24936 -0.175903,-60.28536 v -36.42909 l -2.844271,-0.15225 c -4.884284,-0.26143 -7.246882,-1.13918 -13.771143,-5.11623 -2.959478,-1.80403 -8.229198,-4.98802 -14.038018,-8.48183 -1.65246,-0.9939 -3.319335,-1.99786 -3.704167,-2.23102 C 16.683948,97.431559 -0.7955411,86.922696 -1.7177959,86.400152 -2.3762786,86.027059 -26.10075,71.795977 -27.568587,70.8936 c -3.982783,-2.44848 -8.005162,-4.759295 -8.107044,-4.657413 -0.105633,0.105633 -0.07814,18.272869 0.04812,31.800939 0.02581,2.764894 0.178129,19.671774 0.338496,37.570834 0.282438,31.52379 0.308419,32.5982 0.828978,34.28126 0.827635,2.6759 1.853493,3.98913 4.738444,6.0658 2.700271,1.94373 17.334619,12.34691 19.350925,13.75607 0.6548439,0.45765 3.036094,2.15579 5.2916669,3.77364 4.50369399,3.23034 9.389366,6.69127 14.353646,10.1679 0.7639841,0.53504 3.4726561,2.45864 6.0192711,4.27466 2.546614,1.81603 5.225521,3.72176 5.953125,4.23496 0.727604,0.5132 4.001823,2.8381 7.276042,5.16645 3.274218,2.32835 6.607968,4.69289 7.408333,5.25453 0.800365,0.56165 3.385218,2.4151 5.744119,4.11878 2.358901,1.70369 5.390903,3.87152 6.737784,4.8174 1.34688,0.94589 3.999496,2.82112 5.894702,4.16719 1.895205,1.34607 3.556031,2.44739 3.690723,2.44739 0.149628,0 0.176467,-9.2804 0.06899,-23.85626 z M 118.13285,159.6937 c 9.43228,-3.12394 17.50679,-5.80554 17.94336,-5.95912 0.43656,-0.15357 11.99334,-4.01603 25.68172,-8.58322 13.68839,-4.5672 25.43435,-8.56082 26.10213,-8.87472 0.66779,-0.31389 1.40457,-0.78112 1.6373,-1.03828 0.23273,-0.25717 1.5662,-3.73202 2.96327,-7.7219 1.39707,-3.98989 2.75072,-7.73058 3.00812,-8.31267 0.2574,-0.58208 0.67734,-1.71318 0.93319,-2.51354 0.50885,-1.59177 1.7562,-4.88965 3.25237,-8.59896 0.52828,-1.30968 0.95586,-2.79797 0.9502,-3.30729 -0.0124,-1.11243 -2.72357,-5.894199 -5.35207,-9.439506 -3.62658,-4.891513 -9.61818,-10.26311 -14.72623,-13.202379 -23.38496,-13.456138 -56.09176,-5.491903 -80.60057,19.626555 -5.489553,5.6261 -9.381693,10.73409 -13.494805,17.71039 -1.647307,2.79402 -3.932754,7.31938 -3.932754,7.78715 0,0.12455 0.579877,1.45707 1.288616,2.96118 3.046519,6.4654 3.473884,7.41164 3.473884,7.69156 0,0.38443 6.676365,14.56033 7.758896,16.47442 0.246901,0.43657 1.056042,2.10344 1.79809,3.70417 3.029106,6.53431 3.414873,7.27604 3.784253,7.27604 0.20978,0 8.09874,-2.55595 17.53103,-5.67988 z M 60.669956,108.77541 c 3.351558,-0.89406 5.688542,-1.65845 5.688542,-1.86065 0,-0.10942 -11.519297,-6.90779 -25.598438,-15.107491 C 26.680919,83.607573 11.351622,74.678451 6.6949554,71.964776 2.0382887,69.251101 -2.3074926,66.731256 -2.9623364,66.36512 -3.6171802,65.998985 -4.5312411,65.474466 -4.993583,65.199524 -5.4559249,64.924581 -7.4799875,63.75775 -9.4914998,62.606566 -11.503012,61.455382 -17.518869,57.971167 -22.860071,54.863867 c -5.341201,-3.1073 -9.892795,-5.719292 -10.114651,-5.804427 -0.420952,-0.161534 -5.569396,1.288842 -6.827011,1.923248 -0.398074,0.200809 -0.794716,0.647774 -0.881427,0.993257 -0.305743,1.218178 0.537175,2.179851 3.397735,3.876426 1.487959,0.882496 3.241161,1.93726 3.896005,2.343919 0.654844,0.406659 6.846094,4.108337 13.758333,8.225951 6.91224,4.117613 13.1034901,7.818566 13.7583339,8.22434 0.9533424,0.590739 4.2545946,2.583692 7.628222,4.60513 0.2428634,0.145521 4.1007285,2.467239 8.5730331,5.159374 4.472306,2.692136 10.219653,6.144948 12.771883,7.672917 2.552231,1.527968 8.093152,4.861718 12.313158,7.408333 13.470536,8.128955 14.645298,8.805475 16.128288,9.287815 2.038388,0.66299 6.633926,0.6606 9.128125,-0.005 z M 228.98702,55.060536 c 1.5776,-0.445852 3.76132,-1.059269 4.85273,-1.363148 2.50235,-0.696726 4.26672,-1.316551 4.70973,-1.654526 0.18926,-0.144387 0.30832,-0.57037 0.26458,-0.946628 -0.0821,-0.706439 -0.96817,-1.228059 -6.19203,-3.645228 -1.95577,-0.904971 -6.48068,-3.048845 -11.61457,-5.502912 -4.11351,-1.966311 -7.61545,-3.631794 -10.58334,-5.03331 -1.30968,-0.61847 -3.86953,-1.836037 -5.68854,-2.705704 -1.81901,-0.869666 -4.02166,-1.913574 -4.89479,-2.319796 -0.87312,-0.406222 -3.53374,-1.673278 -5.91247,-2.815682 -2.37873,-1.142403 -4.36338,-2.077097 -4.41032,-2.077097 -0.0469,0 -1.85117,-0.84784 -4.0094,-1.884088 -2.15823,-1.036249 -4.87656,-2.33 -6.04073,-2.875004 -4.60441,-2.155551 -6.52911,-3.070038 -10.93945,-5.197686 -2.52419,-1.21773 -4.62262,-2.214055 -4.66316,-2.214055 -0.0405,0 -2.08295,-0.963615 -4.53868,-2.141368 -2.45572,-1.177752 -5.23886,-2.502279 -6.18475,-2.9433934 -2.73628,-1.2760666 -6.78186,-3.1988292 -9.78958,-4.6527415 -1.52797,-0.7386101 -3.37344,-1.5745305 -4.10104,-1.8576007 -1.80708,-0.7030342 -5.93545,-1.2034617 -8.22019,-0.9964243 -2.17327,0.196937 -6.94808,1.312833 -6.58089,1.5379889 0.13695,0.083976 10.25024,5.1794661 22.47399,11.323311 12.22375,6.143845 29.24969,14.712891 37.83542,19.042325 8.58573,4.329434 20.8677,10.504366 27.29327,13.722071 11.28599,5.651636 13.32027,6.857 13.32027,7.892615 0,0.239524 0.15223,0.346416 0.3728,0.261776 0.20503,-0.07868 1.66355,-0.507842 3.24114,-0.953695 z M 110.8085,267.32283 c -2.28042,-0.2345 -2.11667,0.0744 -2.11663,-3.99232 l 5e-5,-3.63298 6.81297,-0.007 c 7.93595,-0.008 10.01272,-0.31799 18.33804,-2.73488 4.14872,-1.20439 11.6062,-4.55461 16.25064,-7.30048 1.11851,-0.66128 2.07902,-1.20233 2.13448,-1.20233 0.20665,0 6.14548,-4.10066 8.18788,-5.65359 6.03255,-4.58682 15.39659,-13.5789 19.54663,-18.77022 1.14128,-1.42763 2.1201,-2.55063 2.17517,-2.49556 0.0551,0.0551 0.0229,2.58219 -0.0715,5.61584 l -0.17159,5.51572 -1.5056,1.74235 c -2.06366,2.38815 -8.14579,8.25319 -10.71418,10.33175 -1.1623,0.94064 -2.17281,1.77571 -2.24557,1.85572 -0.35629,0.3918 -2.9414,2.4207 -4.22055,3.31247 -6.41049,4.46914 -8.48992,5.77197 -12.9982,8.14382 -4.68817,2.46649 -10.28225,4.86805 -13.7375,5.89754 -4.15161,1.23699 -5.13469,1.50503 -7.27604,1.98389 -5.55671,1.2426 -13.77938,1.86432 -18.38854,1.39036 z"
       id="path1" /></g></svg>
